#N canvas 261 33 909 701 16;
#X obj 210 250 tgl 24 0 empty empty empty 0 -12 0 16 #fcfcfc #000000
#000000 1 1;
#X obj 500 830 random;
#X obj 310 389 metro;
#X obj 680 980 noteout;
#X obj 320 450 t;
#X obj 550 910 +;
#X floatatom 450 900 5 0 0 0 - - -, f 5;
#X obj 700 270 random;
#X obj 780 370 +;
#X obj 170 -50 bng 48 250 50 0 empty empty empty 17 7 0 10 #fcfcfc
#000000 #000000;
#X obj 320 -90 cnv 15 262 339 empty empty empty 20 12 0 14 #ffff80
#404040 0;
#X text 350 -80 bpm;
#X obj 421 220 /;
#X msg 370 130 60000;
#X obj 457 164 t b f;
#X floatatom 510 -50 5 0 0 0 - - -, f 5;
#X obj 450 50 random;
#X obj 460 130 +;
#X obj 410 20 metro 500;
#X obj 450 -20 tgl 24 0 empty empty empty 0 -12 0 16 #fcfcfc #000000
#000000 1 1;
#X obj 470 90 t b f;
#X floatatom 340 -50 5 0 0 0 - - -, f 5;
#X obj 520 441 cnv 15 183 322 empty empty empty 20 12 0 14 #ff8080
#404040 0;
#X floatatom 587 494 5 0 0 0 - - -, f 5;
#X floatatom 598 554 5 0 0 0 - - -, f 5;
#X text 590 470 max;
#X text 605 530 min;
#X obj 557 714 -;
#X obj 599 601 t b f;
#X obj 610 660 t f f;
#X obj 662 -123 cnv 15 183 322 empty empty empty 20 12 0 14 #8080ff
#404040 0;
#X floatatom 729 -70 5 0 0 0 - - -, f 5;
#X floatatom 740 -10 5 0 0 0 - - -, f 5;
#X text 732 -94 max;
#X text 747 -34 min;
#X obj 699 150 -;
#X obj 741 37 t b f;
#X obj 762 97 t f f;
#X floatatom 710 360 5 0 0 0 - - -, f 5;
#X text 450 -80 bpm range;
#X text 370 -120 control de tempo;
#X text 520 410 control d'altura;
#X text 672 -153 control de volum;
#X text 160 -80 iniciar;
#X text 430 -50 on/off;
#X text 280 -210 Randomitzador de melodies cromàtiques 1;
#X connect 0 0 2 0;
#X connect 1 0 5 0;
#X connect 1 0 6 0;
#X connect 2 0 4 0;
#X connect 4 0 1 0;
#X connect 4 1 7 0;
#X connect 5 0 3 0;
#X connect 7 0 8 0;
#X connect 7 0 38 0;
#X connect 8 0 3 1;
#X connect 9 0 0 0;
#X connect 9 0 13 0;
#X connect 12 0 2 1;
#X connect 13 0 12 0;
#X connect 14 0 12 0;
#X connect 14 1 12 1;
#X connect 15 0 16 1;
#X connect 16 0 20 0;
#X connect 17 0 14 0;
#X connect 18 0 16 0;
#X connect 19 0 18 0;
#X connect 20 0 17 0;
#X connect 20 1 17 1;
#X connect 21 0 17 0;
#X connect 23 0 27 0;
#X connect 24 0 28 0;
#X connect 27 0 1 1;
#X connect 28 0 27 0;
#X connect 28 1 29 0;
#X connect 29 0 27 1;
#X connect 29 1 5 1;
#X connect 31 0 35 0;
#X connect 32 0 36 0;
#X connect 35 0 7 1;
#X connect 36 0 35 0;
#X connect 36 1 37 0;
#X connect 37 0 35 1;
#X connect 37 1 8 1;
