#N canvas 66 31 1536 906 10;
#X obj 730 30 cnv 15 296 351 empty empty empty 20 12 0 14 #e0e0e0 #404040
0;
#X obj 450 30 cnv 15 262 297 empty empty empty 20 12 0 14 #e0e0e0 #404040
0;
#N canvas 0 0 450 300 (subpatch) 0;
#X array notes 12 float 3 black black;
#A 0 1 0 1 0 1 1 0 1 0 1 0 1;
#X coords 0 1.2 12 -0.2 200 140 1;
#X restore 20 30 graph;
#N canvas 0 0 450 300 (subpatch) 0;
#X array weights 12 float 3 black black;
#A 0 4 0 1 0 2 1 0 3 0 1 0 2;
#X coords 0 4.2 12 -0.2 200 140 1;
#X restore 230 30 graph;
#X msg 230 180 \; weights 0 4 0 1 0 2 1 0 3 0 1 0 2;
#X msg 20 180 \; notes 0 1 0 1 0 1 1 0 1 0 1 0 1;
#X obj 530 40 notein;
#X obj 530 130 spigot;
#X obj 570 210 f;
#X obj 620 210 + 1;
#X obj 530 180 t f b;
#X msg 610 40 0;
#X obj 530 290 tabwrite input;
#N canvas 536 233 450 305 (subpatch) 0;
#X array input 100 float 3 black black;
#A 0 9 7 3 0 0 7 3 0 7 3 0 9 0 3 3 9 0 3 9 0 7 3 11 0 3 9 0 3 9 0 7
3 0 3 0 9 0 3 3 3 3 3 3 3 11 0 11 11 0 11 0 11 0 11 0 11 0 11 0 11
0 11 0 11 0 11 0 11 0 7 3 0 7 3 0 7 3 0 7 3 0 7 3 10 7 6 10 3 7 10
3 10 7 3 10 7 3 3 0 7;
#X coords 0 11 100 0 200 140 1;
#X restore 20 230 graph;
#X msg 610 130 \; input const 0;
#X obj 520 100 noteout;
#X obj 650 210 % 100;
#X obj 530 240 % 12;
#X text 460 240 pitchclass;
#X text 20 10 notes d'una tonalitat;
#X text 230 10 notes d'una tonalitat PONDERADES;
#N canvas 536 233 450 305 (subpatch) 0;
#X array hist 10 float 3 black black;
#A 0 3 0 0 6 0 0 0 0 0 1;
#X coords 0 10 10 0 200 140 1;
#X restore 230 230 graph;
#X obj 740 110 until;
#X msg 740 40 10;
#X obj 740 140 f;
#X obj 790 140 + 1;
#X obj 740 230 tabread input;
#X obj 740 170 t f f;
#X obj 820 140 % 100;
#X text 450 10 guarda el pitchlass de les notes tocades;
#X msg 230 380 \; hist const 0;
#X obj 740 350 tabwrite hist;
#X obj 740 290 tabread hist;
#X obj 740 320 + 1;
#X obj 740 260 t f f;
#X obj 570 240 t f f f b;
#X obj 740 200 - 10;
#X msg 20 380 \; input const 0;
#X msg 810 100 \; hist const 0;
#X text 770 200 agafa les 10 notes anteriors;
#X text 894 100 reinicia l'histograma, f 14;
#X obj 740 70 t f b f;
#X text 768 38 mida de la finestra (es pot canviar), f 21;
#X text 730 10 actualitza l'histograma amb cada nota introduïda;
#X connect 6 0 7 0;
#X connect 6 0 15 0;
#X connect 6 1 7 1;
#X connect 6 1 15 1;
#X connect 7 0 10 0;
#X connect 8 0 35 0;
#X connect 9 0 16 0;
#X connect 10 0 17 0;
#X connect 10 1 8 0;
#X connect 11 0 8 1;
#X connect 11 0 14 0;
#X connect 16 0 8 1;
#X connect 17 0 12 0;
#X connect 22 0 24 0;
#X connect 23 0 41 0;
#X connect 24 0 27 0;
#X connect 25 0 28 0;
#X connect 26 0 34 0;
#X connect 27 0 36 0;
#X connect 27 1 25 0;
#X connect 28 0 24 1;
#X connect 32 0 33 0;
#X connect 33 0 31 0;
#X connect 34 0 32 0;
#X connect 34 1 31 1;
#X connect 35 0 12 1;
#X connect 35 1 9 0;
#X connect 35 2 24 1;
#X connect 35 3 23 0;
#X connect 36 0 26 0;
#X connect 41 0 22 0;
#X connect 41 1 38 0;
#X connect 41 2 36 1;
