#N canvas 63 84 1538 787 10;
#X obj 600 220 cnv 15 342 191 empty empty empty 20 12 0 14 #f2f2f2
#404040 0;
#X obj 50 220 cnv 15 518 148 empty empty empty 20 12 0 14 #f2f2f2 #404040
0;
#X obj 370 30 cnv 15 209 161 empty empty empty 20 12 0 14 #f2f2f2 #404040
0;
#X obj 622 27 cnv 15 167 161 empty empty empty 20 12 0 14 #f2f2f2 #404040
0;
#X obj 50 30 cnv 15 296 166 empty empty empty 20 12 0 14 #f2f2f2 #404040
0;
#X obj 460 100 cnv 15 109 58 empty empty empty 20 12 0 14 #ffffb5 #404040
0;
#X obj 60 60 bng 15 250 50 0 empty empty empty 17 7 0 10 #fcfcfc #000000
#000000;
#X obj 80 110 f;
#X msg 110 60 45;
#X floatatom 80 150 5 0 0 0 - - -, f 5;
#X obj 380 60 bng 15 250 50 0 empty empty empty 17 7 0 10 #fcfcfc #000000
#000000;
#X obj 400 110 f;
#X msg 430 60 45;
#X floatatom 400 170 5 0 0 0 - - -, f 5;
#X obj 400 140 + 1;
#X obj 470 130 f;
#X obj 510 130 + 1;
#X text 60 40 f guarda una variable i l'expulsa amb el bang;
#X text 380 40 contador (f = f + 1);
#X text 470 110 contador típic;
#X obj 100 340 noteout;
#X msg 60 260 50;
#X msg 60 300 72;
#X msg 110 260 120;
#X msg 110 300 60;
#X msg 160 300 0;
#X text 220 300 -------------->;
#X obj 350 300 makenote;
#X obj 350 330 noteout;
#X msg 430 260 500;
#X msg 350 260 50;
#X msg 390 260 120;
#X text 60 230 per apagar una nota se li ha d'enviar la mateixa amb
velocity 0, f 34;
#X obj 60 472 tgl 15 0 empty empty empty 17 7 0 10 #fcfcfc #000000
#000000 0 1;
#X obj 60 582 f;
#X obj 60 612 t f f;
#X obj 60 502 t f b b b;
#X obj 60 662 makenote;
#X obj 60 692 noteout;
#X msg 150 612 127;
#X text 220 612 valors inicials;
#X text 170 542 nota inicial;
#X msg 190 612 200;
#X obj 100 582 + 2;
#X obj 60 542 metro 150;
#X msg 630 80 1;
#X msg 670 80 15;
#X msg 710 80 20;
#X obj 630 160 bng 15 250 50 0 empty empty empty 17 7 0 10 #fcfcfc
#000000 #000000;
#X obj 630 120 select 15 20;
#X floatatom 720 160 5 0 0 0 - - -, f 5;
#X obj 670 160 bng 15 250 50 0 empty empty empty 17 7 0 10 #fcfcfc
#000000 #000000;
#X text 630 34 if 15: envia un bang else if 20: un bang else: envia
l'entrada, f 22;
#X msg 750 80 30;
#X text 60 990 final;
#X obj 399 472 tgl 15 0 empty empty empty 17 7 0 10 #fcfcfc #000000
#000000 0 1;
#X obj 399 582 f;
#X obj 399 612 t f f;
#X obj 399 502 t f b b b;
#X obj 399 662 makenote;
#X obj 399 692 noteout;
#X msg 489 612 127;
#X text 559 612 valors inicials;
#X text 509 542 nota inicial;
#X msg 529 612 200;
#X obj 439 582 + 2;
#X obj 399 542 metro 150;
#X text 398 452 + select = acaba en una nota;
#X text 611 572 nota final;
#N canvas 536 235 450 301 (subpatch) 0;
#X array melodia 16 float 3 black black;
#A 0 50 50 57 57 59 59 57 57 55 55 54 54 52 52 50 50;
#X coords 0 70 16 40 185 105 1;
#X restore 610 250 graph;
#X text 610 230 array per guardar valors;
#X obj 810 290 tabread melodia;
#X text 810 230 per llegir l'array:;
#X floatatom 810 260 5 0 0 0 - - -, f 5;
#X floatatom 810 320 5 0 0 0 - - -, f 5;
#X obj 754 470 tgl 15 0 empty empty empty 17 7 0 10 #fcfcfc #000000
#000000 0 1;
#X obj 754 580 f;
#X obj 754 610 t f f;
#X obj 754 500 t f b b b;
#X obj 754 688 makenote;
#X obj 754 718 noteout;
#X msg 844 610 127;
#X text 914 610 valors inicials;
#X msg 884 610 200;
#X obj 754 650 tabread melodia;
#X obj 794 580 + 1;
#X msg 834 540 0;
#X text 753 450 + melodia;
#X obj 754 540 metro 220;
#X msg 140 542 50;
#X msg 479 542 50;
#X text 854 650 llegeix melodia;
#X obj 549 572 select 74;
#X msg 610 359 \; melodia 0 50 50 57 57 59 59 57 57 55 55 54 54 52
52 50 50, f 34;
#X obj 904 560 select 15;
#X text 970 560 index final;
#X text 60 452 contador + makenote = escala;
#X text 350 230 el makenote apaga la nota després d'un temps (500
ms aquí), f 33;
#X connect 6 0 7 0;
#X connect 7 0 9 0;
#X connect 8 0 7 1;
#X connect 10 0 11 0;
#X connect 11 0 14 0;
#X connect 12 0 11 1;
#X connect 14 0 13 0;
#X connect 14 0 11 1;
#X connect 15 0 16 0;
#X connect 16 0 15 1;
#X connect 21 0 20 0;
#X connect 22 0 20 0;
#X connect 23 0 20 1;
#X connect 24 0 20 1;
#X connect 25 0 20 1;
#X connect 27 0 28 0;
#X connect 27 1 28 1;
#X connect 29 0 27 2;
#X connect 30 0 27 0;
#X connect 31 0 27 1;
#X connect 33 0 36 0;
#X connect 34 0 35 0;
#X connect 35 0 37 0;
#X connect 35 1 43 0;
#X connect 36 0 44 0;
#X connect 36 1 39 0;
#X connect 36 2 42 0;
#X connect 36 3 89 0;
#X connect 37 0 38 0;
#X connect 37 1 38 1;
#X connect 39 0 37 1;
#X connect 42 0 37 2;
#X connect 43 0 34 1;
#X connect 44 0 34 0;
#X connect 45 0 49 0;
#X connect 46 0 49 0;
#X connect 47 0 49 0;
#X connect 49 0 48 0;
#X connect 49 1 51 0;
#X connect 49 2 50 0;
#X connect 53 0 49 0;
#X connect 55 0 58 0;
#X connect 56 0 57 0;
#X connect 57 0 59 0;
#X connect 57 0 92 0;
#X connect 57 1 65 0;
#X connect 58 0 66 0;
#X connect 58 1 61 0;
#X connect 58 2 64 0;
#X connect 58 3 90 0;
#X connect 59 0 60 0;
#X connect 59 1 60 1;
#X connect 61 0 59 1;
#X connect 64 0 59 2;
#X connect 65 0 56 1;
#X connect 66 0 56 0;
#X connect 71 0 74 0;
#X connect 73 0 71 0;
#X connect 75 0 78 0;
#X connect 76 0 77 0;
#X connect 77 0 84 0;
#X connect 77 0 94 0;
#X connect 77 1 85 0;
#X connect 78 0 88 0;
#X connect 78 1 81 0;
#X connect 78 2 83 0;
#X connect 78 3 86 0;
#X connect 79 0 80 0;
#X connect 79 1 80 1;
#X connect 81 0 79 1;
#X connect 83 0 79 2;
#X connect 84 0 79 0;
#X connect 85 0 76 1;
#X connect 86 0 76 1;
#X connect 88 0 76 0;
#X connect 89 0 34 1;
#X connect 90 0 56 1;
#X connect 92 0 90 0;
#X connect 94 0 86 0;
