#N canvas 338 89 987 778 10;
#X obj 205 275 cnv 15 87 137 empty empty empty 20 12 0 14 #e0e0e0 #404040
0;
#X obj 94 275 cnv 15 87 137 empty empty empty 20 12 0 14 #e0e0e0 #404040
0;
#X obj 100 150 t f f b;
#X msg 100 100 1;
#X msg 140 100 5;
#X msg 180 100 3;
#X msg 220 100 7;
#X obj 100 280 t f b;
#X obj 140 320 f;
#X obj 100 350 +;
#X obj 100 390 tabwrite acc;
#X obj 170 200 f;
#X obj 230 200 + 1;
#X obj 170 230 t f f f;
#X msg 220 150 0;
#X text 250 150 reset;
#X text 250 100 values;
#X obj 250 320 f;
#X obj 210 280 t f f b;
#X obj 210 350 -;
#N canvas 0 0 450 300 (subpatch) 0;
#X array acc 10 float 3 black black;
#A 0 1 2 7 10 15 22 25 26 29 37;
#X coords 0 40 10 0 200 140 1;
#X restore 320 100 graph;
#N canvas 0 0 450 300 (subpatch) 0;
#X array dif 10 float 3 black black;
#A 0 0 0 4 -2 2 2 -4 -2 2 0;
#X coords 0 10 10 -10 200 140 1;
#X restore 320 248 graph;
#X obj 210 390 tabwrite dif;
#X msg 320 400 \; acc const 0 \; dif const 0;
#X text 106 415 acumulador;
#X text 214 415 diferències;
#X connect 2 0 7 0;
#X connect 2 1 18 0;
#X connect 2 2 11 0;
#X connect 3 0 2 0;
#X connect 4 0 2 0;
#X connect 5 0 2 0;
#X connect 6 0 2 0;
#X connect 7 0 9 0;
#X connect 7 1 8 0;
#X connect 8 0 9 1;
#X connect 9 0 8 1;
#X connect 9 0 10 0;
#X connect 11 0 13 0;
#X connect 12 0 11 1;
#X connect 13 0 10 1;
#X connect 13 1 22 1;
#X connect 13 2 12 0;
#X connect 14 0 11 1;
#X connect 14 0 8 1;
#X connect 14 0 19 1;
#X connect 17 0 19 1;
#X connect 18 0 17 1;
#X connect 18 1 19 0;
#X connect 18 2 17 0;
#X connect 19 0 22 0;
