#N canvas -8 -8 1538 787 10;
#X obj 690 -280 cnv 15 340 337 empty empty empty 20 12 0 14 #e0e0e0
#404040 0;
#X obj 340 -280 cnv 15 340 337 empty empty empty 20 12 0 14 #e0e0e0
#404040 0;
#N canvas 0 0 450 300 (subpatch) 0;
#X array scores 12 float 3 black black;
#A 0 93 35 38 31 20 62 12 78 38 21 29 18;
#X coords 0 150 12 0 175 140 1;
#X restore 150 -280 graph;
#X text 152 -140 C C# D D# E F F# G G# A A# B;
#X msg 350 -270 12;
#X obj 370 -210 until;
#X obj 370 -180 f;
#X obj 430 -180 + 1;
#X msg 490 -210 0;
#X obj 400 -120 tabread scores;
#X obj 370 -150 t f f f;
#X obj 370 -30 f;
#X text 394 -30 posició;
#X obj 350 -240 t b f b;
#X text 340 -300 buscador valor més gran;
#X text 504 -30 valor més gran;
#X obj 400 -90 moses 0;
#X floatatom 470 -30 5 0 0 0 - - -, f 5;
#X obj 350 0 f;
#X floatatom 350 30 5 0 0 0 - - -, f 5;
#X text 519 -216 reinicia el comptador \, el moses i la memòria,
f 23;
#X obj 440 -60 t b f;
#X text 400 -330;
#X obj 700 -270 tgl 15 0 empty empty empty 17 7 0 10 #fcfcfc #000000
#000000 0 1;
#X obj 700 30 noteout;
#X obj 700 -210 f;
#X obj 750 -210 + 1;
#X obj 700 -180 t f f;
#X obj 780 -210 % 4;
#X msg 700 -90 0;
#X msg 730 -90 7;
#X msg 790 -90 7;
#X obj 700 -30 +;
#X msg 760 -90 5;
#X obj 700 -150 sel 0 1 2 3;
#X obj 820 -120 t b b b;
#X obj 910 -120 t b b b;
#X msg 880 -90 7;
#X msg 970 -90 7;
#X obj 820 -30 +;
#X msg 820 -90 0;
#X msg 850 -90 4;
#X msg 910 -90 -1;
#X msg 940 -90 2;
#X obj 820 30 noteout;
#X obj 700 -60 + 36;
#X obj 820 -60 + 48;
#X obj 700 -240 metro 600;
#X obj 820 0 makenote 60 1000;
#X obj 700 0 makenote 50 200;
#X text 690 -300 generador d'acompanyaments;
#X connect 4 0 13 0;
#X connect 5 0 6 0;
#X connect 6 0 10 0;
#X connect 7 0 6 1;
#X connect 8 0 6 1;
#X connect 8 0 11 1;
#X connect 8 0 16 1;
#X connect 9 0 16 0;
#X connect 10 0 9 0;
#X connect 10 1 11 1;
#X connect 10 2 7 0;
#X connect 11 0 18 1;
#X connect 13 0 18 0;
#X connect 13 1 5 0;
#X connect 13 2 8 0;
#X connect 16 1 21 0;
#X connect 18 0 19 0;
#X connect 18 0 32 1;
#X connect 18 0 39 1;
#X connect 21 0 11 0;
#X connect 21 1 16 1;
#X connect 21 1 17 0;
#X connect 23 0 47 0;
#X connect 25 0 27 0;
#X connect 26 0 28 0;
#X connect 27 0 34 0;
#X connect 27 1 26 0;
#X connect 28 0 25 1;
#X connect 29 0 45 0;
#X connect 30 0 45 0;
#X connect 31 0 45 0;
#X connect 32 0 49 0;
#X connect 33 0 45 0;
#X connect 34 0 29 0;
#X connect 34 0 35 0;
#X connect 34 1 30 0;
#X connect 34 2 33 0;
#X connect 34 2 36 0;
#X connect 34 3 31 0;
#X connect 35 0 40 0;
#X connect 35 1 41 0;
#X connect 35 2 37 0;
#X connect 36 0 42 0;
#X connect 36 1 43 0;
#X connect 36 2 38 0;
#X connect 37 0 46 0;
#X connect 38 0 46 0;
#X connect 39 0 48 0;
#X connect 40 0 46 0;
#X connect 41 0 46 0;
#X connect 42 0 46 0;
#X connect 43 0 46 0;
#X connect 45 0 32 0;
#X connect 46 0 39 0;
#X connect 47 0 25 0;
#X connect 48 0 44 0;
#X connect 48 1 44 1;
#X connect 49 0 24 0;
#X connect 49 1 24 1;
