#N canvas 0 0 1522 772 10;
#X obj 360 150 cnv 15 77 119 empty empty empty 20 12 0 14 #e0e0e0 #404040
0;
#X obj 490 360 cnv 15 181 607 empty empty empty 20 12 0 14 #e0e0e0
#404040 0;
#X obj 620 520 cnv 15 295 376 empty empty empty 20 12 0 14 #cecece
#404040 0;
#X obj 450 30 cnv 15 262 297 empty empty empty 20 12 0 14 #e0e0e0 #404040
0;
#X obj 730 30 cnv 15 316 360 empty empty empty 20 12 0 14 #e0e0e0 #404040
0;
#N canvas 0 0 450 300 (subpatch) 0;
#X array weights 12 float 3 black black;
#A 0 5 0 1 0 2 3 0 4 0 1 0 3;
#X coords 0 5 12 0 200 140 1;
#X restore 1100 30 graph;
#X obj 530 40 notein;
#X obj 530 130 spigot;
#X obj 570 210 f;
#X obj 620 210 + 1;
#X obj 530 180 t f b;
#X msg 610 40 0;
#X obj 550 290 tabwrite input;
#N canvas 536 233 450 305 (subpatch) 0;
#X array input 100 float 3 black black;
#A 0 7 7 11 2 11 6 7 2 4 2 6 4 6 9 7 6 2 4 0 2 11 0 9 11 7 9 6 7 4
6 2 4 0 2 11 0 9 8 7 7 7 9 7 6 7 2 4 0 2 11 11 6 9 7 2 6 7 7 11 2 11
9 11 7 6 7 5 8 9 5 8 9 5 8 9 5 8 9 5 9 8 5 9 8 9 1 4 2 1 0 9 0 4 7
0 4 7 9 0 4;
#X coords 0 11 100 0 200 140 1;
#X restore 1100 230 graph;
#X msg 610 130 \; input const 0;
#X obj 530 220 % 12;
#X text 1100 10 notes d'una tonalitat PONDERADES;
#N canvas 536 233 450 305 (subpatch) 0;
#X array hist 12 float 3 black black;
#A 0 1 0 3 0 3 0 2 3 0 1 0 2;
#X coords 0 10 12 0 175 140 1;
#X restore 1350 30 graph;
#X obj 810 120 until;
#X obj 810 150 f;
#X obj 860 150 + 1;
#X obj 810 240 tabread input;
#X obj 810 180 t f f;
#X obj 890 150 % 100;
#X text 450 10 guarda el pitchlass de les notes tocades;
#X obj 810 360 tabwrite hist;
#X obj 810 300 tabread hist;
#X obj 810 330 + 1;
#X obj 810 270 t f f;
#X msg 1100 380 \; input const 0;
#X msg 880 110 \; hist const 0;
#X text 740 200 agafa les 10 notes anteriors, f 9;
#X text 961 110 reinicia l'histograma, f 14;
#X text 838 45 mida de la finestra (es pot canviar), f 21;
#X text 730 10 actualitza l'histograma amb cada nota introduïda;
#X obj 650 590 until;
#X obj 650 620 f;
#X obj 710 620 + 1;
#X obj 650 760 tabread hist;
#X obj 740 760 tabread weights;
#X obj 650 790 *;
#X obj 650 820 t f b;
#X obj 690 850 f;
#X obj 650 850 +;
#X msg 700 590 0;
#X obj 630 880 f;
#X text 676 790 multiplica histograma i pesos;
#X text 728 584 reinicia contador i acumulador, f 23;
#X text 720 850 acumulador (producte escalar);
#X text 656 880 mostra l'ultim valor;
#X obj 650 650 t f f f;
#X msg 630 530 12;
#X obj 630 560 t b f b;
#N canvas 0 0 450 300 (subpatch) 0;
#X array scores 12 float 3 black black;
#A 0 33 9 37 16 28 21 16 44 11 30 13 27;
#X coords 0 150 12 0 175 140 1;
#X restore 1350 230 graph;
#X msg 500 370 12;
#X obj 500 430 until;
#X obj 500 460 f;
#X obj 570 460 + 1;
#X msg 550 430 0;
#X obj 500 910 tabwrite scores;
#X obj 500 400 t f b;
#X text 677 501 calcula la puntuació per una tonalitat;
#X obj 650 210 % 100;
#X obj 810 80 t f b;
#X obj 740 180 % 100;
#X obj 770 90 101;
#X obj 770 120 -;
#X obj 740 150 +;
#X obj 570 240 t f f b f;
#X text 462 197 només guarda la pitchclass, f 10;
#X text 670 1010 comment;
#X text 1352 170 C C# D D# E F F# G G# A A# B;
#X text 1352 370 C C# D D# E F F# G G# A A# B;
#X obj 740 730 % 12;
#X obj 500 490 t b f f f;
#X text 517 342 recorre les 12 tonalitats;
#X text 494 930 guarda la puntuació de cada tonalitat, f 20;
#X text 770 700 offset dels pesos per cada tonalitat, f 15;
#X msg 1100 180 \; weights 0 5 0 1 0 2 3 0 4 0 1 0 3;
#X obj 740 690 -;
#X obj 740 710 + 12;
#X obj 1284 520 cnv 15 340 337 empty empty empty 20 12 0 14 #e0e0e0
#404040 0;
#X obj 930 520 cnv 15 340 337 empty empty empty 20 12 0 14 #e0e0e0
#404040 0;
#X msg 940 530 12;
#X obj 960 590 until;
#X obj 960 620 f;
#X obj 1020 620 + 1;
#X msg 1080 590 0;
#X obj 990 680 tabread scores;
#X obj 960 650 t f f f;
#X obj 960 770 f;
#X text 984 770 posició;
#X obj 940 560 t b f b;
#X text 1020 500 buscador valor més gran;
#X text 1094 770 valor més gran;
#X obj 990 710 moses 0;
#X floatatom 1060 770 5 0 0 0 - - -, f 5;
#X obj 940 800 f;
#X floatatom 940 830 5 0 0 0 - - -, f 5;
#X text 1109 584 reinicia el comptador \, el moses i la memòria,
f 23;
#X obj 1030 740 t b f;
#X obj 1294 530 tgl 15 0 empty empty empty 17 7 0 10 #fcfcfc #000000
#000000 0 1;
#X obj 1294 830 noteout;
#X obj 1294 590 f;
#X obj 1344 590 + 1;
#X obj 1294 620 t f f;
#X obj 1374 590 % 4;
#X msg 1294 710 0;
#X msg 1324 710 7;
#X msg 1384 710 7;
#X obj 1294 770 +;
#X msg 1354 710 5;
#X obj 1294 650 sel 0 1 2 3;
#X obj 1414 680 t b b b;
#X obj 1504 680 t b b b;
#X msg 1474 710 7;
#X msg 1564 710 7;
#X obj 1414 770 +;
#X msg 1414 710 0;
#X msg 1444 710 4;
#X msg 1504 710 -1;
#X msg 1534 710 2;
#X obj 1414 830 noteout;
#X obj 1294 740 + 36;
#X obj 1414 740 + 48;
#X obj 1294 560 metro 600;
#X text 1310 500 generador d'acompanyaments;
#X obj 500 260 t b b b f;
#X obj 370 240 noteout;
#X obj 370 160 sel 0;
#X msg 370 190 0;
#X obj 400 190 t b;
#X msg 400 210 120;
#X text 346 270 totes les notes a velocity igual, f 16;
#X obj 1414 800 makenote 70 1000;
#X obj 1294 800 makenote 70 300;
#X msg 810 50 15;
#X connect 6 0 7 0;
#X connect 6 0 128 0;
#X connect 6 1 7 1;
#X connect 6 1 129 0;
#X connect 7 0 10 0;
#X connect 8 0 68 0;
#X connect 9 0 62 0;
#X connect 10 0 15 0;
#X connect 10 1 8 0;
#X connect 11 0 8 1;
#X connect 11 0 14 0;
#X connect 15 0 127 0;
#X connect 18 0 19 0;
#X connect 19 0 22 0;
#X connect 20 0 23 0;
#X connect 21 0 28 0;
#X connect 22 0 21 0;
#X connect 22 1 20 0;
#X connect 23 0 19 1;
#X connect 26 0 27 0;
#X connect 27 0 25 0;
#X connect 28 0 26 0;
#X connect 28 1 25 1;
#X connect 35 0 36 0;
#X connect 36 0 50 0;
#X connect 37 0 36 1;
#X connect 38 0 40 0;
#X connect 39 0 40 1;
#X connect 40 0 41 0;
#X connect 41 0 43 0;
#X connect 41 1 42 0;
#X connect 42 0 43 1;
#X connect 43 0 42 1;
#X connect 43 0 45 1;
#X connect 44 0 36 1;
#X connect 44 0 42 1;
#X connect 45 0 59 0;
#X connect 50 0 38 0;
#X connect 50 1 79 0;
#X connect 50 2 37 0;
#X connect 51 0 52 0;
#X connect 52 0 45 0;
#X connect 52 1 35 0;
#X connect 52 2 44 0;
#X connect 54 0 60 0;
#X connect 55 0 56 0;
#X connect 56 0 74 0;
#X connect 57 0 56 1;
#X connect 58 0 56 1;
#X connect 60 0 55 0;
#X connect 60 1 58 0;
#X connect 62 0 8 1;
#X connect 63 0 18 0;
#X connect 63 1 30 0;
#X connect 64 0 19 1;
#X connect 65 0 66 0;
#X connect 66 0 67 1;
#X connect 67 0 64 0;
#X connect 68 0 12 1;
#X connect 68 1 9 0;
#X connect 68 2 65 0;
#X connect 68 3 67 0;
#X connect 73 0 39 0;
#X connect 74 0 51 0;
#X connect 74 1 59 1;
#X connect 74 2 79 1;
#X connect 74 3 57 0;
#X connect 79 0 80 0;
#X connect 80 0 73 0;
#X connect 83 0 92 0;
#X connect 84 0 85 0;
#X connect 85 0 89 0;
#X connect 86 0 85 1;
#X connect 87 0 85 1;
#X connect 87 0 90 1;
#X connect 87 0 95 1;
#X connect 88 0 95 0;
#X connect 89 0 88 0;
#X connect 89 1 90 1;
#X connect 89 2 86 0;
#X connect 90 0 97 1;
#X connect 92 0 97 0;
#X connect 92 1 84 0;
#X connect 92 2 87 0;
#X connect 95 1 100 0;
#X connect 97 0 98 0;
#X connect 97 0 110 1;
#X connect 97 0 117 1;
#X connect 100 0 90 0;
#X connect 100 1 95 1;
#X connect 100 1 96 0;
#X connect 101 0 125 0;
#X connect 103 0 105 0;
#X connect 104 0 106 0;
#X connect 105 0 112 0;
#X connect 105 1 104 0;
#X connect 106 0 103 1;
#X connect 107 0 123 0;
#X connect 108 0 123 0;
#X connect 109 0 123 0;
#X connect 110 0 135 0;
#X connect 111 0 123 0;
#X connect 112 0 107 0;
#X connect 112 0 113 0;
#X connect 112 1 108 0;
#X connect 112 2 111 0;
#X connect 112 2 114 0;
#X connect 112 3 109 0;
#X connect 113 0 118 0;
#X connect 113 1 119 0;
#X connect 113 2 115 0;
#X connect 114 0 120 0;
#X connect 114 1 121 0;
#X connect 114 2 116 0;
#X connect 115 0 124 0;
#X connect 116 0 124 0;
#X connect 117 0 134 0;
#X connect 118 0 124 0;
#X connect 119 0 124 0;
#X connect 120 0 124 0;
#X connect 121 0 124 0;
#X connect 123 0 110 0;
#X connect 124 0 117 0;
#X connect 125 0 103 0;
#X connect 127 0 83 0;
#X connect 127 1 54 0;
#X connect 127 2 136 0;
#X connect 127 3 12 0;
#X connect 129 0 130 0;
#X connect 129 1 131 0;
#X connect 130 0 128 1;
#X connect 131 0 132 0;
#X connect 132 0 128 1;
#X connect 134 0 122 0;
#X connect 134 1 122 1;
#X connect 135 0 102 0;
#X connect 135 1 102 1;
#X connect 136 0 63 0;
#X connect 136 0 66 1;
