#N canvas -8 -8 1538 787 10;
#X obj 490 360 cnv 15 181 607 empty empty empty 20 12 0 14 #e0e0e0
#404040 0;
#X obj 620 520 cnv 15 295 376 empty empty empty 20 12 0 14 #cecece
#404040 0;
#X obj 450 30 cnv 15 262 297 empty empty empty 20 12 0 14 #e0e0e0 #404040
0;
#X obj 730 30 cnv 15 316 360 empty empty empty 20 12 0 14 #e0e0e0 #404040
0;
#N canvas 0 0 450 300 (subpatch) 0;
#X array notes 12 float 3 black black;
#A 0 1 0 1 0 1 1 0 1 0 1 0 1;
#X coords 0 1 12 0 200 140 1;
#X restore 20 30 graph;
#N canvas 0 0 450 300 (subpatch) 0;
#X array weights 12 float 3 black black;
#A 0 5 0 1 0 2 3 0 4 0 1 0 3;
#X coords 0 5 12 0 200 140 1;
#X restore 230 30 graph;
#X msg 20 180 \; notes 0 1 0 1 0 1 1 0 1 0 1 0 1;
#X obj 530 40 notein;
#X obj 530 130 spigot;
#X obj 570 210 f;
#X obj 620 210 + 1;
#X obj 530 180 t f b;
#X msg 610 40 0;
#X obj 550 290 tabwrite input;
#N canvas 536 233 450 305 (subpatch) 0;
#X array input 100 float 3 black black;
#A 0 5 8 0 5 8 0 5 8 0 8 5 0 4 7 4 7 0 10 4 7 10 0 4 7 10 0 4 7 10
0 4 7 10 0 4 7 10 0 5 8 0 5 8 0 5 0 7 4 0 0 7 4 0 8 5 0 8 5 5 8 0 5
8 0 8 8 8 8 8 8 8 8 8 8 8 8 8 8 8 8 8 8 8 8 8 8 8 8 8 8 8 4 7 0 4 7
0 5 8 0;
#X coords 0 11 100 0 200 140 1;
#X restore 20 230 graph;
#X msg 610 130 \; input const 0;
#X obj 520 100 noteout;
#X obj 530 220 % 12;
#X text 20 10 notes d'una tonalitat;
#X text 230 10 notes d'una tonalitat PONDERADES;
#N canvas 536 233 450 305 (subpatch) 0;
#X array hist 12 float 3 black black;
#A 0 7 0 0 0 4 2 0 5 2 0 5 0;
#X coords 0 10 12 0 175 140 1;
#X restore 240 230 graph;
#X obj 810 120 until;
#X obj 810 150 f;
#X obj 860 150 + 1;
#X obj 810 240 tabread input;
#X obj 810 180 t f f;
#X obj 890 150 % 100;
#X text 450 10 guarda el pitchlass de les notes tocades;
#X obj 810 360 tabwrite hist;
#X obj 810 300 tabread hist;
#X obj 810 330 + 1;
#X obj 810 270 t f f;
#X msg 20 380 \; input const 0;
#X msg 880 110 \; hist const 0;
#X text 740 200 agafa les 10 notes anteriors, f 9;
#X text 961 110 reinicia l'histograma, f 14;
#X text 838 45 mida de la finestra (es pot canviar), f 21;
#X text 730 10 actualitza l'histograma amb cada nota introduïda;
#X obj 650 590 until;
#X obj 650 620 f;
#X obj 710 620 + 1;
#X obj 650 760 tabread hist;
#X obj 740 760 tabread weights;
#X obj 650 790 *;
#X obj 650 820 t f b;
#X obj 690 850 f;
#X obj 650 850 +;
#X msg 700 590 0;
#X obj 630 880 f;
#X text 676 790 multiplica histograma i pesos;
#X text 728 584 reinicia contador i acumulador, f 23;
#X text 720 850 acumulador (producte escalar);
#X text 656 880 mostra l'ultim valor;
#X obj 500 260 t b b f;
#X obj 650 650 t f f f;
#X msg 630 530 12;
#X obj 630 560 t b f b;
#N canvas 0 0 450 300 (subpatch) 0;
#X array scores 12 float 3 black black;
#A 0 69 38 19 45 24 70 18 50 46 22 45 29;
#X coords 0 150 12 0 175 140 1;
#X restore 240 400 graph;
#X msg 500 370 12;
#X obj 500 430 until;
#X obj 500 460 f;
#X obj 570 460 + 1;
#X msg 550 430 0;
#X obj 500 910 tabwrite scores;
#X obj 500 400 t f b;
#X text 677 501 calcula la puntuació per una tonalitat;
#X obj 650 210 % 100;
#X obj 810 80 t f b;
#X obj 740 180 % 100;
#X obj 770 90 101;
#X obj 770 120 -;
#X obj 740 150 +;
#X obj 570 240 t f f b f;
#X text 462 197 només guarda la pitchclass, f 10;
#X text 670 1010 comment;
#X text 242 370 C C# D D# E F F# G G# A A# B;
#X text 242 540 C C# D D# E F F# G G# A A# B;
#X obj 740 730 % 12;
#X obj 500 490 t b f f f;
#X text 517 342 recorre les 12 tonalitats;
#X text 494 930 guarda la puntuació de cada tonalitat, f 20;
#X text 770 700 offset dels pesos per cada tonalitat, f 15;
#X msg 230 180 \; weights 0 5 0 1 0 2 3 0 4 0 1 0 3;
#X obj 740 690 -;
#X obj 740 710 + 12;
#X msg 810 50 25;
#X connect 7 0 8 0;
#X connect 7 0 16 0;
#X connect 7 1 8 1;
#X connect 7 1 16 1;
#X connect 8 0 11 0;
#X connect 9 0 72 0;
#X connect 10 0 66 0;
#X connect 11 0 17 0;
#X connect 11 1 9 0;
#X connect 12 0 9 1;
#X connect 12 0 15 0;
#X connect 17 0 53 0;
#X connect 21 0 22 0;
#X connect 22 0 25 0;
#X connect 23 0 26 0;
#X connect 24 0 31 0;
#X connect 25 0 24 0;
#X connect 25 1 23 0;
#X connect 26 0 22 1;
#X connect 29 0 30 0;
#X connect 30 0 28 0;
#X connect 31 0 29 0;
#X connect 31 1 28 1;
#X connect 38 0 39 0;
#X connect 39 0 54 0;
#X connect 40 0 39 1;
#X connect 41 0 43 0;
#X connect 42 0 43 1;
#X connect 43 0 44 0;
#X connect 44 0 46 0;
#X connect 44 1 45 0;
#X connect 45 0 46 1;
#X connect 46 0 45 1;
#X connect 46 0 48 1;
#X connect 47 0 39 1;
#X connect 47 0 45 1;
#X connect 48 0 63 0;
#X connect 53 0 58 0;
#X connect 53 1 85 0;
#X connect 53 2 13 0;
#X connect 54 0 41 0;
#X connect 54 1 83 0;
#X connect 54 2 40 0;
#X connect 55 0 56 0;
#X connect 56 0 48 0;
#X connect 56 1 38 0;
#X connect 56 2 47 0;
#X connect 58 0 64 0;
#X connect 59 0 60 0;
#X connect 60 0 78 0;
#X connect 61 0 60 1;
#X connect 62 0 60 1;
#X connect 64 0 59 0;
#X connect 64 1 62 0;
#X connect 66 0 9 1;
#X connect 67 0 21 0;
#X connect 67 1 33 0;
#X connect 68 0 22 1;
#X connect 69 0 70 0;
#X connect 70 0 71 1;
#X connect 71 0 68 0;
#X connect 72 0 13 1;
#X connect 72 1 10 0;
#X connect 72 2 69 0;
#X connect 72 3 71 0;
#X connect 77 0 42 0;
#X connect 78 0 55 0;
#X connect 78 1 63 1;
#X connect 78 2 83 1;
#X connect 78 3 61 0;
#X connect 83 0 84 0;
#X connect 84 0 77 0;
#X connect 85 0 67 0;
#X connect 85 0 70 1;
