#N canvas -8 -8 1680 972 10;
#X obj 470 560 cnv 15 182 37 empty empty empty 20 12 0 14 #ff8080 #404040
0;
#X obj 730 440 cnv 15 295 417 empty empty empty 20 12 0 14 #e0e0e0
#404040 0;
#X obj 450 30 cnv 15 262 297 empty empty empty 20 12 0 14 #e0e0e0 #404040
0;
#X obj 730 30 cnv 15 316 360 empty empty empty 20 12 0 14 #e0e0e0 #404040
0;
#N canvas 0 0 450 300 (subpatch) 0;
#X array notes 12 float 3 black black;
#A 0 1 0 1 0 1 1 0 1 0 1 0 1;
#X coords 0 1.2 12 -0.2 200 140 1;
#X restore 20 30 graph;
#N canvas 0 0 450 300 (subpatch) 0;
#X array weights 12 float 3 black black;
#A 0 4 0 1 0 2 1 0 3 0 1 0 2;
#X coords 0 4.2 12 -0.2 200 140 1;
#X restore 230 30 graph;
#X msg 230 180 \; weights 0 4 0 1 0 2 1 0 3 0 1 0 2;
#X msg 20 180 \; notes 0 1 0 1 0 1 1 0 1 0 1 0 1;
#X obj 530 40 notein;
#X obj 530 130 spigot;
#X obj 570 210 f;
#X obj 620 210 + 1;
#X obj 530 180 t f b;
#X msg 610 40 0;
#X obj 550 290 tabwrite input;
#N canvas 536 233 450 305 (subpatch) 0;
#X array input 100 float 3 black black;
#A 0 0 0 0 0 0 0 0 4 4 4 4 4 4 4 4 4 4 4 4 4 4 7 7 7 7 7 7 7 7 7 7
7 7 7 7 5 2 0 7 5 2 0 7 0 0 3 7 0 3 7 0 3 7 0 3 7 3 7 0 4 7 0 4 7 0
4 7 0 4 7 0 3 7 0 3 7 0 3 7 0 3 7 0 3 7 0 3 7 0 3 7 0 3 7 0 0 0 0 0
0;
#X coords 0 11 100 0 200 140 1;
#X restore 20 230 graph;
#X msg 610 130 \; input const 0;
#X obj 520 100 noteout;
#X obj 530 220 % 12;
#X text 20 10 notes d'una tonalitat;
#X text 230 10 notes d'una tonalitat PONDERADES;
#N canvas 536 233 450 305 (subpatch) 0;
#X array hist 12 float 3 black black;
#A 0 0 0 0 0 0 0 0 10 0 0 0 0;
#X coords 0 10 12 0 200 140 1;
#X restore 230 230 graph;
#X obj 810 120 until;
#X obj 810 150 f;
#X obj 860 150 + 1;
#X obj 810 240 tabread input;
#X obj 810 180 t f f;
#X obj 890 150 % 100;
#X text 450 10 guarda el pitchlass de les notes tocades;
#X msg 230 380 \; hist const 0;
#X obj 810 360 tabwrite hist;
#X obj 810 300 tabread hist;
#X obj 810 330 + 1;
#X obj 810 270 t f f;
#X msg 20 380 \; input const 0;
#X msg 880 110 \; hist const 0;
#X text 740 200 agafa les 10 notes anteriors, f 9;
#X text 961 110 reinicia l'histograma, f 14;
#X text 838 48 mida de la finestra (es pot canviar), f 21;
#X text 730 10 actualitza l'histograma amb cada nota introduïda;
#X obj 760 510 until;
#X obj 760 540 f;
#X obj 820 540 + 1;
#X obj 760 640 tabread hist;
#X obj 850 640 tabread weights;
#X obj 760 670 *;
#X floatatom 740 790 5 0 0 0 - - -, f 5;
#X text 1230 370 comment;
#X obj 760 700 t f b;
#X obj 800 730 f;
#X obj 760 730 +;
#X msg 850 510 0;
#X obj 740 760 f;
#X text 790 670 multiplica histograma i pesos;
#X text 878 504 reinicia contador i acumulador, f 23;
#X text 830 730 acumulador (producte escalar);
#X text 770 760 mostra l'ultim valor;
#X obj 500 260 t b b f;
#X obj 760 570 t f f f;
#X msg 740 450 12;
#X obj 740 480 t b f b;
#N canvas 0 0 450 300 (subpatch) 0;
#X array scores 12 float 3 black black;
#A 0 0 0 0 0 0 0 0 0 0 0 0 0;
#X coords 0 40 12 0 200 140 1;
#X restore 20 430 graph;
#X msg 540 350 12;
#X obj 540 410 until;
#X obj 540 440 f;
#X obj 620 440 + 1;
#X msg 620 410 0;
#X obj 480 700 tabwrite scores;
#X obj 540 380 t f b;
#X text 730 420 calcula la puntuació per una tonalitat;
#X obj 540 470 t b f b f f;
#X obj 690 610 +;
#X obj 650 210 % 100;
#X text 480 570 TODO: acabar 12 tonalitats;
#X obj 810 80 t f b;
#X obj 740 180 % 100;
#X obj 770 90 101;
#X obj 770 120 -;
#X obj 740 150 +;
#X obj 570 240 t f f b f;
#X msg 810 50 10;
#X text 462 197 només guarda la pitchclass, f 10;
#X connect 8 0 9 0;
#X connect 8 0 17 0;
#X connect 8 1 9 1;
#X connect 8 1 17 1;
#X connect 9 0 12 0;
#X connect 10 0 79 0;
#X connect 11 0 72 0;
#X connect 12 0 18 0;
#X connect 12 1 10 0;
#X connect 13 0 10 1;
#X connect 13 0 16 0;
#X connect 18 0 57 0;
#X connect 22 0 23 0;
#X connect 23 0 26 0;
#X connect 24 0 27 0;
#X connect 25 0 33 0;
#X connect 26 0 25 0;
#X connect 26 1 24 0;
#X connect 27 0 23 1;
#X connect 31 0 32 0;
#X connect 32 0 30 0;
#X connect 33 0 31 0;
#X connect 33 1 30 1;
#X connect 40 0 41 0;
#X connect 41 0 58 0;
#X connect 42 0 41 1;
#X connect 43 0 45 0;
#X connect 44 0 45 1;
#X connect 45 0 48 0;
#X connect 48 0 50 0;
#X connect 48 1 49 0;
#X connect 49 0 50 1;
#X connect 50 0 49 1;
#X connect 50 0 52 1;
#X connect 51 0 41 1;
#X connect 51 0 49 1;
#X connect 52 0 46 0;
#X connect 57 0 59 0;
#X connect 57 1 80 0;
#X connect 57 2 14 0;
#X connect 58 0 43 0;
#X connect 58 1 44 0;
#X connect 58 2 42 0;
#X connect 59 0 60 0;
#X connect 60 0 52 0;
#X connect 60 1 40 0;
#X connect 60 2 51 0;
#X connect 62 0 68 0;
#X connect 63 0 64 0;
#X connect 64 0 70 0;
#X connect 65 0 64 1;
#X connect 66 0 64 1;
#X connect 68 0 63 0;
#X connect 68 1 66 0;
#X connect 70 1 67 1;
#X connect 70 4 65 0;
#X connect 72 0 10 1;
#X connect 74 0 22 0;
#X connect 74 1 35 0;
#X connect 75 0 23 1;
#X connect 76 0 77 0;
#X connect 77 0 78 1;
#X connect 78 0 75 0;
#X connect 79 0 14 1;
#X connect 79 1 11 0;
#X connect 79 2 76 0;
#X connect 79 3 78 0;
#X connect 80 0 74 0;
#X connect 80 0 77 1;
