#N canvas 21 34 1524 773 10;
#X obj 530 130 cnv 15 207 189 empty empty empty 20 12 0 14 #e0e0e0
#404040 0;
#X obj 760 130 cnv 15 207 288 empty empty empty 20 12 0 14 #e0e0e0
#404040 0;
#X obj 530 360 cnv 15 207 249 empty empty empty 20 12 0 14 #e0e0e0
#404040 0;
#X obj 540 140 key;
#X floatatom 580 140 5 0 0 0 - - -, f 5;
#X obj 570 220 f;
#X obj 620 220 + 1;
#X obj 540 190 t f b;
#X obj 540 290 tabwrite keys;
#X obj 570 250 t f f;
#X msg 620 190 0;
#X text 540 170 desconnectat un cop gravades;
#X msg 300 250 \; keys 0 97 119 115 101 100 102 116 103 121 104 117
106, f 31;
#X obj 770 140 key;
#X obj 900 240 noteout;
#X obj 810 310 f;
#X obj 860 310 + 1;
#X obj 770 280 t f b;
#X obj 810 340 t f f;
#X obj 770 390 tabwrite input;
#X obj 890 310 % 100;
#X text 530 100 grava les tecles que vull fer servir de teclat, f
33;
#X obj 540 430 until;
#N canvas 0 0 450 300 (subpatch) 0;
#X array keyboard 127 float 3 black black;
#A 0 0 0 0 0 0 0 0 0 0 0 0 0 0 0 0 0 0 0 0 0 0 0 0 0 0 0 0 0 0 0 0
0 0 0 0 0 0 0 0 0 0 0 0 0 0 0 0 0 0 0 0 0 0 0 0 0 0 0 0 0 0 0 0 0 0
0 0 0 0 0 0 0 0 0 0 0 0 0 0 0 0 0 0 0 0 0 0 0 0 0 0 0 0 0 0 0 0 0 0
0 4 3 5 7 9 0 11 0 0 0 0 0 0 0 0 2 6 10 0 1 0 8 0 0 0 0 0;
#X coords 0 11 127 0 200 140 1;
#X restore 300 310 graph;
#X obj 540 470 f;
#X obj 590 470 + 1;
#X obj 540 400 t f b;
#X msg 590 430 0;
#X obj 560 540 tabread keys;
#X obj 540 500 t f f f;
#X obj 540 580 tabwrite keyboard;
#X msg 540 370 12;
#X text 530 330 transposa la taula de tecles per fer-la servir de traductora
, f 33;
#X msg 300 460 \; keyboard const 0;
#X obj 770 170 tabread keyboard;
#X obj 770 200 + 60;
#X obj 770 340 % 12;
#X obj 780 240 makenote 127 300;
#X text 760 100 guarda notes des del teclat QWERTY;
#X text 760 420 TODO: que només sonin les notes mapejades (ara mateix
tota la resta toca un do), f 33;
#N canvas 536 233 450 305 (subpatch) 0;
#X array input 100 float 3 black black;
#A 0 9 7 3 0 0 7 3 0 7 3 0 9 0 3 3 9 0 3 9 0 7 3 11 0 3 9 0 3 9 0 7
3 0 3 0 9 0 3 3 3 3 3 3 3 11 0 11 11 0 11 0 11 0 11 0 11 0 11 0 11
0 11 0 11 0 11 0 11 0 7 3 0 7 3 0 7 3 0 7 3 0 7 3 10 7 6 10 3 7 10
3 10 7 3 10 7 3 3 0 7;
#X coords 0 11 100 0 200 140 1;
#X restore 300 510 graph;
#X msg 300 660 \; input const 0;
#N canvas 0 0 450 300 (subpatch) 0;
#X array keys 12 float 3 black black;
#A 0 97 119 115 101 100 102 116 103 121 104 117 106;
#X coords 0 127 12 0 200 140 1;
#X restore 300 100 graph;
#X connect 3 0 4 0;
#X connect 5 0 9 0;
#X connect 6 0 5 1;
#X connect 7 0 8 0;
#X connect 7 1 5 0;
#X connect 9 0 8 1;
#X connect 9 1 6 0;
#X connect 10 0 5 1;
#X connect 13 0 34 0;
#X connect 15 0 18 0;
#X connect 16 0 20 0;
#X connect 17 0 36 0;
#X connect 17 1 15 0;
#X connect 18 0 19 1;
#X connect 18 1 16 0;
#X connect 20 0 15 1;
#X connect 22 0 24 0;
#X connect 24 0 29 0;
#X connect 25 0 24 1;
#X connect 26 0 22 0;
#X connect 26 1 27 0;
#X connect 27 0 24 1;
#X connect 28 0 30 1;
#X connect 29 0 30 0;
#X connect 29 1 28 0;
#X connect 29 2 25 0;
#X connect 31 0 26 0;
#X connect 34 0 35 0;
#X connect 35 0 37 0;
#X connect 35 0 17 0;
#X connect 36 0 19 0;
#X connect 37 0 14 0;
#X connect 37 1 14 1;
