#N canvas 338 89 987 778 10;
#X obj 20 550 cnv 15 583 271 empty empty empty 20 12 0 14 #e0e0e0 #404040
0;
#X obj 430 730 cnv 15 109 150 empty empty empty 20 12 0 14 #d0d0d0
#404040 0;
#X obj 320 730 cnv 15 104 150 empty empty empty 20 12 0 14 #d0d0d0
#404040 0;
#X obj 20 260 cnv 15 484 271 empty empty empty 20 12 0 14 #e0e0e0 #404040
0;
#X obj 340 40 cnv 15 104 202 empty empty empty 20 12 0 14 #e0e0e0 #404040
0;
#X obj 180 40 cnv 15 149 202 empty empty empty 20 12 0 14 #e0e0e0 #404040
0;
#X obj 20 40 cnv 15 149 202 empty empty empty 20 12 0 14 #e0e0e0 #404040
0;
#X obj 30 90 f;
#X obj 60 90 + 1;
#X msg 30 50 0;
#X floatatom 100 210 5 0 0 0 - - -, f 5;
#X obj 60 210 print;
#X obj 30 120 sel 10;
#X obj 190 90 f;
#X obj 220 90 + 1;
#X msg 190 50 0;
#X floatatom 280 210 5 0 0 0 - - -, f 5;
#X obj 240 210 print;
#X obj 190 120 sel 10;
#X obj 220 170 t b f;
#X obj 90 120 pipe 500;
#X obj 220 146 pipe 500;
#X text 20 20 bucles sense usar metro;
#X msg 350 50 10;
#X obj 350 75 t f b;
#X obj 350 104 until;
#X obj 350 140 f;
#X obj 380 140 + 1;
#X floatatom 400 210 5 0 0 0 - - -, f 5;
#X obj 360 210 print;
#X msg 400 100 0;
#X text 447 40 until fa les coses tantes vegades com el número que
li envies, f 21;
#X msg 30 270 100;
#X obj 30 300 t f b;
#X obj 30 330 until;
#X obj 30 370 f;
#X obj 60 370 + 1;
#X obj 30 400 t b f f;
#X msg 70 330 0;
#X obj 30 440 random 12;
#X obj 30 500 tabwrite melo;
#X obj 30 470 + 60;
#N canvas 0 0 450 300 (subpatch) 0;
#X array melo 100 float 3 black black;
#A 0 62 68 69 62 69 62 65 68 67 62 66 69 63 62 61 70 68 71 66 61 68
69 68 66 70 68 66 67 70 68 64 60 63 70 70 62 66 69 70 67 71 68 66 69
67 69 63 66 68 62 66 64 71 67 62 69 63 63 62 63 70 61 68 66 62 65 71
70 63 64 64 66 71 61 66 68 67 62 62 69 69 65 71 67 62 68 69 71 68 65
65 63 65 69 71 67 68 69 62 60;
#X coords 0 127 100 0 200 140 1;
#X restore 120 270 graph;
#X text 120 410 genera una melodia entre el Do3 i el Do4, f 28;
#X msg 350 270 100;
#X obj 350 300 t f b;
#X obj 350 330 until;
#X obj 350 370 f;
#X obj 380 370 + 1;
#X msg 390 330 0;
#X obj 350 500 tabwrite melo;
#X obj 350 470 + 12;
#X obj 350 440 tabread melo;
#X obj 350 400 t f f f;
#X text 400 270 transposa tota la melodia una octava amunt, f 15;
#X msg 30 560 100;
#X obj 30 590 t f b;
#X obj 30 620 until;
#X obj 30 660 f;
#X obj 60 660 + 1;
#X msg 70 620 0;
#N canvas 0 0 450 300 (subpatch) 0;
#X array melo2 100 float 3 black black;
#A 0 0 1 2 3 4 5 6 7 8 9 10 11 12 13 14 15 16 17 18 19 20 21 22 23
24 25 26 27 28 29 30 31 32 33 34 35 36 37 38 39 40 41 42 43 44 45 46
47 48 49 50 51 52 53 54 55 56 57 58 59 60 61 62 63 64 65 66 67 68 69
70 71 72 73 74 75 76 77 78 79 80 81 82 83 84 85 86 87 88 89 90 91 92
93 94 95 96 97 98 99;
#X coords 0 127 100 0 200 140 1;
#X restore 120 560 graph;
#X obj 350 590 t f b;
#X obj 350 620 until;
#X obj 350 660 f;
#X obj 400 660 + 1;
#X msg 390 620 0;
#X obj 30 790 tabwrite melo2;
#X obj 327 800 tabwrite melo2;
#X obj 327 770 tabread melo2;
#X obj 30 690 t f f f;
#X obj 327 740 -;
#X text 210 910 comment;
#X text 388 560 retrograda la melodia continguda a l'array, f 18;
#X obj 439 799 tabwrite melo2;
#X obj 439 739 tabread melo2;
#X obj 439 769 f;
#X obj 509 769 -;
#X obj 350 690 t b 99 f f f 99 f f;
#X msg 350 560 50;
#X text 470 680 l'ultim element de la taula és el 99, f 20;
#X text 438 820 guarda el valor del principi i el guarda al final,
f 15;
#X text 325 825 escriu el valor del final al principi, f 16;
#X msg 510 500 \; melo const 0;
#X msg 610 790 \; melo2 const 0;
#X connect 7 0 12 0;
#X connect 8 0 7 0;
#X connect 9 0 7 0;
#X connect 12 1 11 0;
#X connect 12 1 10 0;
#X connect 12 1 20 0;
#X connect 13 0 18 0;
#X connect 14 0 13 1;
#X connect 15 0 13 0;
#X connect 18 1 21 0;
#X connect 19 0 13 0;
#X connect 19 1 16 0;
#X connect 19 1 17 0;
#X connect 19 1 14 0;
#X connect 20 0 8 0;
#X connect 21 0 19 0;
#X connect 23 0 24 0;
#X connect 24 0 25 0;
#X connect 24 1 30 0;
#X connect 25 0 26 0;
#X connect 26 0 29 0;
#X connect 26 0 28 0;
#X connect 26 0 27 0;
#X connect 27 0 26 1;
#X connect 30 0 26 1;
#X connect 32 0 33 0;
#X connect 33 0 34 0;
#X connect 33 1 38 0;
#X connect 34 0 35 0;
#X connect 35 0 37 0;
#X connect 36 0 35 1;
#X connect 37 0 39 0;
#X connect 37 1 40 1;
#X connect 37 2 36 0;
#X connect 38 0 35 1;
#X connect 39 0 41 0;
#X connect 41 0 40 0;
#X connect 44 0 45 0;
#X connect 45 0 46 0;
#X connect 45 1 49 0;
#X connect 46 0 47 0;
#X connect 47 0 53 0;
#X connect 48 0 47 1;
#X connect 49 0 47 1;
#X connect 51 0 50 0;
#X connect 52 0 51 0;
#X connect 53 0 52 0;
#X connect 53 1 50 1;
#X connect 53 2 48 0;
#X connect 55 0 56 0;
#X connect 56 0 57 0;
#X connect 56 1 60 0;
#X connect 57 0 58 0;
#X connect 58 0 70 0;
#X connect 59 0 58 1;
#X connect 60 0 58 1;
#X connect 62 0 63 0;
#X connect 62 1 66 0;
#X connect 63 0 64 0;
#X connect 64 0 78 0;
#X connect 65 0 64 1;
#X connect 66 0 64 1;
#X connect 69 0 68 0;
#X connect 70 0 67 0;
#X connect 70 1 67 1;
#X connect 70 2 59 0;
#X connect 71 0 69 0;
#X connect 75 0 76 1;
#X connect 76 0 74 0;
#X connect 77 0 74 1;
#X connect 78 0 76 0;
#X connect 78 1 71 0;
#X connect 78 2 71 1;
#X connect 78 3 68 1;
#X connect 78 4 75 0;
#X connect 78 5 77 0;
#X connect 78 6 77 1;
#X connect 78 7 65 0;
#X connect 79 0 62 0;
