#N canvas 436 0 798 772 10;
#X obj 250 100 cnv 15 195 195 empty empty empty 58 9 0 14 #2f2f2f #404040
0;
#X obj 350 110 tgl 85 0 s_b1 r_b1 empty 17 7 0 10 #dd4b3e #dd4b3e #000000
1 1;
#X obj 260 200 tgl 85 0 s_b3 r_b3 empty 17 7 0 10 #4b3edd #4b3edd #000000
0 1;
#X obj 350 200 tgl 85 0 s_b2 r_b2 empty 17 7 0 10 #3edd4b #3edd4b #000000
1 1;
#X obj 260 110 tgl 85 0 s_b4 r_b4 empty 17 7 0 10 #ffea37 #ffea37 #000000
0 1;
#X obj 100 210 dac~;
#N canvas 904 116 454 402 gensol 0;
#X obj 40 170 until;
#X obj 40 210 f;
#X obj 100 210 + 1;
#X obj 40 270 random 4;
#X obj 40 300 tabwrite sol;
#X msg 90 170 0;
#X obj 40 240 t b f f;
#X obj 40 110 f;
#N canvas 0 0 450 300 (subpatch) 0;
#X array sol 5 float 3 black black;
#A 0 2 2 3 1 2;
#X coords 0 3 5 0 187 108 1;
#X restore 130 210 graph;
#X msg 130 170 \; sol resize \$1;
#X obj 40 140 t f b f;
#X floatatom 90 40 5 0 0 0 - - -, f 5;
#X obj 40 30 bng 27 250 50 0 empty empty empty 17 7 0 10 #fcfcfc #000000
#000000;
#X obj 40 80 t b b;
#X obj 140 10 loadbang;
#X msg 140 35 32;
#X obj 90 80 v length;
#X connect 0 0 1 0;
#X connect 1 0 6 0;
#X connect 2 0 1 1;
#X connect 3 0 4 0;
#X connect 5 0 1 1;
#X connect 6 0 3 0;
#X connect 6 1 4 1;
#X connect 6 2 2 0;
#X connect 7 0 10 0;
#X connect 10 0 0 0;
#X connect 10 1 5 0;
#X connect 10 2 9 0;
#X connect 11 0 7 1;
#X connect 11 0 16 0;
#X connect 12 0 13 0;
#X connect 13 0 7 0;
#X connect 13 1 11 0;
#X connect 14 0 15 0;
#X connect 15 0 11 0;
#X coords 0 -1 1 1 100 62 1 31 4;
#X restore 480 100 pd gensol;
#X obj 100 140 ezdac~;
#N canvas 376 0 770 772 ui 0;
#X obj 40 80 r s_b1;
#X obj 40 180 s r_b1;
#X obj 40 130 del 400;
#X obj 40 270 del 400;
#X obj 320 130 del 400;
#X obj 320 270 del 400;
#X obj 40 220 r s_b2;
#X obj 40 320 s r_b2;
#X obj 320 80 r s_b3;
#X obj 320 180 s r_b3;
#X obj 320 220 r s_b4;
#X obj 320 320 s r_b4;
#X msg 320 295 color #ffea37 #ffea37 #000000;
#X msg 40 155 color #dd4b3e #dd4b3e #000000;
#X msg 40 295 color #3edd4b #3edd4b #000000;
#X msg 320 155 color #4b3edd #4b3edd #000000;
#X msg 380 270 color #fff59e #fff59e #000000;
#X msg 100 130 color #e8867d #e8867d #000000;
#X msg 100 270 color #7de886 #7de886 #000000;
#X msg 380 130 color #8e86ea #8e86ea #000000;
#X obj 70 400 mtof;
#X obj 70 425 phasor~;
#X obj 70 450 *~;
#X obj 160 360 tgl 15 0 empty empty empty 17 7 0 10 #fcfcfc #000000
#000000 0 1;
#X obj 40 105 t b b b;
#X obj 320 105 t b b b;
#X obj 40 245 t b b b;
#X obj 320 245 t b b b;
#X msg 100 360 64;
#X msg 40 360 48;
#X msg 70 360 52;
#X msg 130 360 57;
#X obj 50 490 outlet~;
#X obj 120 490 outlet~;
#X msg 160 330 0;
#X msg 190 330 1;
#X connect 0 0 24 0;
#X connect 2 0 13 0;
#X connect 2 0 34 0;
#X connect 3 0 14 0;
#X connect 3 0 34 0;
#X connect 4 0 15 0;
#X connect 4 0 34 0;
#X connect 5 0 12 0;
#X connect 5 0 34 0;
#X connect 6 0 26 0;
#X connect 8 0 25 0;
#X connect 10 0 27 0;
#X connect 12 0 11 0;
#X connect 13 0 1 0;
#X connect 14 0 7 0;
#X connect 15 0 9 0;
#X connect 16 0 11 0;
#X connect 17 0 1 0;
#X connect 18 0 7 0;
#X connect 19 0 9 0;
#X connect 20 0 21 0;
#X connect 21 0 22 0;
#X connect 22 0 32 0;
#X connect 22 0 33 0;
#X connect 23 0 22 1;
#X connect 24 0 2 0;
#X connect 24 1 17 0;
#X connect 24 1 35 0;
#X connect 24 2 29 0;
#X connect 25 0 4 0;
#X connect 25 1 19 0;
#X connect 25 1 35 0;
#X connect 25 2 28 0;
#X connect 26 0 3 0;
#X connect 26 1 18 0;
#X connect 26 1 35 0;
#X connect 26 2 30 0;
#X connect 27 0 5 0;
#X connect 27 1 16 0;
#X connect 27 1 35 0;
#X connect 27 2 31 0;
#X connect 28 0 20 0;
#X connect 29 0 20 0;
#X connect 30 0 20 0;
#X connect 31 0 20 0;
#X connect 34 0 23 0;
#X connect 35 0 23 0;
#X restore 100 100 pd ui;
#N canvas 188 4 770 774 player 0;
#X obj 160 150 inlet;
#X obj 230 150 inlet;
#X obj 240 430 outlet;
#X text 100 100 inlet1: incia partida (bang) inlet2: següent torn
(bang) outlet: fi de torn (bang), f 30;
#X msg 249 203 0;
#X obj 100 280 f;
#X obj 180 280 + 1;
#X obj 100 360 tabread sol;
#X obj 100 390 sel 0 1 2 3;
#X obj 100 430 s r_b1;
#X obj 115 450 s r_b2;
#X obj 131 470 s r_b3;
#X obj 146 490 s r_b4;
#X obj 100 230 metro 800;
#X msg 267 400 0;
#X obj 180 310 t f f;
#X obj 320 250 + 1;
#X obj 230 180 t 1 b b;
#X obj 240 370 t b b;
#X obj 100 310 t f f;
#X text 240 450 bang quan acaba el torn;
#X obj 270 250 v torn;
#X text 345 250 numero de torn;
#X obj 270 280 t f f;
#X obj 240 340 sel;
#X msg 160 180 0;
#X obj 260 310 + 1;
#X text 277 203 reinicia torn;
#X text 106 174 reinicia partida, f 10;
#X text -40 300 primer toca la nota \, després avança el torn, f
24;
#X connect 0 0 25 0;
#X connect 1 0 17 0;
#X connect 4 0 5 1;
#X connect 5 0 19 0;
#X connect 6 0 15 0;
#X connect 7 0 8 0;
#X connect 8 0 9 0;
#X connect 8 1 10 0;
#X connect 8 2 11 0;
#X connect 8 3 12 0;
#X connect 13 0 5 0;
#X connect 14 0 13 0;
#X connect 15 0 5 1;
#X connect 15 1 24 0;
#X connect 16 0 21 0;
#X connect 17 0 13 0;
#X connect 17 1 4 0;
#X connect 17 2 21 0;
#X connect 18 0 2 0;
#X connect 18 1 14 0;
#X connect 19 0 6 0;
#X connect 19 1 7 0;
#X connect 21 0 23 0;
#X connect 23 0 26 0;
#X connect 23 1 16 0;
#X connect 24 0 18 0;
#X connect 25 0 21 0;
#X connect 25 0 26 0;
#X connect 26 0 24 1;
#X restore 590 344 pd player;
#X msg 100 310 \; pd dsp 1;
#X obj 100 280 loadbang;
#X obj 590 310 bng 24 250 50 0 empty empty empty 17 7 0 10 #fcfcfc
#000000 #000000;
#X obj 641 310 bng 24 250 50 0 empty empty empty 17 7 0 10 #fcfcfc
#000000 #000000;
#X obj 590 370 bng 24 250 50 0 empty empty empty 17 7 0 10 #fcfcfc
#000000 #000000;
#X obj 480 310 bng 24 250 50 0 empty empty empty 17 7 0 10 #fcfcfc
#000000 #000000;
#X obj 549 310 bng 24 250 50 0 empty empty empty 17 7 0 10 #fcfcfc
#000000 #000000;
#N canvas 316 0 890 772 listener 0;
#X obj 200 130 inlet;
#X obj 280 130 inlet;
#X obj 80 710 outlet;
#X obj 150 710 outlet;
#X obj 220 710 outlet;
#X text 0 30 inlet1: incia partida (bang) inlet2: següent torn (bang)
outlet: fi de torn (bang) outlet2: fi de partida-error outlet3: fi
de partida-win, f 32;
#X obj 0 130 r s_b1;
#X obj 50 130 r s_b2;
#X obj 100 130 r s_b3;
#X obj 150 130 r s_b4;
#X obj 270 380 v torn;
#X obj 130 230 spigot;
#X msg 200 160 0;
#X msg 280 180 1;
#X msg 0 160 0;
#X msg 50 160 1;
#X msg 100 160 2;
#X msg 150 160 3;
#X text 280 110 escolta;
#X text 200 110 no escolta;
#X text 0 110 entrades;
#X obj 150 430 ==, f 2;
#X obj 160 290 f;
#X obj 210 290 + 1;
#X obj 130 260 t f b;
#X msg 180 260 0;
#X obj 160 360 tabread sol;
#X floatatom 150 460 5 0 0 0 - - -, f 5;
#X text 150 730 error;
#X text 80 730 next;
#X text 220 730 victoria;
#X obj 280 150 t b b b;
#X obj 150 680 t b b;
#X obj 80 680 t b b;
#X obj 150 490 sel 0 1;
#X obj 80 620 f;
#X obj 80 650 sel;
#X obj 220 680 spigot;
#X obj 320 380 v length;
#X obj 250 470 sel;
#X msg 280 530 1;
#X obj 170 530 t b b;
#X obj 80 590 spigot;
#X msg 250 530 0;
#X text 20 490 comprova encert/error;
#X text 274 460 quan el pas es igual que la longitud del joc..., f
24;
#X text 249 549 ... obre la victoria i tanca el next, f 21;
#X text 220 310 treient el cable des del [+ 1] m'estalvio sumar 1,
f 25;
#X text -50 300 comment;
#X obj 160 320 t f f;
#X connect 0 0 12 0;
#X connect 0 0 38 0;
#X connect 1 0 31 0;
#X connect 6 0 14 0;
#X connect 7 0 15 0;
#X connect 8 0 16 0;
#X connect 9 0 17 0;
#X connect 10 0 36 1;
#X connect 11 0 24 0;
#X connect 12 0 11 1;
#X connect 12 0 37 1;
#X connect 13 0 11 1;
#X connect 13 0 42 1;
#X connect 14 0 11 0;
#X connect 15 0 11 0;
#X connect 16 0 11 0;
#X connect 17 0 11 0;
#X connect 21 0 27 0;
#X connect 22 0 49 0;
#X connect 23 0 22 1;
#X connect 23 0 35 1;
#X connect 23 0 39 0;
#X connect 24 0 21 0;
#X connect 24 1 22 0;
#X connect 25 0 22 1;
#X connect 26 0 21 1;
#X connect 27 0 34 0;
#X connect 31 0 13 0;
#X connect 31 1 25 0;
#X connect 31 2 10 0;
#X connect 32 0 3 0;
#X connect 32 1 12 0;
#X connect 33 0 2 0;
#X connect 33 1 12 0;
#X connect 34 0 32 0;
#X connect 34 1 41 0;
#X connect 35 0 36 0;
#X connect 36 0 33 0;
#X connect 37 0 4 0;
#X connect 38 0 39 1;
#X connect 39 0 40 0;
#X connect 39 0 43 0;
#X connect 40 0 37 1;
#X connect 41 0 42 0;
#X connect 41 1 37 0;
#X connect 42 0 35 0;
#X connect 43 0 42 1;
#X connect 49 0 26 0;
#X connect 49 1 23 0;
#X restore 480 344 pd listener;
#X obj 480 370 bng 24 250 50 0 empty empty empty 17 7 0 10 #fcfcfc
#000000 #000000;
#X obj 514 370 bng 24 250 50 0 empty empty empty 17 7 0 10 #fcfcfc
#000000 #000000;
#X obj 549 370 bng 24 250 50 0 empty empty empty 17 7 0 10 #fcfcfc
#000000 #000000;
#X text 250 300 TODO: musiques de victoria i derrota, f 26;
#X obj 480 180 bng 46 250 50 0 empty empty empty 17 7 0 10 #fcfcfc
#000000 #000000;
#X obj 480 270 t b b b, f 17;
#X text 710 290 comment, f 20;
#X obj 480 410 delay 1000;
#X obj 480 240 delay 1000;
#X text 100 230 (connecta el [pd ui] al dac si no tens Purr-Data),
f 21;
#X connect 8 0 7 0;
#X connect 8 1 7 1;
#X connect 9 0 14 0;
#X connect 11 0 10 0;
#X connect 12 0 9 0;
#X connect 13 0 9 1;
#X connect 14 0 16 0;
#X connect 15 0 17 0;
#X connect 16 0 17 1;
#X connect 17 0 18 0;
#X connect 17 1 19 0;
#X connect 17 2 20 0;
#X connect 18 0 25 0;
#X connect 22 0 26 0;
#X connect 23 0 13 0;
#X connect 23 1 15 0;
#X connect 23 2 12 0;
#X connect 25 0 13 0;
#X connect 26 0 23 0;
