#N canvas 71 92 1522 772 10;
#X obj 416 -60 cnv 15 78 118 empty empty empty 20 12 0 14 #e0e0e0 #404040
0;
#X obj 510 4 cnv 15 214 258 empty empty empty 20 12 0 14 #e0e0e0 #404040
0;
#X obj 290 70 cnv 15 204 193 empty empty empty 20 12 0 14 #e0e0e0 #404040
0;
#X obj 380 240 dac~;
#N canvas 536 234 450 303 nyigunyigu~ 0;
#X obj 40 110 osc~;
#X obj 90 80 inlet;
#X obj 40 140 outlet~;
#X obj 40 80 inlet~;
#X connect 0 0 2 0;
#X connect 1 0 0 1;
#X connect 3 0 0 0;
#X restore 380 100 pd nyigunyigu~;
#X msg 426 10 \; pd dsp \$1;
#X obj 426 -30 tgl 23 0 empty empty empty 17 7 0 10 #fcfcfc #000000
#000000 0 1;
#X text 400 80 oscil·lador;
#X obj 380 170 *~ 0.1;
#X obj 564 43 vsl 15 128 0.01 1 1 1 empty empty empty 0 -9 0 10 #fcfcfc
#ff0000 #000000 12700 1;
#X obj 534 43 vsl 15 128 20 200 0 1 empty empty empty 0 -9 0 10 #fcfcfc
#ff0000 #000000 6600 1;
#X obj 300 100 noise~;
#X obj 300 140 *~ 0.1;
#X obj 654 43 vsl 15 128 0.01 1 1 1 empty empty empty 0 -9 0 10 #fcfcfc
#0000ff #000000 10500 1;
#X text 561 23 vol;
#X text 524 23 pitch;
#X text 644 23 noice;
#N canvas 0 0 450 300 (subpatch) 0;
#X array sample 59268 float 4 black black;
#X coords 0 1 59267 -1 259 120 1;
#X restore 460 280 graph;
#X obj 460 460 openpanel;
#X obj 460 430 bng 22 250 50 0 empty empty load\ sample 24 13 0 10
#fcfcfc #000000 #000000;
#X msg 460 490 read -resize \$1 sample;
#X obj 460 520 soundfiler;
#X obj 620 430 bng 22 250 50 0 empty empty play\ sample 24 13 0 10
#fcfcfc #000000 #000000;
#X obj 620 490 tabplay~ sample;
#X obj 790 860 dac~;
#X obj 760 430 tgl 23 0 empty empty empty 17 7 0 10 #fcfcfc #000000
#000000 0 1;
#X obj 760 500 metro 300;
#X obj 760 530 t b b;
#X obj 790 570 f;
#X obj 820 570 * 0.9;
#X obj 760 470 t f b;
#X text 784 437 accelerando;
#X msg 830 500 500;
#X obj 580 650 f;
#X obj 610 650 + 1;
#X obj 460 580 tgl 23 0 empty empty empty 17 7 0 10 #fcfcfc #000000
#000000 0 1;
#X obj 520 740 *~, f 4;
#X msg 580 710 1 \, 0 200;
#X obj 580 740 line~;
#X msg 910 440 44100;
#X obj 910 470 /;
#X obj 910 380 bng 22 250 50 0 empty empty empty 24 13 0 10 #fcfcfc
#000000 #000000;
#X obj 910 410 t b b;
#X floatatom 910 500 5 0 0 0 - - -, f 5;
#X obj 910 530 *;
#X obj 910 560 phasor~;
#X obj 910 620 tabread~ sample;
#X obj 1020 360 vsl 15 128 -5 5 0 0 empty empty empty 0 -9 0 10 #fcfcfc
#000000 #000000 0 1;
#X obj 1020 500 t b f;
#X msg 960 500 0;
#X obj 960 380 bng 22 250 50 0 empty empty empty 24 13 0 10 #fcfcfc
#000000 #000000;
#X text 910 360 play;
#X text 960 360 stop;
#X obj 910 690 tabread4~ sample;
#X text 910 660 es pot usar el [tabread4~] per interpolar amb 4 punts
i tenir més qualitat, f 42;
#X msg 760 390 22050 1500;
#X obj 640 650 % 4;
#X msg 460 680 \$1 8000;
#X floatatom 1060 500 5 0 0 0 - - -, f 5;
#X text 820 860 output;
#X obj 460 650 random 59268;
#X msg 960 440 59268;
#X obj 910 590 *~ 59268;
#X obj 460 620 metro 250;
#N canvas 0 0 450 300 (subpatch) 0;
#X array hihat 10418 float 4 black black;
#X coords 0 1 10417 -1 149 120 1;
#X restore 300 280 graph;
#X obj 300 460 openpanel;
#X obj 300 430 bng 22 250 50 0 empty empty load\ sample 24 13 0 10
#fcfcfc #000000 #000000;
#X obj 300 520 soundfiler;
#X msg 300 490 read -resize \$1 hihat;
#X obj 630 780 tabplay~ hihat;
#X obj 580 680 sel 0 1 2 3;
#X text 760 370 inici-duració;
#X obj 940 150 notein;
#X obj 594 43 vsl 15 128 0.1 10 1 1 empty empty empty 0 -9 0 10 #fcfcfc
#ff0000 #000000 5050 1;
#X obj 440 140 osc~;
#X obj 380 140 *~;
#X obj 330 180 osc~;
#X obj 300 180 *~;
#X obj 684 43 vsl 15 128 0.1 10 1 1 empty empty empty 0 -9 0 10 #fcfcfc
#0000ff #000000 11800 1;
#X text 590 23 LFO;
#X text 682 23 LFO;
#X text 416 -60 audio ON-OFF;
#X text 940 90 TODO: midi control;
#X floatatom 790 610 5 0 0 0 - - -, f 5;
#X obj 300 210 spigot~;
#X obj 380 210 spigot~;
#X obj 534 204 tgl 23 0 empty empty empty 17 7 0 10 #fcfcfc #000000
#000000 0 1;
#X obj 673 204 tgl 23 0 empty empty empty 17 7 0 10 #fcfcfc #000000
#000000 0 1;
#X text 559 207 drone ON-OFF noice;
#X text 1010 120 midi cc;
#X text 990 150 midi notes;
#X obj 650 740 *~, f 4;
#X obj 700 740 line~;
#X obj 650 710 noise~;
#X msg 700 710 1 \, 0 150;
#X obj 520 710 osc~ 50;
#X text 480 740 bombo;
#X text 760 710 caixa;
#X obj 430 580 vsl 15 128 100 250 0 0 empty empty empty 0 -9 0 10 #fcfcfc
#000000 #000000 0 1;
#X obj 430 770 -;
#X text 360 580 velocitat;
#X obj 430 740 t 500 f;
#X floatatom 500 550 5 0 0 0 - - -, f 5;
#X text 186 490 TODO: fixar sample;
#X text 500 565 TODO: redirect sample size;
#X floatatom 860 180 5 0 0 0 - - -, f 5;
#X obj 1090 120 ctlin;
#X floatatom 1090 170 5 0 0 0 - - -, f 5;
#X floatatom 1130 170 5 0 0 0 - - -, f 5;
#X floatatom 1170 170 5 0 0 0 - - -, f 5;
#X floatatom 940 200 5 0 0 0 - - -, f 5;
#X floatatom 980 200 5 0 0 0 - - -, f 5;
#X floatatom 1020 200 5 0 0 0 - - -, f 5;
#X obj 940 120 ctlin 14 1;
#X obj 1090 210 bendin;
#X floatatom 1090 240 5 0 0 0 - - -, f 5;
#X floatatom 1130 240 5 0 0 0 - - -, f 5;
#X connect 4 0 75 0;
#X connect 6 0 5 0;
#X connect 8 0 85 0;
#X connect 9 0 8 1;
#X connect 10 0 4 0;
#X connect 11 0 12 0;
#X connect 12 0 77 0;
#X connect 13 0 12 1;
#X connect 18 0 20 0;
#X connect 19 0 18 0;
#X connect 20 0 21 0;
#X connect 21 0 102 0;
#X connect 22 0 23 0;
#X connect 23 0 24 0;
#X connect 23 0 24 1;
#X connect 25 0 30 0;
#X connect 26 0 27 0;
#X connect 27 0 23 0;
#X connect 27 1 28 0;
#X connect 28 0 29 0;
#X connect 28 0 83 0;
#X connect 29 0 28 1;
#X connect 29 0 26 1;
#X connect 30 0 26 0;
#X connect 30 1 32 0;
#X connect 32 0 28 1;
#X connect 33 0 34 0;
#X connect 33 0 70 0;
#X connect 34 0 56 0;
#X connect 35 0 63 0;
#X connect 36 0 24 0;
#X connect 36 0 24 1;
#X connect 37 0 38 0;
#X connect 38 0 36 1;
#X connect 39 0 40 0;
#X connect 40 0 43 0;
#X connect 41 0 42 0;
#X connect 42 0 39 0;
#X connect 42 1 61 0;
#X connect 43 0 44 0;
#X connect 44 0 45 0;
#X connect 45 0 62 0;
#X connect 46 0 24 0;
#X connect 46 0 24 1;
#X connect 47 0 48 0;
#X connect 47 0 58 0;
#X connect 48 0 44 0;
#X connect 48 1 44 1;
#X connect 49 0 44 1;
#X connect 49 0 44 0;
#X connect 50 0 49 0;
#X connect 55 0 23 0;
#X connect 56 0 33 1;
#X connect 57 0 23 0;
#X connect 60 0 57 0;
#X connect 61 0 40 1;
#X connect 62 0 46 0;
#X connect 63 0 33 0;
#X connect 63 0 60 0;
#X connect 65 0 68 0;
#X connect 66 0 65 0;
#X connect 68 0 67 0;
#X connect 69 0 24 0;
#X connect 69 0 24 1;
#X connect 70 0 37 0;
#X connect 70 1 69 0;
#X connect 70 2 94 0;
#X connect 70 3 69 0;
#X connect 72 0 110 0;
#X connect 72 1 111 0;
#X connect 72 2 112 0;
#X connect 73 0 74 0;
#X connect 74 0 75 1;
#X connect 75 0 8 0;
#X connect 76 0 77 1;
#X connect 77 0 84 0;
#X connect 78 0 76 0;
#X connect 84 1 3 1;
#X connect 84 1 3 0;
#X connect 85 1 3 0;
#X connect 85 1 3 1;
#X connect 86 0 85 1;
#X connect 87 0 84 1;
#X connect 91 0 24 0;
#X connect 91 0 24 1;
#X connect 92 0 91 1;
#X connect 93 0 91 0;
#X connect 94 0 92 0;
#X connect 95 0 36 0;
#X connect 98 0 101 0;
#X connect 99 0 63 1;
#X connect 101 0 99 0;
#X connect 101 1 99 1;
#X connect 106 0 107 0;
#X connect 106 1 108 0;
#X connect 106 2 109 0;
#X connect 113 0 105 0;
#X connect 114 0 115 0;
#X connect 114 1 116 0;
