#N canvas -8 -8 1538 787 10;
#X obj 100 100 cnv 15 195 195 empty empty empty 58 9 0 14 #2f2f2f #404040
0;
#X obj 200 110 tgl 85 0 s_b1 r_b1 empty 17 7 0 10 #dd4b3e #dd4b3e #000000
1 1;
#X obj 110 200 tgl 85 0 s_b3 r_b3 empty 17 7 0 10 #4b3edd #4b3edd #000000
0 1;
#X obj 200 200 tgl 85 0 s_b2 r_b2 empty 17 7 0 10 #3edd4b #3edd4b #000000
0 1;
#X obj 110 110 tgl 85 0 s_b4 r_b4 empty 17 7 0 10 #ffea37 #ffea37 #000000
0 1;
#X obj 310 100 r s_b1;
#X obj 310 200 s r_b1;
#X obj 310 150 del 400;
#X obj 310 290 del 400;
#X obj 590 150 del 400;
#X obj 590 290 del 400;
#X obj 310 240 r s_b2;
#X obj 310 340 s r_b2;
#X obj 590 100 r s_b3;
#X obj 590 200 s r_b3;
#X obj 590 240 r s_b4;
#X obj 590 340 s r_b4;
#X msg 590 315 color #ffea37 #ffea37 #000000;
#X msg 310 175 color #dd4b3e #dd4b3e #000000;
#X msg 310 315 color #3edd4b #3edd4b #000000;
#X msg 590 175 color #4b3edd #4b3edd #000000;
#X msg 650 290 color #fff59e #fff59e #000000;
#X msg 370 150 color #e8867d #e8867d #000000;
#X msg 370 290 color #7de886 #7de886 #000000;
#X msg 650 150 color #8e86ea #8e86ea #000000;
#X obj 340 420 mtof;
#X obj 340 445 phasor~;
#X obj 340 470 *~;
#X obj 340 505 dac~;
#X obj 430 380 tgl 15 0 empty empty empty 17 7 0 10 #fcfcfc #000000
#000000 0 1;
#X obj 310 125 t b b b;
#X obj 590 125 t b b b;
#X obj 310 265 t b b b;
#X obj 590 265 t b b b;
#X msg 370 380 64;
#X msg 310 380 48;
#X msg 340 380 52;
#X msg 400 380 57;
#X connect 5 0 30 0;
#X connect 7 0 18 0;
#X connect 7 0 29 0;
#X connect 8 0 19 0;
#X connect 8 0 29 0;
#X connect 9 0 20 0;
#X connect 9 0 29 0;
#X connect 10 0 17 0;
#X connect 10 0 29 0;
#X connect 11 0 32 0;
#X connect 13 0 31 0;
#X connect 15 0 33 0;
#X connect 17 0 16 0;
#X connect 18 0 6 0;
#X connect 19 0 12 0;
#X connect 20 0 14 0;
#X connect 21 0 16 0;
#X connect 22 0 6 0;
#X connect 23 0 12 0;
#X connect 24 0 14 0;
#X connect 25 0 26 0;
#X connect 26 0 27 0;
#X connect 27 0 28 0;
#X connect 27 0 28 1;
#X connect 29 0 27 1;
#X connect 30 0 7 0;
#X connect 30 1 22 0;
#X connect 30 1 29 0;
#X connect 30 2 35 0;
#X connect 31 0 9 0;
#X connect 31 1 24 0;
#X connect 31 1 29 0;
#X connect 31 2 34 0;
#X connect 32 0 8 0;
#X connect 32 1 23 0;
#X connect 32 1 29 0;
#X connect 32 2 36 0;
#X connect 33 0 10 0;
#X connect 33 1 21 0;
#X connect 33 1 29 0;
#X connect 33 2 37 0;
#X connect 34 0 25 0;
#X connect 35 0 25 0;
#X connect 36 0 25 0;
#X connect 37 0 25 0;
