#N canvas 70 134 1543 774 10;
#X obj 430 130 notein;
#X obj 430 210 spigot;
#X obj 430 240 t f b;
#X obj 460 280 f;
#X obj 520 280 + 1;
#X msg 492 229 0;
#N canvas 0 0 450 300 (subpatch) 0;
#X array arpegi 8 float 3 black black;
#A 0 0 0 0 0 0 0 0 0;
#X coords 0 127 8 0 200 140 1;
#X restore 430 390 graph;
#X obj 430 360 tabwrite arpegi;
#X obj 670 190 tgl 15 0 empty empty empty 17 7 0 10 #fcfcfc #000000
#000000 0 76;
#X obj 670 260 f;
#X obj 710 260 + 1;
#X obj 670 320 tabread arpegi;
#X obj 670 380 noteout;
#X text 430 70 TODO: arreglar arpegiador;
#X obj 670 220 metro 250;
#X msg 532 229 \; arpegi const 0;
#X obj 490 200 sel 0;
#X obj 780 230 + 1;
#X obj 450 160 t f f f;
#X obj 750 260 %;
#X obj 670 290 t f f;
#X text 340 200 només deixa passar note-on, f 14;
#X text 775 250 reprodueix fins a l'últim index d'escriptura, f 16
;
#X obj 460 310 t f f f b;
#X msg 610 300 0;
#X obj 670 350 makenote 100 250;
#X text 530 190 reset al aixecar una tecla, f 17;
#X text 600 60 - soroll al tocar un acord;
#X text 600 80 - primera nota més forta (?);
#X connect 0 0 1 0;
#X connect 0 1 18 0;
#X connect 1 0 2 0;
#X connect 2 0 7 0;
#X connect 2 1 3 0;
#X connect 3 0 23 0;
#X connect 4 0 3 1;
#X connect 5 0 3 1;
#X connect 8 0 14 0;
#X connect 9 0 20 0;
#X connect 10 0 19 0;
#X connect 11 0 25 0;
#X connect 14 0 9 0;
#X connect 16 0 5 0;
#X connect 16 0 15 0;
#X connect 17 0 19 1;
#X connect 18 0 8 0;
#X connect 18 1 1 1;
#X connect 18 2 16 0;
#X connect 19 0 9 1;
#X connect 20 0 11 0;
#X connect 20 1 10 0;
#X connect 23 0 17 0;
#X connect 23 1 7 1;
#X connect 23 2 4 0;
#X connect 23 3 24 0;
#X connect 24 0 9 1;
#X connect 25 0 12 0;
#X connect 25 1 12 1;
