#N canvas 70 134 1543 774 10;
#X obj 430 130 notein;
#X obj 430 210 spigot;
#X obj 430 240 t f b;
#X obj 460 280 f;
#X obj 520 280 + 1;
#X msg 492 229 0;
#N canvas 0 0 450 300 (subpatch) 0;
#X array arpegi 8 float 3 black black;
#A 0 0 0 0 0 0 0 0 0;
#X coords 0 127 8 0 200 140 1;
#X restore 430 390 graph;
#X obj 430 360 tabwrite arpegi;
#X obj 680 320 tgl 15 0 empty empty empty 17 7 0 10 #fcfcfc #000000
#000000 0 70;
#X obj 680 390 f;
#X obj 720 390 + 1;
#X obj 680 450 tabread arpegi;
#X obj 680 540 noteout;
#X text 430 70 TODO: arreglar arpegiador;
#X msg 532 229 \; arpegi const 0;
#X obj 490 200 sel 0;
#X obj 790 360 + 1;
#X obj 450 160 t f f f;
#X obj 760 390 %;
#X obj 680 420 t f f;
#X text 340 200 només deixa passar note-on, f 14;
#X text 785 380 reprodueix fins a l'últim index d'escriptura, f 16
;
#X msg 610 300 0;
#X obj 680 510 makenote 100 250;
#X text 530 190 reset al aixecar una tecla, f 17;
#X text 600 60 - soroll al tocar un acord;
#X text 600 80 - primera nota més forta (?);
#X obj 460 310 t f f f f b;
#X text 680 270 ERROR: crec que el problema es que el metro s'activa
abans de que estiguin escrites les notes... com activar-lo després?
, f 45;
#X obj 680 480 sel 0;
#X obj 680 350 metro 150;
#X text 720 480 PARCHE: amb això no es reprodueixen els zeros (fa
menys soroll), f 64;
#X connect 0 0 1 0;
#X connect 0 1 17 0;
#X connect 1 0 2 0;
#X connect 2 0 7 0;
#X connect 2 1 3 0;
#X connect 3 0 27 0;
#X connect 4 0 3 1;
#X connect 5 0 3 1;
#X connect 8 0 30 0;
#X connect 9 0 19 0;
#X connect 10 0 18 0;
#X connect 11 0 29 0;
#X connect 15 0 5 0;
#X connect 15 0 14 0;
#X connect 16 0 18 1;
#X connect 17 0 8 0;
#X connect 17 1 1 1;
#X connect 17 2 15 0;
#X connect 18 0 9 1;
#X connect 19 0 11 0;
#X connect 19 1 10 0;
#X connect 22 0 9 1;
#X connect 23 0 12 0;
#X connect 23 1 12 1;
#X connect 27 0 16 0;
#X connect 27 1 7 1;
#X connect 27 2 4 0;
#X connect 27 4 22 0;
#X connect 29 1 23 0;
#X connect 30 0 9 0;
