#N canvas 514 184 740 604 10;
#N canvas 0 0 450 300 (subpatch) 0;
#X array scale 8 float 3 black black;
#A 0 0 2 3 5 7 8 10 12;
#X coords 0 12 8 0 200 140 1;
#X restore 30 30 graph;
#X obj 250 30 tgl 27 0 empty empty empty 17 7 0 10 #fcfcfc #000000
#000000 0 1;
#X obj 250 70 metro 500;
#X obj 250 130 tabread scale;
#X obj 250 240 noteout;
#X msg 350 100 50;
#X obj 350 70 loadbang;
#X floatatom 350 130 5 0 0 0 - - -, f 5;
#X obj 250 160 + 48;
#X floatatom 400 130 5 0 0 0 - - -, f 5;
#X obj 250 200 makenote;
#X msg 400 100 500;
#X text 190 190 C major;
#X text 190 230 C minor;
#X text 190 270 C har minor;
#X obj 250 100 random 8;
#X msg 30 178 \; scale 0 0 2 4 5 7 9 11 12;
#X msg 30 220 \; scale 0 0 2 3 5 7 8 10 12;
#X msg 30 260 \; scale 0 0 2 3 5 7 8 11 12;
#X msg 30 300 \; scale 0 0 2 3 5 7 9 11 12;
#X text 190 310 C mel minor;
#X connect 1 0 2 0;
#X connect 2 0 15 0;
#X connect 3 0 8 0;
#X connect 5 0 7 0;
#X connect 6 0 5 0;
#X connect 6 0 11 0;
#X connect 7 0 10 1;
#X connect 8 0 10 0;
#X connect 9 0 10 2;
#X connect 10 0 4 0;
#X connect 10 1 4 1;
#X connect 11 0 9 0;
#X connect 15 0 3 0;
