#N canvas 0 0 1664 956 10;
#X obj 220 310 tgl 24 0 empty empty empty 0 -12 0 16 #fcfcfc #000000
#000000 0 1;
#X obj 280 360 metro;
#X obj 200 110 bng 33 250 50 0 empty empty empty 17 7 0 10 #fcfcfc
#000000 #000000;
#X obj 270 120 cnv 15 135 174 empty empty empty 20 12 0 14 #ffff80
#404040 0;
#X text 370 160 bpm;
#X obj 330 240 /;
#X msg 290 160 60000;
#X floatatom 340 160 5 0 0 0 - - -, f 5;
#X obj 420 150 cnv 15 159 219 empty empty empty 20 12 0 14 #ff8080
#404040 0;
#X floatatom 440 200 5 0 0 0 - - -, f 5;
#X floatatom 500 230 5 0 0 0 - - -, f 5;
#X text 480 200 max;
#X text 540 230 min;
#X obj 490 340 -;
#X obj 500 270 t b f;
#X obj 520 310 t f f;
#X obj 600 200 cnv 15 149 190 empty empty empty 20 12 0 14 #8080ff
#404040 0;
#X floatatom 618 231 5 0 0 0 - - -, f 5;
#X floatatom 668 261 5 0 0 0 - - -, f 5;
#X text 658 231 max;
#X text 708 261 min;
#X obj 648 361 -;
#X obj 670 290 t b f;
#X obj 690 330 t f f;
#X text 280 120 control de tempo;
#X text 440 150 control d'altura;
#X text 620 200 control de volum;
#X msg 620 150 50;
#X msg 590 150 62;
#X msg 790 200 50;
#X obj 710 80 loadbang;
#X msg 758 201 100;
#X msg 410 120 180;
#X obj 340 190 t b f;
#X text 200 90 on/off;
#X obj 450 490 random;
#X obj 683 800 noteout;
#X obj 500 530 +;
#X obj 630 490 random;
#X obj 680 530 +;
#X obj 640 760 makenote 80 260;
#X obj 800 490 random;
#X obj 850 530 +;
#X obj 410 430 t b b b;
#X obj 760 250 cnv 15 150 198 empty empty empty 20 12 0 14 #af80ff
#404040 0;
#X floatatom 780 290 5 0 0 0 - - -, f 5;
#X floatatom 820 320 5 0 0 0 - - -, f 5;
#X text 820 290 max;
#X text 860 320 min;
#X obj 800 420 -;
#X obj 820 350 t b f;
#X obj 850 390 t f f;
#X msg 920 250 300;
#X msg 950 250 200;
#X text 780 250 control de durada;
#N canvas 0 0 450 300 (subpatch) 0;
#X array quantizer 12 float 7 #94f48e #404040;
#A 0 0 0 2 2 3 5 5 7 7 8 8 10;
#X coords 0 12 12 0 200 140 1;
#X restore 210 480 graph;
#X msg 242 670 \; quantizer 0 0 0 2 2 4 5 5 7 7 9 9 11;
#X obj 500 660 tabread quantizer;
#X obj 500 560 t f f;
#X obj 500 600 % 12;
#X obj 610 600 / 12;
#X obj 610 630 i;
#X obj 610 660 * 12;
#X obj 590 710 +;
#X text 193 676 C major;
#X text 193 796 C menor;
#X msg 242 790 \; quantizer 0 0 0 2 2 3 5 5 7 7 8 8 10;
#X msg 242 630 \; quantizer 0 0 0 2 2 4 6 6 7 7 9 9 11;
#X text 193 636 C lidi;
#X text 193 716 C mixo;
#X text 193 756 C dòric;
#X msg 242 750 \; quantizer 0 0 0 2 2 3 5 5 7 7 9 9 10;
#X msg 242 710 \; quantizer 0 0 0 2 2 4 5 5 7 7 9 9 10;
#X connect 0 0 1 0;
#X connect 1 0 43 0;
#X connect 2 0 0 0;
#X connect 2 0 6 0;
#X connect 5 0 1 1;
#X connect 6 0 5 0;
#X connect 7 0 33 0;
#X connect 9 0 13 0;
#X connect 10 0 14 0;
#X connect 13 0 35 1;
#X connect 14 0 13 0;
#X connect 14 1 15 0;
#X connect 15 0 13 1;
#X connect 15 1 37 1;
#X connect 17 0 21 0;
#X connect 18 0 22 0;
#X connect 21 0 38 1;
#X connect 22 0 21 0;
#X connect 22 1 23 0;
#X connect 23 0 21 1;
#X connect 23 1 39 1;
#X connect 27 0 10 0;
#X connect 28 0 9 0;
#X connect 29 0 18 0;
#X connect 30 0 32 0;
#X connect 30 0 28 0;
#X connect 30 0 27 0;
#X connect 30 0 31 0;
#X connect 30 0 29 0;
#X connect 30 0 52 0;
#X connect 30 0 53 0;
#X connect 31 0 17 0;
#X connect 32 0 7 0;
#X connect 33 0 5 0;
#X connect 33 1 5 1;
#X connect 35 0 37 0;
#X connect 37 0 58 0;
#X connect 38 0 39 0;
#X connect 39 0 40 1;
#X connect 40 0 36 0;
#X connect 40 1 36 1;
#X connect 41 0 42 0;
#X connect 42 0 40 2;
#X connect 43 0 35 0;
#X connect 43 1 38 0;
#X connect 43 2 41 0;
#X connect 45 0 49 0;
#X connect 46 0 50 0;
#X connect 49 0 41 1;
#X connect 50 0 49 0;
#X connect 50 1 51 0;
#X connect 51 0 49 1;
#X connect 51 1 42 1;
#X connect 52 0 45 0;
#X connect 53 0 46 0;
#X connect 57 0 63 0;
#X connect 58 0 59 0;
#X connect 58 1 60 0;
#X connect 59 0 57 0;
#X connect 60 0 61 0;
#X connect 61 0 62 0;
#X connect 62 0 63 1;
#X connect 63 0 40 0;
