#N canvas 0 0 1664 956 16;
#X obj 200 260 tgl 24 0 empty empty empty 0 -12 0 16 #fcfcfc #000000
#000000 0 1;
#X obj 440 570 random;
#X obj 310 410 metro;
#X obj 640 720 noteout;
#X obj 490 610 +;
#X obj 620 570 random;
#X obj 670 610 +;
#X obj 200 -40 bng 48 250 50 0 empty empty empty 17 7 0 10 #fcfcfc
#000000 #000000;
#X obj 280 -50 cnv 15 330 399 empty empty empty 20 12 0 14 #ffff80
#404040 0;
#X text 343 -20 bpm;
#X obj 450 320 /;
#X msg 380 230 60000;
#X obj 460 270 t b f;
#X floatatom 470 20 5 0 0 0 - - -, f 5;
#X obj 460 130 random;
#X obj 470 230 +;
#X obj 380 60 metro 500;
#X obj 380 20 tgl 24 0 empty empty empty 0 -12 0 16 #fcfcfc #000000
#000000 0 1;
#X obj 480 180 t b f;
#X floatatom 290 -20 5 0 0 0 - - -, f 5;
#X obj 640 30 cnv 15 183 322 empty empty empty 20 12 0 14 #ff8080 #404040
0;
#X floatatom 690 80 5 0 0 0 - - -, f 5;
#X floatatom 718 143 5 0 0 0 - - -, f 5;
#X text 744 80 max;
#X text 771 142 min;
#X obj 677 303 -;
#X obj 710 200 t b f;
#X obj 730 260 t f f;
#X obj 850 100 cnv 15 183 322 empty empty empty 20 12 0 14 #8080ff
#404040 0;
#X floatatom 900 160 5 0 0 0 - - -, f 5;
#X floatatom 928 213 5 0 0 0 - - -, f 5;
#X text 954 160 max;
#X text 981 213 min;
#X obj 887 373 -;
#X obj 920 270 t b f;
#X obj 940 320 t f f;
#X text 640 30 control d'altura;
#X text 850 100 control de volum;
#X msg 870 40 50;
#X msg 830 30 62;
#X msg 1080 110 50;
#X obj 1090 -90 loadbang;
#X obj 530 130 / 2;
#X msg 1040 100 100;
#X obj 400 180 -;
#X text 410 10 on off, f 3;
#X text 520 20 range;
#X obj 480 60 t b f f;
#X msg 620 -50 180;
#X msg 660 -40 40;
#X obj 90 260 tgl 24 0 empty empty empty 0 -12 0 16 #fcfcfc #000000
#000000 0 1;
#X text 200 -80 mode normal, f 9;
#X obj 90 -40 bng 48 250 50 0 empty empty empty 17 7 0 10 #fcfcfc #000000
#000000;
#X text 90 -80 mode desfase, f 9;
#X obj 150 400 metro 500;
#X obj -20 -40 bng 48 250 50 0 empty empty empty 17 7 0 10 #fcfcfc
#000000 #000000;
#X text -20 -80 mode frases, f 9;
#X obj -20 260 tgl 24 0 empty empty empty 0 -12 0 16 #fcfcfc #000000
#000000 0 1;
#X obj -20 370 tgl 24 0 empty empty empty 0 -12 0 16 #fcfcfc #000000
#000000 0 1;
#X obj -20 430 tgl 24 0 empty empty empty 0 -12 0 16 #fcfcfc #000000
#000000 0 1;
#X obj -20 460 metro 250;
#X obj 597 680 makenote 80 260;
#X obj -20 400 metro 750;
#X obj -20 340 metro 2250;
#X obj 170 370 metro 503;
#X obj 130 430 metro 497;
#X obj 110 460 metro 494;
#X obj 1060 180 cnv 15 183 322 empty empty empty 20 12 0 14 #af80ff
#404040 0;
#X floatatom 1110 240 5 0 0 0 - - -, f 5;
#X floatatom 1138 293 5 0 0 0 - - -, f 5;
#X text 1164 239 max;
#X text 1191 292 min;
#X obj 1097 453 -;
#X obj 1130 350 t b f;
#X obj 1150 400 t f f;
#X obj 790 570 random;
#X obj 840 610 +;
#X obj 400 510 t b b b;
#X msg 1250 180 300;
#X msg 1290 190 200;
#X text 320 -120 Randomitzador de melodies cromàtiques 1.3;
#X text 1060 180 control de durada;
#X text 280 -50 control de tempo*;
#X obj 7 634 cnv 15 334 95 empty empty empty 20 12 0 14 #d3d3d3 #404040
0;
#X text 10 640 (*) per aturar la variació aleatòria de tempo s'ha
de fixar la variable "range" a zero abans d'apagar el toggle, f 32
;
#X text -140 260 -;
#X text 500 -160 -;
#X connect 0 0 2 0;
#X connect 1 0 4 0;
#X connect 2 0 77 0;
#X connect 4 0 61 0;
#X connect 5 0 6 0;
#X connect 6 0 61 1;
#X connect 7 0 0 0;
#X connect 7 0 11 0;
#X connect 7 0 17 0;
#X connect 10 0 2 1;
#X connect 11 0 10 0;
#X connect 12 0 10 0;
#X connect 12 1 10 1;
#X connect 13 0 47 0;
#X connect 14 0 18 0;
#X connect 15 0 12 0;
#X connect 16 0 14 0;
#X connect 17 0 16 0;
#X connect 18 0 15 0;
#X connect 18 1 15 1;
#X connect 19 0 44 0;
#X connect 21 0 25 0;
#X connect 22 0 26 0;
#X connect 25 0 1 1;
#X connect 26 0 25 0;
#X connect 26 1 27 0;
#X connect 27 0 25 1;
#X connect 27 1 4 1;
#X connect 29 0 33 0;
#X connect 30 0 34 0;
#X connect 33 0 5 1;
#X connect 34 0 33 0;
#X connect 34 1 35 0;
#X connect 35 0 33 1;
#X connect 35 1 6 1;
#X connect 38 0 22 0;
#X connect 39 0 21 0;
#X connect 40 0 30 0;
#X connect 41 0 49 0;
#X connect 41 0 48 0;
#X connect 41 0 39 0;
#X connect 41 0 38 0;
#X connect 41 0 43 0;
#X connect 41 0 40 0;
#X connect 41 0 78 0;
#X connect 41 0 79 0;
#X connect 42 0 44 1;
#X connect 43 0 29 0;
#X connect 44 0 15 0;
#X connect 47 0 44 0;
#X connect 47 1 14 1;
#X connect 47 2 42 0;
#X connect 48 0 19 0;
#X connect 49 0 13 0;
#X connect 50 0 54 0;
#X connect 50 0 64 0;
#X connect 50 0 65 0;
#X connect 50 0 66 0;
#X connect 52 0 50 0;
#X connect 54 0 77 0;
#X connect 55 0 57 0;
#X connect 57 0 63 0;
#X connect 58 0 62 0;
#X connect 59 0 60 0;
#X connect 60 0 77 0;
#X connect 61 0 3 0;
#X connect 61 1 3 1;
#X connect 62 0 59 0;
#X connect 63 0 58 0;
#X connect 64 0 77 0;
#X connect 65 0 77 0;
#X connect 66 0 77 0;
#X connect 68 0 72 0;
#X connect 69 0 73 0;
#X connect 72 0 75 1;
#X connect 73 0 72 0;
#X connect 73 1 74 0;
#X connect 74 0 72 1;
#X connect 74 1 76 1;
#X connect 75 0 76 0;
#X connect 76 0 61 2;
#X connect 77 0 1 0;
#X connect 77 1 5 0;
#X connect 77 2 75 0;
#X connect 78 0 68 0;
#X connect 79 0 69 0;
