#N canvas 73 125 1532 833 10;
#X obj 579 -2458 cnv 15 250 417 empty empty empty 20 12 0 14 #e0e0e0
#404040 0;
#N canvas 0 0 450 300 (subpatch) 0;
#X array pitch 100 float 3 black black;
#A 0 48 48 48 48 48 48 48 48 0 0 0 0 0 0 0 0 0 0 0 0 0 0 0 0 0 0 0
0 0 0 0 0 0 0 0 0 0 0 0 0 0 0 0 0 0 0 0 0 0 0 0 0 0 0 0 0 0 0 0 0 0
0 0 0 0 0 0 0 0 0 0 0 0 0 0 0 0 0 0 0 0 0 0 0 0 0 0 0 0 0 0 0 0 0 0
0 0 0 0 0;
#X coords 0 127 100 0 200 140 1;
#X restore 849 -2458 graph;
#X obj 240 -2460 cnv 15 318 427 empty empty empty 20 12 0 14 #e0e0e0
#404040 0;
#X obj 260 -2440 notein;
#X obj 260 -2124 tabwrite pitch;
#X msg 350 -2350 0;
#X obj 362 -2439 bng 15 250 50 0 empty empty empty 17 7 0 10 #fcfcfc
#000000 #000000;
#X text 382 -2439 reset;
#X obj 260 -2320 spigot;
#X obj 343 -2303 f;
#X obj 403 -2303 + 1;
#X obj 403 -2273 % 100;
#N canvas 0 0 450 300 (subpatch) 0;
#X array length 100 float 3 black black;
#A 0 16854.8 584.853 706.757 577.596 743.039 579.048 912.834 570.34
0 0 0 0 0 0 0 0 0 0 0 0 0 0 0 0 0 0 0 0 0 0 0 0 0 0 0 0 0 0 0 0 0 0
0 0 0 0 0 0 0 0 0 0 0 0 0 0 0 0 0 0 0 0 0 0 0 0 0 0 0 0 0 0 0 0 0 0
0 0 0 0 0 0 0 0 0 0 0 0 0 0 0 0 0 0 0 0 0 0 0 0;
#X coords 0 20000 100 0 200 140 1;
#X restore 849 -2308 graph;
#X obj 446 -2124 tabwrite length;
#X obj 260 -2290 t f b b;
#X obj 446 -2169 t b b;
#X obj 446 -2147 timer;
#X msg 450 -2370 \; pitch const 0;
#X msg 450 -2332 \; length const 0;
#X obj 600 -2440 tgl 15 0 empty empty empty 17 7 0 10 #fcfcfc #000000
#000000 0 1;
#X obj 599 -2328 f;
#X obj 639 -2328 + 1;
#X obj 600 -2250 tabread pitch;
#X obj 599 -2078 noteout;
#X obj 700 -2190 tabread length;
#X msg 629 -2368 0;
#X obj 739 -2438 bng 15 250 50 0 empty empty empty 17 7 0 10 #fcfcfc
#000000 #000000;
#X text 759 -2438 reset;
#X obj 599 -2118 makenote;
#X obj 700 -2250 + 1;
#X obj 599 -2408 metro;
#X obj 700 -2160 t f f f;
#X obj 739 -2288 sel 0;
#X text 728 -2320 para quan una length es zero, f 16;
#X text 570 -2520 comment;
#N canvas 0 0 450 300 (subpatch) 0;
#X array vel 100 float 3 black black;
#A 0 126 43 124 29 123 30 124 0 0 0 0 0 0 0 0 0 0 0 0 0 0 0 0 0 0 0
0 0 0 0 0 0 0 0 0 0 0 0 0 0 0 0 0 0 0 0 0 0 0 0 0 0 0 0 0 0 0 0 0 0
0 0 0 0 0 0 0 0 0 0 0 0 0 0 0 0 0 0 0 0 0 0 0 0 0 0 0 0 0 0 0 0 0 0
0 0 0 0 0 0;
#X coords 0 127 100 0 200 140 1;
#X restore 849 -2160 graph;
#X msg 450 -2294 \; vel const 0;
#X obj 620 -2190 tabread vel;
#X obj 280 -2390 t f f;
#X obj 360 -2124 tabwrite vel;
#X obj 343 -2273 t f f f f;
#X text 599 -2038 TODO: que soni també la ultima nota (ara mateix
s'apaga immediatament si no toques una altra "dummy"), f 36;
#X obj 690 -2120 notein;
#X obj 700 -2220 t f f;
#X obj 600 -2300 t f f f;
#X text 710 -2100 per escoltar mentre es grava, f 16;
#X text 850 -2020 les velocities fan coses rares...;
#X connect 3 0 8 0;
#X connect 3 1 38 0;
#X connect 5 0 9 1;
#X connect 6 0 5 0;
#X connect 6 0 17 0;
#X connect 6 0 18 0;
#X connect 6 0 36 0;
#X connect 8 0 14 0;
#X connect 9 0 40 0;
#X connect 10 0 11 0;
#X connect 11 0 9 1;
#X connect 14 0 4 0;
#X connect 14 1 15 0;
#X connect 14 2 9 0;
#X connect 15 0 16 0;
#X connect 15 1 16 1;
#X connect 16 0 13 0;
#X connect 19 0 30 0;
#X connect 20 0 44 0;
#X connect 21 0 20 1;
#X connect 22 0 28 0;
#X connect 24 0 31 0;
#X connect 25 0 20 1;
#X connect 26 0 25 0;
#X connect 28 0 23 0;
#X connect 28 1 23 1;
#X connect 29 0 43 0;
#X connect 30 0 20 0;
#X connect 31 0 32 0;
#X connect 31 1 28 2;
#X connect 31 2 30 1;
#X connect 32 0 19 0;
#X connect 32 0 25 0;
#X connect 37 0 28 1;
#X connect 38 0 8 1;
#X connect 38 1 39 0;
#X connect 40 0 4 1;
#X connect 40 1 39 1;
#X connect 40 2 13 1;
#X connect 40 3 10 0;
#X connect 42 0 23 0;
#X connect 42 1 23 1;
#X connect 43 0 37 0;
#X connect 43 1 24 0;
#X connect 44 0 22 0;
#X connect 44 1 29 0;
#X connect 44 2 21 0;
