#N canvas 82 93 1532 833 10;
#X obj 1027 -2370 cnv 15 195 58 empty empty empty 20 12 0 14 #ffff9f
#404040 0;
#X obj 1070 -2300 cnv 15 328 417 empty empty empty 20 12 0 14 #e0e0e0
#404040 0;
#X obj 849 -2370 cnv 15 168 58 empty empty empty 20 12 0 14 #ffba75
#404040 0;
#X obj 620 -2420 cnv 15 220 109 empty empty empty 20 12 0 14 #ff9393
#404040 0;
#X obj 382 -2400 cnv 15 228 90 empty empty empty 20 12 0 14 #a08d8d
#404040 0;
#X obj 480 -2300 cnv 15 250 417 empty empty empty 20 12 0 14 #e0e0e0
#404040 0;
#X obj 220 -2300 cnv 15 250 417 empty empty empty 20 12 0 14 #e0e0e0
#404040 0;
#N canvas 0 0 450 300 (subpatch) 0;
#X array pitch 100 float 3 black black;
#A 0 48 50 52 53 55 57 59 57 55 53 52 50 48 47 48 50 52 53 55 57 59
60 59 57 55 53 52 50 48 50 52 53 55 57 59 60 59 57 55 53 52 50 48 52
59 53 52 55 57 55 57 50 59 59 57 55 53 52 52 53 50 48 59 0 0 0 0 0
0 0 0 0 0 0 0 0 0 0 0 0 0 0 0 0 0 0 0 0 0 0 0 0 0 0 0 0 0 0 0 0;
#X coords 0 127 100 0 200 140 1;
#X restore 470 -1870 graph;
#X obj 740 -2300 cnv 15 318 417 empty empty empty 20 12 0 14 #e0e0e0
#404040 0;
#X obj 760 -2258 notein;
#X obj 760 -1942 tabwrite pitch;
#X msg 850 -2208 0;
#X obj 869 -2350 bng 15 250 50 0 empty empty empty 17 7 0 10 #fcfcfc
#000000 #000000;
#X obj 760 -2158 spigot;
#X obj 900 -2088 f;
#X obj 970 -2058 + 1;
#X obj 1000 -2058 % 100;
#N canvas 0 0 450 300 (subpatch) 0;
#X array length 100 float 3 black black;
#A 0 1318.68 659.341 659.341 659.341 659.341 659.341 329.67 329.67
164.835 164.835 329.67 164.835 329.67 164.835 329.67 164.835 124.979
164.835 164.835 164.835 124.979 124.979 164.835 124.979 164.835 164.835
124.979 164.835 124.979 164.835 124.979 124.979 124.979 124.979 124.979
124.979 124.979 116.1 91.4286 124.979 124.979 117.551 124.979 164.835
124.979 164.835 329.67 164.835 164.835 124.979 14.5125 329.67 164.835
164.835 164.835 124.979 26.1224 164.835 164.835 124.979 164.835 164.835
164.835 0 0 0 0 0 0 0 0 0 0 0 0 0 0 0 0 0 0 0 0 0 0 0 0 0 0 0 0 0 0
0 0 0 0 0 0 0;
#X coords 0 2000 100 0 200 140 1;
#X restore 680 -1870 graph;
#X obj 946 -1942 tabwrite length;
#X obj 760 -2128 t f b b;
#X obj 946 -1987 t b b;
#X obj 946 -1965 timer;
#X msg 950 -2248 \; pitch const 0;
#X msg 930 -2208 \; length const 0;
#X obj 240 -2280 tgl 15 0 empty empty empty 17 7 0 10 #fcfcfc #000000
#000000 0 1;
#X obj 239 -2168 f;
#X obj 300 -2140 + 1;
#X obj 240 -2090 tabread pitch;
#X obj 239 -1918 noteout;
#X obj 340 -2030 tabread length;
#X msg 269 -2208 0;
#X obj 462 -2340 bng 15 250 50 0 empty empty empty 17 7 0 10 #fcfcfc
#000000 #000000;
#X obj 239 -1958 makenote;
#X obj 340 -2090 + 1;
#X obj 239 -2248 metro;
#X obj 379 -2128 sel 0;
#N canvas 0 0 450 300 (subpatch) 0;
#X array vel 100 float 3 black black;
#A 0 102 116 84 109 80 90 86 80 102 84 82 86 84 109 68 72 88 74 80
54 63 86 57 72 66 68 47 76 86 82 57 63 86 90 46 33 16 19 82 90 76 72
44 82 31 88 53 58 116 78 74 57 82 50 57 47 74 48 55 26 64 74 0 0 0
0 0 0 0 0 0 0 0 0 0 0 0 0 0 0 0 0 0 0 0 0 0 0 0 0 0 0 0 0 0 0 0 0 0
0;
#X coords 0 127 100 0 200 140 1;
#X restore 890 -1870 graph;
#X msg 910 -2168 \; vel const 0;
#X obj 260 -2030 tabread vel;
#X obj 780 -2208 t f f;
#X obj 860 -1942 tabwrite vel;
#X obj 900 -2058 t f f f f;
#X obj 330 -1960 notein;
#X obj 340 -2060 t f f;
#X obj 240 -2140 t f f f;
#X text 350 -1940 per escoltar mentre es grava, f 16;
#X msg 500 -2180 100;
#X obj 500 -2150 t f b;
#X obj 500 -2120 until;
#X obj 500 -2080 f;
#X obj 530 -2080 + 1;
#X msg 540 -2120 0;
#X obj 500 -2050 t f f f;
#X text 482 -2340 reset reproducció;
#X obj 500 -2010 tabread pitch;
#X obj 500 -1930 tabwrite pitch;
#X text 697 -2410 transposar;
#X text 616 -1976 transposa tota la melodia, f 15;
#X obj 340 -2000 t f f;
#X obj 260 -2000 t f f;
#X obj 630 -2370 hradio 15 0 0 13 empty empty empty 0 -8 0 10 #fcfcfc
#000000 #000000 0;
#X text 630 -2390 -6;
#X text 660 -2390 -4;
#X text 690 -2390 -2;
#X text 723 -2390 0;
#X obj 500 -2240 - 6;
#X text 753 -2390 2;
#X text 783 -2390 4;
#X text 813 -2390 6;
#X obj 590 -1970 +;
#X obj 600 -2170 f;
#X obj 600 -2140 +;
#X obj 650 -2140 f;
#X obj 500 -2210 t b f b b f;
#X floatatom 790 -2340 5 0 0 0 - - -, f 5;
#X text 660 -2340 transposició actual:, f 21;
#X obj 392 -2390 bng 15 250 50 0 empty empty empty 17 7 0 10 #fcfcfc
#000000 #000000;
#X text 230 -1870 TODO: que soni també la ultima nota (ara mateix
has de tocar una nota "dummy" perquè s'apagui la última), f 36;
#X text 593 -2120 acumula totes les transposicions, f 19;
#X text 889 -2350 esborrar melodia;
#X obj 840 -2028 sel 0;
#X obj 330 -2140 % 100;
#X text 412 -2390 play/stop;
#X floatatom 1147 -2350 5 0 0 0 - - -, f 5;
#X obj 1047 -2350 bng 15 250 50 0 empty empty empty 17 7 0 10 #fcfcfc
#000000 #000000;
#X text 1181 -2350 bpm;
#X obj 1190 -2280 t b f;
#X msg 1190 -2240 60000;
#X obj 1190 -2210 /;
#X obj 1180 -2050 moses;
#X obj 1220 -2050 moses;
#X obj 1260 -2050 moses;
#X msg 1090 -2280 100;
#X obj 1090 -2250 t f b;
#X obj 1090 -2220 until;
#X obj 1090 -2180 f;
#X obj 1120 -2180 + 1;
#X msg 1130 -2220 0;
#X obj 1090 -2150 t f f f;
#X obj 1090 -2110 tabread length;
#X obj 1090 -1930 tabwrite length;
#X text 1067 -2350 quantize to;
#X obj 1190 -2170 t f f f f f;
#X obj 1300 -2050 moses;
#X obj 1340 -2050 moses;
#X obj 1190 -2090 t f f;
#X obj 1180 -1980 f;
#X obj 1230 -2090 t f f;
#X obj 1220 -1980 f;
#X obj 1270 -2090 t f f;
#X obj 1260 -1980 f;
#X obj 1310 -2090 t f f;
#X obj 1300 -1980 f;
#X obj 1350 -2090 t f f;
#X obj 1340 -1980 f;
#X obj 1190 -2130 * 4;
#X obj 1220 -2130 * 2;
#X obj 1270 -2130 / 2;
#X obj 1300 -2130 / 4;
#X obj 1180 -2010 t b;
#X obj 1220 -2010 t b;
#X obj 1260 -2010 t b;
#X obj 1300 -2010 t b;
#X obj 1340 -2010 t b;
#X text 1110 -1870 TODO: quantitzar també "cap a dalt" (ara si canvies
el tempo es fan cada cop més petites per culpa dels moses), f 38
;
#X text 680 -2480 REPTRAQ = REcorder Player TRAnsposer Quantizer;
#X text 1190 -1940 envia el múltiple o divisor de la pulsació immediatament
inferior a la duració registrada, f 33;
#X text 765 -2008 filtra vel 0 per si es toquen més de 100 notes,
f 16;
#X text 230 -1820 TODO: botó de reiniciar transposició (revertint
segons la transposició actual acumulada), f 37;
#X text 368 -2160 para quan una velocity es 0, f 16;
#X text 1110 -1819 TODO: quantitzar tonalment (mapejant a una tonalitat
o un mode concret), f 38;
#X connect 9 0 13 0;
#X connect 9 1 39 0;
#X connect 11 0 14 1;
#X connect 11 0 74 0;
#X connect 11 0 72 1;
#X connect 12 0 11 0;
#X connect 12 0 22 0;
#X connect 12 0 23 0;
#X connect 12 0 37 0;
#X connect 13 0 19 0;
#X connect 14 0 41 0;
#X connect 15 0 16 0;
#X connect 16 0 14 1;
#X connect 19 0 10 0;
#X connect 19 1 20 0;
#X connect 19 2 14 0;
#X connect 20 0 21 0;
#X connect 20 1 21 1;
#X connect 21 0 18 0;
#X connect 24 0 34 0;
#X connect 25 0 44 0;
#X connect 26 0 81 0;
#X connect 27 0 32 0;
#X connect 29 0 58 0;
#X connect 30 0 25 1;
#X connect 31 0 30 0;
#X connect 32 0 28 0;
#X connect 32 1 28 1;
#X connect 33 0 43 0;
#X connect 34 0 25 0;
#X connect 35 0 30 0;
#X connect 38 0 59 0;
#X connect 39 0 13 1;
#X connect 39 1 80 0;
#X connect 41 0 10 1;
#X connect 41 1 40 1;
#X connect 41 2 18 1;
#X connect 41 3 15 0;
#X connect 42 0 28 0;
#X connect 42 1 28 1;
#X connect 43 0 38 0;
#X connect 43 1 29 0;
#X connect 44 0 27 0;
#X connect 44 1 33 0;
#X connect 44 2 26 0;
#X connect 46 0 47 0;
#X connect 47 0 48 0;
#X connect 47 1 51 0;
#X connect 48 0 49 0;
#X connect 49 0 52 0;
#X connect 50 0 49 1;
#X connect 51 0 49 1;
#X connect 52 0 54 0;
#X connect 52 1 55 1;
#X connect 52 2 50 0;
#X connect 54 0 69 0;
#X connect 58 0 32 2;
#X connect 58 1 34 1;
#X connect 59 0 35 0;
#X connect 59 1 32 1;
#X connect 60 0 65 0;
#X connect 65 0 73 0;
#X connect 69 0 55 0;
#X connect 70 0 71 0;
#X connect 71 0 72 1;
#X connect 71 0 74 0;
#X connect 72 0 71 1;
#X connect 73 0 46 0;
#X connect 73 1 69 1;
#X connect 73 2 70 0;
#X connect 73 3 72 0;
#X connect 73 4 70 1;
#X connect 76 0 24 0;
#X connect 80 1 40 0;
#X connect 81 0 25 1;
#X connect 83 0 86 0;
#X connect 84 0 92 0;
#X connect 86 0 87 0;
#X connect 86 1 88 1;
#X connect 87 0 88 0;
#X connect 88 0 102 0;
#X connect 89 0 90 0;
#X connect 89 1 119 0;
#X connect 90 0 91 0;
#X connect 90 1 120 0;
#X connect 91 0 103 0;
#X connect 91 1 121 0;
#X connect 92 0 93 0;
#X connect 93 0 94 0;
#X connect 93 1 97 0;
#X connect 94 0 95 0;
#X connect 95 0 98 0;
#X connect 96 0 95 1;
#X connect 97 0 95 1;
#X connect 98 0 99 0;
#X connect 98 1 100 1;
#X connect 98 2 96 0;
#X connect 99 0 89 0;
#X connect 102 0 115 0;
#X connect 102 1 116 0;
#X connect 102 2 109 0;
#X connect 102 3 117 0;
#X connect 102 4 118 0;
#X connect 103 0 104 0;
#X connect 103 1 122 0;
#X connect 104 1 123 0;
#X connect 105 0 106 1;
#X connect 105 1 89 1;
#X connect 106 0 100 0;
#X connect 107 0 108 1;
#X connect 107 1 90 1;
#X connect 108 0 100 0;
#X connect 109 0 110 1;
#X connect 109 1 91 1;
#X connect 110 0 100 0;
#X connect 111 0 112 1;
#X connect 111 1 103 1;
#X connect 112 0 100 0;
#X connect 113 0 114 1;
#X connect 113 1 104 1;
#X connect 114 0 100 0;
#X connect 115 0 105 0;
#X connect 116 0 107 0;
#X connect 117 0 111 0;
#X connect 118 0 113 0;
#X connect 119 0 106 0;
#X connect 120 0 108 0;
#X connect 121 0 110 0;
#X connect 122 0 112 0;
#X connect 123 0 114 0;
