#N canvas 0 0 1904 986 10;
#X obj 434 223 cnv 15 119 87 empty empty empty 20 12 0 14 #e0e0e0 #404040
0;
#X obj 759 46 cnv 15 548 79 empty empty empty 20 12 0 14 #eaffc4 #404040
0;
#X obj 800 260 cnv 15 422 100 empty empty empty 20 12 0 14 #eaffc4
#404040 0;
#X obj 580 59 cnv 15 107 60 empty empty empty 20 12 0 14 #eaffc4 #404040
0;
#N canvas 0 0 450 300 (subpatch) 0;
#X array lead 8 float 3 black black;
#A 0 45 45 57 45 55 45 53 52;
#X coords 0 100 8 10 200 140 1;
#X restore 210 70 graph;
#N canvas 0 0 450 300 (subpatch) 0;
#X array drums 8 float 3 black black;
#A 0 36 38 37 38 38 36 37 38;
#X coords 0 100 8 10 200 140 1;
#X restore 210 370 graph;
#N canvas 536 234 450 303 (subpatch) 0;
#X array bass 8 float 3 black black;
#A 0 45 45 48 48 43 43 45 45;
#X coords 0 100 8 10 200 140 1;
#X restore 210 220 graph;
#X obj 440 361 f;
#X obj 530 361 + 1;
#X msg 530 421 0;
#X obj 440 391 t f f;
#X obj 440 40 tgl 28 0 empty empty empty 17 7 0 10 #fcfcfc #000000
#000000 0 1;
#X obj 440 421 t f f f;
#X obj 440 630 noteout 1;
#X obj 560 630 noteout 2;
#X msg 210 560 \; bass 0 45 45 48 48 43 43 45 45;
#X obj 560 560 tabread bass;
#X obj 440 560 tabread lead;
#X obj 680 560 tabread drums;
#X msg 210 520 \; lead 0 45 45 57 45 55 45 53 52;
#X obj 440 590 makenote 127 200;
#X obj 560 590 makenote 127 200;
#X obj 820 330 tgl 17 0 empty empty empty 17 7 0 10 #fcfcfc #000000
#000000 0 1;
#X obj 840 330 tgl 17 0 empty empty empty 17 7 0 10 #fcfcfc #000000
#000000 0 1;
#X obj 990 330 tgl 17 0 empty empty empty 17 7 0 10 #fcfcfc #000000
#000000 0 1;
#X obj 1010 330 tgl 17 0 empty empty empty 17 7 0 10 #fcfcfc #000000
#000000 0 1;
#X obj 1160 330 tgl 17 0 empty empty empty 17 7 0 10 #fcfcfc #000000
#000000 0 1;
#X obj 1180 330 tgl 17 0 empty empty empty 17 7 0 10 #fcfcfc #000000
#000000 0 1;
#X text 823 310 M;
#X text 843 310 S;
#X text 993 310 M;
#X text 1013 310 S;
#X text 1163 310 M;
#X text 1183 310 S;
#X obj 440 530 spigot 1;
#X obj 560 530 spigot 1;
#X obj 680 530 spigot 1;
#X obj 490 500 == 0;
#X obj 610 500 == 0;
#X obj 730 500 == 0;
#X obj 820 490 t 0 1 1 b b b;
#X obj 880 570 f;
#X obj 840 570 f;
#X obj 1060 570 f;
#X obj 1020 570 f;
#X obj 1240 570 f;
#X obj 1200 570 f;
#X obj 850 390 sel 1 0;
#X obj 1020 390 sel 1 0;
#X obj 1190 390 sel 1 0;
#X obj 990 490 t 1 0 1 b b b;
#X obj 1160 490 t 1 1 0 b b b;
#X obj 810 390 t f f;
#X obj 980 390 t f f;
#X obj 1150 390 t f f;
#X obj 910 490 t b b b;
#X obj 1080 490 t b b b;
#X obj 1250 490 t b b b;
#X obj 680 630 noteout 3;
#X obj 680 590 makenote 127 200;
#X msg 210 600 \; drums 0 36 38 37 38 38 36 37 38;
#X floatatom 590 89 5 0 0 0 - - -, f 5;
#X obj 510 20 loadbang;
#X msg 530 50 240;
#X obj 520 141 /;
#X obj 530 111 t b f;
#X obj 440 169 metro;
#X text 623 89 bpm;
#X text 598 59 tempo control;
#X text 990 260 mixer;
#X text 810 290 lead synth;
#X text 980 290 bass synth;
#X text 1150 290 808 drums;
#X obj 440 199 t b b b b;
#X obj 779 96 hsl 128 15 0 100 0 0 empty empty empty -2 -8 0 10 #fcfcfc
#000000 #000000 0 1;
#X obj 759 136 random 100;
#X obj 759 166 <;
#X obj 530 391 sel 8;
#X obj 759 196 sel 1;
#X obj 440 229 f;
#X obj 470 229 + 1;
#X obj 440 259 % 2;
#X obj 440 289 sel 0;
#X floatatom 490 259 5 0 0 0 - - -, f 5;
#X msg 520 84 30000;
#X obj 939 96 hsl 128 15 0 100 0 0 empty empty empty -2 -8 0 10 #fcfcfc
#000000 #000000 0 1;
#X obj 919 136 random 100;
#X obj 919 166 <;
#X obj 919 196 sel 1;
#X obj 1099 96 hsl 128 15 0 100 0 0 empty empty empty -2 -8 0 10 #fcfcfc
#000000 #000000 0 1;
#X obj 1079 136 random 100;
#X obj 1079 166 <;
#X obj 1079 196 sel 1;
#X msg 510 229 0;
#X text 720 -40 comment, f 2;
#X text 939 46 stochastic note omitter;
#X text 809 76 lead synth;
#X text 969 76 bass synth;
#X text 1139 76 808 drums;
#X obj 1262 93 tgl 18 0 empty empty empty 17 7 0 10 #fcfcfc #000000
#000000 0 1;
#X text 1253 76 on/off;
#X obj 759 236 spigot 1;
#X obj 919 236 spigot 1;
#X obj 1079 236 spigot 1;
#X obj 1169 196 t f f f;
#X obj 1239 186 sel 0;
#X obj 1239 216 t f f f;
#X text 555 230 envia el doble de bangs al stochastic omitter perquè
mutegi i desmutegi en el mateix temps que es toca una nota, f 25;
#X text 1286 181 perquè desmutegi al apagar el sistema (a vegades
es penja al apagar-ho), f 19;
#X text 1266 562 unitats de memòria per guardar l'estat al fer solo
, f 32;
#X text 1300 480 canvia els estats dels mute i guarda o recupera la
memòria, f 31;
#X text 435 21 inicia;
#X connect 7 0 10 0;
#X connect 8 0 77 0;
#X connect 9 0 7 1;
#X connect 10 0 12 0;
#X connect 10 1 8 0;
#X connect 11 0 66 0;
#X connect 12 0 34 0;
#X connect 12 1 35 0;
#X connect 12 2 36 0;
#X connect 16 0 21 0;
#X connect 17 0 20 0;
#X connect 18 0 59 0;
#X connect 20 0 13 0;
#X connect 20 1 13 1;
#X connect 21 0 14 0;
#X connect 21 1 14 1;
#X connect 22 0 52 0;
#X connect 23 0 47 0;
#X connect 24 0 53 0;
#X connect 25 0 48 0;
#X connect 26 0 54 0;
#X connect 27 0 49 0;
#X connect 34 0 17 0;
#X connect 35 0 16 0;
#X connect 36 0 18 0;
#X connect 37 0 34 1;
#X connect 38 0 35 1;
#X connect 39 0 36 1;
#X connect 40 0 22 0;
#X connect 40 1 24 0;
#X connect 40 2 26 0;
#X connect 40 3 41 0;
#X connect 40 4 43 0;
#X connect 40 5 45 0;
#X connect 41 0 42 1;
#X connect 42 0 22 0;
#X connect 43 0 44 1;
#X connect 44 0 24 0;
#X connect 45 0 46 1;
#X connect 46 0 26 0;
#X connect 47 0 40 0;
#X connect 47 1 55 0;
#X connect 48 0 50 0;
#X connect 48 1 56 0;
#X connect 49 0 51 0;
#X connect 49 1 57 0;
#X connect 50 0 22 0;
#X connect 50 1 24 0;
#X connect 50 2 26 0;
#X connect 50 3 41 0;
#X connect 50 4 43 0;
#X connect 50 5 45 0;
#X connect 51 0 22 0;
#X connect 51 1 24 0;
#X connect 51 2 26 0;
#X connect 51 3 41 0;
#X connect 51 4 43 0;
#X connect 51 5 45 0;
#X connect 52 0 37 0;
#X connect 52 1 41 1;
#X connect 53 0 38 0;
#X connect 53 1 43 1;
#X connect 54 0 39 0;
#X connect 54 1 45 1;
#X connect 55 0 42 0;
#X connect 55 1 44 0;
#X connect 55 2 46 0;
#X connect 56 0 42 0;
#X connect 56 1 44 0;
#X connect 56 2 46 0;
#X connect 57 0 42 0;
#X connect 57 1 44 0;
#X connect 57 2 46 0;
#X connect 59 0 58 0;
#X connect 59 1 58 1;
#X connect 61 0 65 0;
#X connect 62 0 63 0;
#X connect 62 0 84 0;
#X connect 62 0 93 0;
#X connect 63 0 61 0;
#X connect 64 0 66 1;
#X connect 65 0 64 0;
#X connect 65 1 64 1;
#X connect 66 0 73 0;
#X connect 73 0 79 0;
#X connect 73 1 75 0;
#X connect 73 2 86 0;
#X connect 73 3 90 0;
#X connect 74 0 76 1;
#X connect 75 0 76 0;
#X connect 76 0 78 0;
#X connect 77 0 9 0;
#X connect 77 1 7 1;
#X connect 78 0 101 0;
#X connect 79 0 80 0;
#X connect 79 0 81 0;
#X connect 79 0 83 0;
#X connect 80 0 79 1;
#X connect 81 0 82 0;
#X connect 82 0 7 0;
#X connect 84 0 64 0;
#X connect 85 0 87 1;
#X connect 86 0 87 0;
#X connect 87 0 88 0;
#X connect 88 0 102 0;
#X connect 89 0 91 1;
#X connect 90 0 91 0;
#X connect 91 0 92 0;
#X connect 92 0 103 0;
#X connect 93 0 80 0;
#X connect 99 0 104 0;
#X connect 99 0 105 0;
#X connect 101 0 22 0;
#X connect 102 0 24 0;
#X connect 103 0 26 0;
#X connect 104 0 101 1;
#X connect 104 1 102 1;
#X connect 104 2 103 1;
#X connect 105 0 106 0;
#X connect 106 0 22 0;
#X connect 106 1 24 0;
#X connect 106 2 26 0;
