#N canvas 63 84 1538 787 10;
#X obj 800 210 cnv 15 422 100 empty empty empty 20 12 0 14 #e0e0e0
#404040 0;
#X obj 560 80 cnv 15 107 60 empty empty empty 20 12 0 14 #e0e0e0 #404040
0;
#N canvas 0 0 450 300 (subpatch) 0;
#X array lead 8 float 3 black black;
#A 0 45 45 57 45 55 45 53 52;
#X coords 0 100 8 10 200 140 1;
#X restore 210 10 graph;
#N canvas 0 0 450 300 (subpatch) 0;
#X array drums 8 float 3 black black;
#A 0 36 38 37 38 38 36 37 38;
#X coords 0 100 8 10 200 140 1;
#X restore 210 310 graph;
#N canvas 536 234 450 303 (subpatch) 0;
#X array bass 8 float 3 black black;
#A 0 45 45 48 48 43 43 45 45;
#X coords 0 100 8 10 200 140 1;
#X restore 210 160 graph;
#X obj 440 250 f;
#X obj 530 220 + 1;
#X obj 530 250 select 8;
#X msg 530 280 0;
#X obj 440 280 t f f;
#X floatatom 460 490 5 0 0 0 - - -, f 5;
#X obj 440 40 tgl 28 0 empty empty empty 17 7 0 10 #fcfcfc #000000
#000000 0 1;
#X obj 440 330 t f f f;
#X floatatom 580 490 5 0 0 0 - - -, f 5;
#X floatatom 700 490 5 0 0 0 - - -, f 5;
#X obj 440 560 noteout 1;
#X obj 560 560 noteout 2;
#X msg 210 500 \; bass 0 45 45 48 48 43 43 45 45;
#X obj 560 460 tabread bass;
#X obj 440 460 tabread lead;
#X obj 680 460 tabread drums;
#X msg 210 460 \; lead 0 45 45 57 45 55 45 53 52;
#X obj 440 520 makenote 127 200;
#X obj 560 520 makenote 127 200;
#X obj 820 280 tgl 15 0 empty empty empty 17 7 0 10 #fcfcfc #000000
#000000 0 1;
#X obj 840 280 tgl 15 0 empty empty empty 17 7 0 10 #fcfcfc #000000
#000000 0 1;
#X obj 990 280 tgl 15 0 empty empty empty 17 7 0 10 #fcfcfc #000000
#000000 0 1;
#X obj 1010 280 tgl 15 0 empty empty empty 17 7 0 10 #fcfcfc #000000
#000000 0 1;
#X obj 1160 280 tgl 15 0 empty empty empty 17 7 0 10 #fcfcfc #000000
#000000 0 1;
#X obj 1180 280 tgl 15 0 empty empty empty 17 7 0 10 #fcfcfc #000000
#000000 0 1;
#X text 823 260 M;
#X text 843 260 S;
#X text 993 260 M;
#X text 1013 260 S;
#X text 1163 260 M;
#X text 1183 260 S;
#X obj 440 420 spigot 1;
#X obj 560 420 spigot 1;
#X obj 680 420 spigot 1;
#X obj 490 390 == 0;
#X obj 610 390 == 0;
#X obj 730 390 == 0;
#X obj 820 440 t 0 1 1 b b b;
#X obj 880 520 f;
#X obj 840 520 f;
#X obj 1060 520 f;
#X obj 1020 520 f;
#X obj 1240 520 f;
#X obj 1200 520 f;
#X obj 850 340 sel 1 0;
#X obj 1020 340 sel 1 0;
#X obj 1190 340 sel 1 0;
#X obj 990 440 t 1 0 1 b b b;
#X obj 1160 440 t 1 1 0 b b b;
#X obj 810 340 t f f;
#X obj 980 340 t f f;
#X obj 1150 340 t f f;
#X obj 910 440 t b b b;
#X obj 1080 440 t b b b;
#X obj 1250 440 t b b b;
#X obj 680 560 noteout 3;
#X obj 680 520 makenote 127 200;
#X msg 210 540 \; drums 0 36 38 37 38 38 36 37 38;
#X floatatom 570 110 5 0 0 0 - - -, f 5;
#X obj 560 20 loadbang;
#X msg 560 50 240;
#X msg 510 110 60000;
#X obj 510 170 /;
#X obj 520 140 t b f;
#X obj 440 220 metro;
#X text 603 110 bpm;
#X text 578 80 tempo control;
#X text 990 210 mixer;
#X text 810 240 lead synth;
#X text 980 240 bass synth;
#X text 1150 240 808 drums;
#X connect 5 0 9 0;
#X connect 6 0 7 0;
#X connect 7 0 8 0;
#X connect 7 1 5 1;
#X connect 8 0 5 1;
#X connect 9 0 12 0;
#X connect 9 1 6 0;
#X connect 11 0 69 0;
#X connect 12 0 36 0;
#X connect 12 1 37 0;
#X connect 12 2 38 0;
#X connect 18 0 13 0;
#X connect 18 0 23 0;
#X connect 19 0 10 0;
#X connect 19 0 22 0;
#X connect 20 0 14 0;
#X connect 20 0 61 0;
#X connect 22 0 15 0;
#X connect 22 1 15 1;
#X connect 23 0 16 0;
#X connect 23 1 16 1;
#X connect 24 0 54 0;
#X connect 25 0 49 0;
#X connect 26 0 55 0;
#X connect 27 0 50 0;
#X connect 28 0 56 0;
#X connect 29 0 51 0;
#X connect 36 0 19 0;
#X connect 37 0 18 0;
#X connect 38 0 20 0;
#X connect 39 0 36 1;
#X connect 40 0 37 1;
#X connect 41 0 38 1;
#X connect 42 0 24 0;
#X connect 42 1 26 0;
#X connect 42 2 28 0;
#X connect 42 3 43 0;
#X connect 42 4 45 0;
#X connect 42 5 47 0;
#X connect 43 0 44 1;
#X connect 44 0 24 0;
#X connect 45 0 46 1;
#X connect 46 0 26 0;
#X connect 47 0 48 1;
#X connect 48 0 28 0;
#X connect 49 0 42 0;
#X connect 49 1 57 0;
#X connect 50 0 52 0;
#X connect 50 1 58 0;
#X connect 51 0 53 0;
#X connect 51 1 59 0;
#X connect 52 0 24 0;
#X connect 52 1 26 0;
#X connect 52 2 28 0;
#X connect 52 3 43 0;
#X connect 52 4 45 0;
#X connect 52 5 47 0;
#X connect 53 0 24 0;
#X connect 53 1 26 0;
#X connect 53 2 28 0;
#X connect 53 3 43 0;
#X connect 53 4 45 0;
#X connect 53 5 47 0;
#X connect 54 0 39 0;
#X connect 54 1 43 1;
#X connect 55 0 40 0;
#X connect 55 1 45 1;
#X connect 56 0 41 0;
#X connect 56 1 47 1;
#X connect 57 0 44 0;
#X connect 57 1 46 0;
#X connect 57 2 48 0;
#X connect 58 0 44 0;
#X connect 58 1 46 0;
#X connect 58 2 48 0;
#X connect 59 0 44 0;
#X connect 59 1 46 0;
#X connect 59 2 48 0;
#X connect 61 0 60 0;
#X connect 61 1 60 1;
#X connect 63 0 68 0;
#X connect 64 0 65 0;
#X connect 65 0 63 0;
#X connect 66 0 67 0;
#X connect 67 0 69 1;
#X connect 68 0 67 0;
#X connect 68 1 67 1;
#X connect 69 0 5 0;
