#N canvas 63 84 1538 787 10;
#N canvas 0 0 450 300 (subpatch) 0;
#X array mel1 8 float 3 black black;
#A 0 62 65 69 71 74 71 65 67;
#X coords 0 127 8 0 200 140 1;
#X restore 210 10 graph;
#N canvas 0 0 450 300 (subpatch) 0;
#X array mel2 8 float 3 black black;
#A 0 48 52 55 57 62 59 55 53;
#X coords 0 127 8 0 200 140 1;
#X restore 210 160 graph;
#N canvas 536 234 450 303 (subpatch) 0;
#X array mel3 8 float 3 black black;
#A 0 45 45 48 48 43 43 45 45;
#X coords 0 127 8 0 200 140 1;
#X restore 210 310 graph;
#X obj 440 110 metro 500;
#X obj 440 140 f;
#X obj 530 110 + 1;
#X obj 440 300 tabread mel1;
#X obj 530 140 select 8;
#X msg 530 170 0;
#X obj 440 170 t f f;
#X obj 440 360 makenote 127 300;
#X floatatom 460 330 5 0 0 0 - - -, f 5;
#X obj 440 40 tgl 28 0 empty empty empty 17 7 0 10 #fcfcfc #000000
#000000 1 1;
#X msg 210 460 \; mel1 0 62 65 69 71 74 71 65 67;
#X msg 210 498 \; mel2 0 48 52 55 57 62 59 55 53;
#X obj 440 220 t f f f;
#X obj 560 360 makenote 127 300;
#X floatatom 580 330 5 0 0 0 - - -, f 5;
#X obj 683 360 makenote 127 300;
#X floatatom 703 330 5 0 0 0 - - -, f 5;
#X obj 560 300 tabread mel2;
#X obj 683 300 tabread mel3;
#X obj 440 400 noteout 1;
#X obj 560 400 noteout 2;
#X obj 683 400 noteout 3;
#X msg 210 536 \; mel3 0 45 45 48 48 43 43 45 45;
#X connect 3 0 4 0;
#X connect 4 0 9 0;
#X connect 5 0 7 0;
#X connect 6 0 10 0;
#X connect 6 0 11 0;
#X connect 7 0 8 0;
#X connect 7 1 4 1;
#X connect 8 0 4 1;
#X connect 9 0 15 0;
#X connect 9 1 5 0;
#X connect 10 0 22 0;
#X connect 10 1 22 1;
#X connect 12 0 3 0;
#X connect 15 0 6 0;
#X connect 15 1 20 0;
#X connect 15 2 21 0;
#X connect 16 0 23 0;
#X connect 16 1 23 1;
#X connect 18 0 24 0;
#X connect 18 1 24 1;
#X connect 20 0 16 0;
#X connect 20 0 17 0;
#X connect 21 0 18 0;
#X connect 21 0 19 0;
