#N canvas 115 117 1410 765 10;
#X obj 320 100 cnv 15 217 254 empty empty empty 20 12 0 14 #e0e0e0
#404040 0;
#N canvas 0 0 450 300 (subpatch) 0;
#X array signal 10 float 3 black black;
#A 0 3 -9 0 -6 -7 1 6 -10 6 -4;
#X coords 0 10 10 -10 200 140 1;
#X restore 100 100 graph;
#X obj 330 110 bng 15 250 50 0 empty empty empty 17 7 0 10 #fcfcfc
#000000 #000000;
#X obj 410 210 expr size("signal");
#X obj 330 170 until;
#X obj 330 200 f;
#X obj 370 200 + 1;
#X obj 330 260 random 21;
#X obj 330 290 - 10;
#X obj 330 320 tabwrite signal;
#X obj 330 230 t b f f f;
#X msg 420 170 0;
#X msg 100 280 \; signal 0 1 0 3 5 4 5 6 2 3 10, f 31;
#X msg 100 320 \; signal 0 3 -10 2 4 3 5 6 8 10 3;
#X msg 100 360 \; signal 0 8 6 5 9 3 2 -9 1 9 0, f 31;
#X text 320 80 randomitza el senyal;
#X obj 550 100 cnv 15 242 295 empty empty empty 20 12 0 14 #e0e0e0
#404040 0;
#X obj 560 110 bng 15 250 50 0 empty empty empty 17 7 0 10 #fcfcfc
#000000 #000000;
#X obj 560 170 until;
#X obj 560 200 f;
#X obj 600 200 + 1;
#X msg 690 170 0;
#X obj 560 230 t f f;
#X obj 560 290 tabread signal;
#X obj 560 320 sel 10 -10;
#X obj 590 350 bng 34 250 50 0 empty empty empty 17 7 0 10 #fcfcfc
#000000 #000000;
#X text 550 80 detecta clipping;
#X text 630 360 si s'encén ha clipat!;
#X obj 560 260 sel;
#X obj 640 200 expr size("signal");
#X obj 560 140 t b b b;
#X obj 330 140 t b b b;
#X obj 410 260 sel;
#X text 100 260 senyals de prova:;
#X connect 2 0 31 0;
#X connect 3 0 32 1;
#X connect 4 0 5 0;
#X connect 5 0 10 0;
#X connect 6 0 5 1;
#X connect 7 0 8 0;
#X connect 8 0 9 0;
#X connect 10 0 7 0;
#X connect 10 1 9 1;
#X connect 10 2 6 0;
#X connect 10 3 32 0;
#X connect 11 0 5 1;
#X connect 17 0 30 0;
#X connect 18 0 19 0;
#X connect 19 0 22 0;
#X connect 20 0 19 1;
#X connect 21 0 19 1;
#X connect 22 0 28 0;
#X connect 22 1 20 0;
#X connect 23 0 24 0;
#X connect 24 0 25 0;
#X connect 24 1 25 0;
#X connect 28 0 18 1;
#X connect 28 1 23 0;
#X connect 29 0 28 1;
#X connect 30 0 18 0;
#X connect 30 1 29 0;
#X connect 30 2 21 0;
#X connect 31 0 4 0;
#X connect 31 1 3 0;
#X connect 31 2 11 0;
#X connect 32 0 4 1;
#X connect 32 0 17 0;
