#N canvas 0 0 1664 956 10;
#N canvas 0 0 450 300 (subpatch) 0;
#X array impulse 100 float 3 black black;
#A 0 0.9 0.81 0.729 0.6561 0.59049 0.531441 0.478297 0.430467 0.38742
0.348678 0.31381 0.282429 0.254186 0.228768 0.205891 0 0 0 0 0 0 0
0 0 0 0 0 0 0 0 0 0 0 0 0 0 0 0 0 0 0 0 0 0 0 0 0 0 0 0 0 0 0 0 0 0
0 0 0 0 0 0 0 0 0 0 0 0 0 0 0 0 0 0 0 0 0 0 0 0 0 0 0 0 0 0 0 0 0 0
0 0 0 0 0 0 0 0 0 0;
#X coords 0 1 100 -1 200 140 1;
#X restore 280 100 graph;
#X obj 500 100 tgl 19 0 empty empty empty 17 7 0 10 #fcfcfc #000000
#000000 0 1;
#X obj 520 280 tabread impulse;
#X obj 410 500 tabwrite impulse;
#X obj 500 210 f;
#X obj 530 210 + 1;
#X msg 570 160 0;
#X obj 560 370 f;
#X obj 520 430 +;
#X obj 600 110 bng 15 250 50 0 empty empty empty 17 7 0 10 #fcfcfc
#000000 #000000;
#X obj 520 460 t f f;
#X obj 500 130 metro 100;
#X msg 630 160 \; impulse const 0 \; impulse 0 1, f 18;
#X obj 520 400 * 0.1;
#X obj 560 400 * 0.9;
#X text 560 440 guarda el darrer valor per multiplicar-lo per 0.9 en
la següent iteració, f 27;
#X text 617 110 reinicia tot;
#X text 630 202 reinicia taula;
#X text 493 83 inici;
#X msg 280 250 \; impulse const 0 \; impulse 0 0 0 0 0 0 0 0 0 0 0
0 0 0 0 0 0 0 0 0 0 1 0 0 0 0 0 0 0 0 0 0 0 0 0 0 0 0 0 0 0 0 -1,
f 18;
#X msg 630 310 0;
#X obj 500 240 t f f f f;
#X obj 630 280 sel 0;
#X obj 630 340 tabread impulse;
#X obj 520 310 t f b;
#X text 667 277 fixa el valor n-1 inicial al primer valor de la taula
, f 15;
#X connect 1 0 11 0;
#X connect 2 0 24 0;
#X connect 4 0 21 0;
#X connect 5 0 4 1;
#X connect 6 0 4 1;
#X connect 6 0 4 0;
#X connect 7 0 14 0;
#X connect 8 0 10 0;
#X connect 9 0 6 0;
#X connect 9 0 12 0;
#X connect 10 0 3 0;
#X connect 10 1 7 1;
#X connect 11 0 4 0;
#X connect 13 0 8 0;
#X connect 14 0 8 1;
#X connect 20 0 23 0;
#X connect 21 0 3 1;
#X connect 21 1 2 0;
#X connect 21 2 5 0;
#X connect 21 3 22 0;
#X connect 22 0 20 0;
#X connect 23 0 7 1;
#X connect 24 0 13 0;
#X connect 24 1 7 0;
