#N canvas 308 129 1209 641 10;
#X obj 420 80 cnv 15 208 56 empty empty empty 20 12 0 14 #ffffb5 #404040
0;
#X obj 240 80 tgl 31 0 empty empty empty 17 7 0 10 #fcfcfc #000000
#000000 0 1;
#X obj 240 370 bng 57 250 50 0 empty empty empty 17 7 0 10 #fcfcfc
#000000 #000000;
#X obj 267 210 f;
#X obj 300 210 + 1;
#X obj 267 240 t f f;
#X obj 267 270 % 2;
#X obj 267 300 sel 0 1;
#X obj 240 170 t b b;
#X obj 320 80 loadbang;
#X msg 320 110 60000;
#X floatatom 430 110 5 0 0 0 - - -, f 5;
#X obj 380 190 /;
#X obj 380 220 t f f f;
#X msg 370 110 60;
#X obj 240 140 metro;
#X obj 480 110 hsl 128 15 0.5 1 0 1 empty empty empty -2 -8 0 10 #fcfcfc
#000000 #000000 3550 1;
#X obj 500 260 -;
#X msg 490 230 1;
#X obj 390 300 *;
#X obj 420 300 *;
#X obj 330 350 f;
#X obj 360 350 f;
#X obj 410 150 t b f;
#X text 430 90 bpm;
#X text 500 90 swing % (50-100);
#X obj 480 150 t b f b b f f;
#X obj 560 180 * 100;
#X floatatom 560 210 5 0 0 0 - - -, f 5;
#X connect 1 0 15 0;
#X connect 3 0 5 0;
#X connect 4 0 3 1;
#X connect 5 0 6 0;
#X connect 5 1 4 0;
#X connect 6 0 7 0;
#X connect 7 0 21 0;
#X connect 7 1 22 0;
#X connect 8 0 2 0;
#X connect 8 1 3 0;
#X connect 9 0 10 0;
#X connect 9 0 14 0;
#X connect 10 0 12 0;
#X connect 11 0 23 0;
#X connect 12 0 13 0;
#X connect 13 0 15 1;
#X connect 13 1 19 0;
#X connect 13 2 20 0;
#X connect 14 0 11 0;
#X connect 15 0 8 0;
#X connect 16 0 26 0;
#X connect 17 0 20 1;
#X connect 18 0 17 0;
#X connect 19 0 21 1;
#X connect 20 0 22 1;
#X connect 21 0 15 1;
#X connect 22 0 15 1;
#X connect 23 0 12 0;
#X connect 23 1 12 1;
#X connect 26 0 19 0;
#X connect 26 1 19 1;
#X connect 26 2 20 0;
#X connect 26 3 18 0;
#X connect 26 4 17 1;
#X connect 26 5 27 0;
#X connect 27 0 28 0;
