#N canvas 455 35 1058 772 10;
#X obj 410 218 cnv 15 171 100 empty empty empty 20 12 0 14 #e0e0e0
#404040 0;
#X obj 410 100 cnv 15 171 109 empty empty empty 20 12 0 14 #e0e0e0
#404040 0;
#X obj 481 -103 cnv 15 195 195 empty empty empty 58 9 0 14 #2f2f2f
#404040 0;
#X obj 581 -93 tgl 85 0 s_b1 r_b1 empty 17 7 0 10 #dd4b3e #dd4b3e #000000
1 1;
#X obj 491 -3 tgl 85 0 s_b3 r_b3 empty 17 7 0 10 #4b3edd #4b3edd #000000
1 1;
#X obj 581 -3 tgl 85 0 s_b2 r_b2 empty 17 7 0 10 #3edd4b #3edd4b #000000
0 1;
#X obj 491 -93 tgl 85 0 s_b4 r_b4 empty 17 7 0 10 #ffea37 #ffea37 #000000
0 1;
#N canvas 278 100 455 402 gensol 0;
#X obj 40 170 until;
#X obj 40 210 f;
#X obj 100 210 + 1;
#X obj 40 270 random 4;
#X obj 40 300 tabwrite sol;
#X msg 90 170 0;
#X obj 40 240 t b f f;
#X obj 40 110 f;
#N canvas 0 0 450 300 (subpatch) 0;
#X array sol 5 float 3 black black;
#A 0 0 2 2 2 2;
#X coords 0 3 5 0 187 108 1;
#X restore 130 210 graph;
#X msg 130 170 \; sol resize \$1;
#X obj 40 140 t f b f;
#X floatatom 40 24 5 0 0 0 - - -, f 5;
#X obj 110 10 bng 27 250 50 0 empty empty empty 17 7 0 10 #fcfcfc #000000
#000000;
#X obj 40 80 t b b;
#X obj 50 -50 loadbang;
#X msg 50 -25 32;
#X obj 90 80 v length;
#X text 90 40 confirma;
#X text 40 40 torns;
#X connect 0 0 1 0;
#X connect 1 0 6 0;
#X connect 2 0 1 1;
#X connect 3 0 4 0;
#X connect 5 0 1 1;
#X connect 6 0 3 0;
#X connect 6 1 4 1;
#X connect 6 2 2 0;
#X connect 7 0 10 0;
#X connect 10 0 0 0;
#X connect 10 1 5 0;
#X connect 10 2 9 0;
#X connect 11 0 7 1;
#X connect 11 0 16 0;
#X connect 12 0 13 0;
#X connect 13 0 7 0;
#X connect 13 1 11 0;
#X connect 14 0 15 0;
#X connect 15 0 11 0;
#X coords 0 -1 1 1 124 62 1 31 -3;
#X restore 430 141 pd gensol;
#X text 420 108 1 - sel·lecciona la durada de la partida, f 24;
#X text 460 720 comment;
#X text 420 230 3 - inicia el joc, f 18;
#X obj 590 100 cnv 15 167 129 empty empty empty 20 12 0 14 #e0e0e0
#404040 0;
#X text 600 110 2 - sel·lecciona la dificultat de la partida, f 24
;
#N canvas 292 200 454 306 dif 0;
#X obj 117 79 bng 27 250 50 0 empty empty empty 17 7 0 10 #fcfcfc #000000
#000000;
#X obj 159 79 bng 27 250 50 0 empty empty empty 17 7 0 10 #fcfcfc #000000
#000000;
#X obj 201 79 bng 27 250 50 0 empty empty empty 17 7 0 10 #fcfcfc #000000
#000000;
#X obj 150 208 v dif;
#X msg 110 168 1;
#X msg 150 168 0.9;
#X msg 190 168 0.8;
#X text 114 114 fàcil normal difícil;
#X obj 40 110 loadbang;
#X connect 0 0 4 0;
#X connect 1 0 5 0;
#X connect 2 0 6 0;
#X connect 4 0 3 0;
#X connect 5 0 3 0;
#X connect 6 0 3 0;
#X connect 8 0 5 0;
#X coords 0 -1 1 1 140 78 1 105 58;
#X restore 600 143 pd dif;
#X text 590 240 (la dificultat de la partida afecta a la velocitat
a la que accelera el joc), f 28;
#N canvas 536 232 450 306 start 0;
#X obj 40 380 cnv 15 173 128 empty empty empty 20 12 0 14 #e0e0e0 #404040
0;
#X obj 130 440 dac~;
#N canvas 376 0 770 772 ui 0;
#X obj 40 80 r s_b1;
#X obj 40 180 s r_b1;
#X obj 40 130 del 400;
#X obj 40 270 del 400;
#X obj 320 130 del 400;
#X obj 320 270 del 400;
#X obj 40 220 r s_b2;
#X obj 40 320 s r_b2;
#X obj 320 80 r s_b3;
#X obj 320 180 s r_b3;
#X obj 320 220 r s_b4;
#X obj 320 320 s r_b4;
#X msg 320 295 color #ffea37 #ffea37 #000000;
#X msg 40 155 color #dd4b3e #dd4b3e #000000;
#X msg 40 295 color #3edd4b #3edd4b #000000;
#X msg 320 155 color #4b3edd #4b3edd #000000;
#X msg 380 270 color #fff59e #fff59e #000000;
#X msg 100 130 color #e8867d #e8867d #000000;
#X msg 100 270 color #7de886 #7de886 #000000;
#X msg 380 130 color #8e86ea #8e86ea #000000;
#X obj 70 400 mtof;
#X obj 70 425 phasor~;
#X obj 70 450 *~;
#X obj 160 360 tgl 15 0 empty empty empty 17 7 0 10 #fcfcfc #000000
#000000 0 1;
#X msg 100 360 64;
#X msg 40 360 48;
#X msg 70 360 52;
#X msg 130 360 57;
#X obj 70 480 outlet~;
#X msg 160 330 0;
#X msg 190 330 1;
#X obj 110 105 v long;
#X obj 40 105 t b b b b;
#X obj 320 105 t b b b b;
#X obj 40 245 t b b b b;
#X obj 320 245 t b b b b;
#X obj 396 106 v long;
#X obj 395 245 v long;
#X obj 117 246 v long;
#X connect 0 0 32 0;
#X connect 2 0 13 0;
#X connect 2 0 29 0;
#X connect 3 0 14 0;
#X connect 3 0 29 0;
#X connect 4 0 15 0;
#X connect 4 0 29 0;
#X connect 5 0 12 0;
#X connect 5 0 29 0;
#X connect 6 0 34 0;
#X connect 8 0 33 0;
#X connect 10 0 35 0;
#X connect 12 0 11 0;
#X connect 13 0 1 0;
#X connect 14 0 7 0;
#X connect 15 0 9 0;
#X connect 16 0 11 0;
#X connect 17 0 1 0;
#X connect 18 0 7 0;
#X connect 19 0 9 0;
#X connect 20 0 21 0;
#X connect 21 0 22 0;
#X connect 22 0 28 0;
#X connect 23 0 22 1;
#X connect 24 0 20 0;
#X connect 25 0 20 0;
#X connect 26 0 20 0;
#X connect 27 0 20 0;
#X connect 29 0 23 0;
#X connect 30 0 23 0;
#X connect 31 0 2 1;
#X connect 32 0 2 0;
#X connect 32 1 17 0;
#X connect 32 1 30 0;
#X connect 32 2 25 0;
#X connect 32 3 31 0;
#X connect 33 0 4 0;
#X connect 33 1 19 0;
#X connect 33 1 30 0;
#X connect 33 2 24 0;
#X connect 33 3 36 0;
#X connect 34 0 3 0;
#X connect 34 1 18 0;
#X connect 34 1 30 0;
#X connect 34 2 26 0;
#X connect 34 3 38 0;
#X connect 35 0 5 0;
#X connect 35 1 16 0;
#X connect 35 1 30 0;
#X connect 35 2 27 0;
#X connect 35 3 37 0;
#X connect 36 0 4 1;
#X connect 37 0 5 1;
#X connect 38 0 3 1;
#X restore 240 350 pd ui;
#N canvas 400 20 1022 802 player 0;
#X obj 160 150 inlet;
#X obj 230 150 inlet;
#X obj 240 430 outlet;
#X text 100 100 inlet1: incia partida (bang) inlet2: següent torn
(bang) outlet: fi de torn (bang), f 30;
#X msg 250 210 0;
#X obj 100 280 f;
#X obj 180 280 + 1;
#X obj 100 360 tabread sol;
#X obj 100 390 sel 0 1 2 3;
#X obj 100 430 s r_b1;
#X obj 115 450 s r_b2;
#X obj 131 470 s r_b3;
#X obj 146 490 s r_b4;
#X obj 100 230 metro 800;
#X msg 267 400 0;
#X obj 180 310 t f f;
#X obj 310 280 + 1;
#X obj 240 370 t b b;
#X obj 100 310 t f f;
#X text 240 450 bang quan acaba el torn;
#X obj 270 250 v torn;
#X text 335 280 numero de torn;
#X obj 270 280 t f f;
#X obj 240 340 sel;
#X msg 160 180 0;
#X obj 260 310 + 1;
#X text 278 210 reinicia torn;
#X text 106 174 reinicia partida, f 10;
#X text -40 300 primer toca la nota \, després avança el torn, f
24;
#X floatatom 310 310 5 0 0 0 - - -, f 5;
#X msg 190 180 800;
#X obj 440 280 f;
#X obj 440 300 * 0.9;
#X floatatom 440 330 5 0 0 0 - - -, f 5;
#X text 468 280 accelera el metro cada torn;
#X text 475 330 ms;
#X obj 440 380 v long;
#X text 480 360 actualitza quan duren les notes, f 17;
#X obj 470 250 v dif;
#X obj 230 180 t 1 b b b b;
#X obj 440 360 * 0.85;
#X connect 0 0 24 0;
#X connect 0 0 30 0;
#X connect 1 0 39 0;
#X connect 4 0 5 1;
#X connect 5 0 18 0;
#X connect 6 0 15 0;
#X connect 7 0 8 0;
#X connect 8 0 9 0;
#X connect 8 1 10 0;
#X connect 8 2 11 0;
#X connect 8 3 12 0;
#X connect 13 0 5 0;
#X connect 14 0 13 0;
#X connect 15 0 5 1;
#X connect 15 1 23 0;
#X connect 16 0 20 0;
#X connect 16 0 29 0;
#X connect 17 0 2 0;
#X connect 17 1 14 0;
#X connect 18 0 6 0;
#X connect 18 1 7 0;
#X connect 20 0 22 0;
#X connect 22 0 25 0;
#X connect 22 1 16 0;
#X connect 23 0 17 0;
#X connect 24 0 20 0;
#X connect 24 0 25 0;
#X connect 25 0 23 1;
#X connect 30 0 13 1;
#X connect 30 0 31 1;
#X connect 31 0 32 0;
#X connect 32 0 13 1;
#X connect 32 0 31 1;
#X connect 32 0 33 0;
#X connect 33 0 40 0;
#X connect 38 0 32 1;
#X connect 39 0 13 0;
#X connect 39 1 4 0;
#X connect 39 2 20 0;
#X connect 39 3 31 0;
#X connect 39 4 38 0;
#X connect 40 0 36 0;
#X restore 160 284 pd player;
#X msg 60 440 \; pd dsp 1;
#X obj 50 410 loadbang;
#X obj 160 250 bng 24 250 50 0 empty empty empty 17 7 0 10 #fcfcfc
#000000 #000000;
#X obj 211 250 bng 24 250 50 0 empty empty empty 17 7 0 10 #fcfcfc
#000000 #000000;
#X obj 160 310 bng 24 250 50 0 empty empty empty 17 7 0 10 #fcfcfc
#000000 #000000;
#X obj 50 250 bng 24 250 50 0 empty empty empty 17 7 0 10 #fcfcfc #000000
#000000;
#X obj 119 250 bng 24 250 50 0 empty empty empty 17 7 0 10 #fcfcfc
#000000 #000000;
#N canvas 316 0 890 772 listener 0;
#X obj 200 130 inlet;
#X obj 280 130 inlet;
#X obj 80 710 outlet;
#X obj 150 710 outlet;
#X obj 220 710 outlet;
#X text 0 30 inlet1: incia partida (bang) inlet2: següent torn (bang)
outlet: fi de torn (bang) outlet2: fi de partida-error outlet3: fi
de partida-win, f 32;
#X obj 0 130 r s_b1;
#X obj 50 130 r s_b2;
#X obj 100 130 r s_b3;
#X obj 150 130 r s_b4;
#X obj 270 380 v torn;
#X obj 130 230 spigot;
#X msg 200 160 0;
#X msg 280 180 1;
#X msg 0 160 0;
#X msg 50 160 1;
#X msg 100 160 2;
#X msg 150 160 3;
#X text 280 110 escolta;
#X text 200 110 no escolta;
#X text 0 110 entrades;
#X obj 150 430 ==, f 2;
#X obj 160 290 f;
#X obj 210 290 + 1;
#X obj 130 260 t f b;
#X msg 180 260 0;
#X obj 160 360 tabread sol;
#X floatatom 150 460 5 0 0 0 - - -, f 5;
#X text 150 730 error;
#X text 80 730 next;
#X text 220 730 victoria;
#X obj 280 150 t b b b;
#X obj 150 680 t b b;
#X obj 80 680 t b b;
#X obj 150 490 sel 0 1;
#X obj 80 620 f;
#X obj 80 650 sel;
#X obj 220 680 spigot;
#X obj 320 380 v length;
#X obj 250 470 sel;
#X msg 280 530 1;
#X obj 170 530 t b b;
#X obj 80 590 spigot;
#X msg 250 530 0;
#X text 20 490 comprova encert/error;
#X text 274 460 quan el pas es igual que la longitud del joc..., f
24;
#X text 249 549 ... obre la victoria i tanca el next, f 21;
#X text 220 310 treient el cable des del [+ 1] m'estalvio sumar 1,
f 25;
#X text -50 300 comment;
#X obj 160 320 t f f;
#X connect 0 0 12 0;
#X connect 0 0 38 0;
#X connect 1 0 31 0;
#X connect 6 0 14 0;
#X connect 7 0 15 0;
#X connect 8 0 16 0;
#X connect 9 0 17 0;
#X connect 10 0 36 1;
#X connect 11 0 24 0;
#X connect 12 0 11 1;
#X connect 12 0 37 1;
#X connect 13 0 11 1;
#X connect 13 0 42 1;
#X connect 14 0 11 0;
#X connect 15 0 11 0;
#X connect 16 0 11 0;
#X connect 17 0 11 0;
#X connect 21 0 27 0;
#X connect 22 0 49 0;
#X connect 23 0 22 1;
#X connect 23 0 35 1;
#X connect 23 0 39 0;
#X connect 24 0 21 0;
#X connect 24 1 22 0;
#X connect 25 0 22 1;
#X connect 26 0 21 1;
#X connect 27 0 34 0;
#X connect 31 0 13 0;
#X connect 31 1 25 0;
#X connect 31 2 10 0;
#X connect 32 0 3 0;
#X connect 32 1 12 0;
#X connect 33 0 2 0;
#X connect 33 1 12 0;
#X connect 34 0 32 0;
#X connect 34 1 41 0;
#X connect 35 0 36 0;
#X connect 36 0 33 0;
#X connect 37 0 4 0;
#X connect 38 0 39 1;
#X connect 39 0 40 0;
#X connect 39 0 43 0;
#X connect 40 0 37 1;
#X connect 41 0 42 0;
#X connect 41 1 37 0;
#X connect 42 0 35 0;
#X connect 43 0 42 1;
#X connect 49 0 26 0;
#X connect 49 1 23 0;
#X restore 50 284 pd listener;
#X obj 50 310 bng 24 250 50 0 empty empty empty 17 7 0 10 #fcfcfc #000000
#000000;
#X obj 84 310 bng 24 250 50 0 empty empty empty 17 7 0 10 #fcfcfc #000000
#000000;
#X obj 119 310 bng 24 250 50 0 empty empty empty 17 7 0 10 #fcfcfc
#000000 #000000;
#X obj 90 80 bng 46 250 50 0 empty empty empty 17 7 0 10 #fcfcfc #000000
#000000;
#X obj 50 210 t b b b, f 17;
#X obj 50 350 delay 1000;
#X text 50 390 audio config;
#N canvas 444 0 634 772 win 0;
#X obj 40 80 inlet;
#X obj 40 390 mtof;
#X obj 40 420 phasor~;
#X obj 40 460 *~;
#X obj 40 200 f;
#X obj 120 200 + 1;
#X msg 120 170 0;
#X obj 40 140 t b b;
#X msg 160 230 0;
#X obj 40 270 sel 0 1 2 3;
#X obj 160 200 sel 4;
#X obj 40 230 t f f;
#X obj 110 110 bng 15 250 50 0 empty empty empty 17 7 0 10 #fcfcfc
#000000 #000000;
#X msg 110 420 0;
#X msg 180 390 1;
#X obj 40 310 t b b 56;
#X obj 100 310 t b b 60;
#X obj 220 310 t b b 68;
#X obj 160 310 t b b 63;
#X msg 220 420 0;
#X obj 220 390 delay 400;
#X obj 40 170 metro 120;
#X obj 110 390 delay 110;
#X obj 40 490 outlet~;
#X obj 40 110 delay 800;
#N canvas 686 225 721 450 llums 0;
#X obj 40 205 s r_b1;
#X obj 40 315 s r_b2;
#X obj 320 205 s r_b3;
#X obj 320 315 s r_b4;
#X msg 320 290 color #ffea37 #ffea37 #000000;
#X msg 40 180 color #dd4b3e #dd4b3e #000000;
#X msg 40 290 color #3edd4b #3edd4b #000000;
#X msg 320 180 color #4b3edd #4b3edd #000000;
#X msg 380 265 color #fff59e #fff59e #000000;
#X msg 100 155 color #e8867d #e8867d #000000;
#X msg 100 265 color #7de886 #7de886 #000000;
#X msg 380 155 color #8e86ea #8e86ea #000000;
#X obj 40 80 t b f;
#X obj 40 -40 inlet;
#X obj 40 20 metro 400;
#X obj 40 50 f;
#X obj 90 50 + 1;
#X obj 130 50 sel 4;
#X obj 40 -10 t b 0;
#X msg 110 -10 0;
#X obj 40 130 t b b;
#X obj 320 130 t b b;
#X obj 320 240 t b b;
#X obj 40 240 t b b;
#X obj 40 155 del 200;
#X obj 40 265 del 200;
#X obj 320 155 del 200;
#X obj 320 265 del 200;
#X connect 4 0 3 0;
#X connect 5 0 0 0;
#X connect 6 0 1 0;
#X connect 7 0 2 0;
#X connect 8 0 3 0;
#X connect 9 0 0 0;
#X connect 10 0 1 0;
#X connect 11 0 2 0;
#X connect 12 0 20 0;
#X connect 12 0 21 0;
#X connect 12 0 22 0;
#X connect 12 0 23 0;
#X connect 12 1 16 0;
#X connect 13 0 18 0;
#X connect 14 0 15 0;
#X connect 15 0 12 0;
#X connect 16 0 17 0;
#X connect 17 0 19 0;
#X connect 17 1 15 1;
#X connect 18 0 14 0;
#X connect 18 1 15 1;
#X connect 19 0 14 0;
#X connect 19 0 15 1;
#X connect 20 0 24 0;
#X connect 20 1 9 0;
#X connect 21 0 26 0;
#X connect 21 1 11 0;
#X connect 22 0 27 0;
#X connect 22 1 8 0;
#X connect 23 0 25 0;
#X connect 23 1 10 0;
#X connect 24 0 5 0;
#X connect 25 0 6 0;
#X connect 26 0 7 0;
#X connect 27 0 4 0;
#X restore 90 140 pd llums;
#X text 150 140 fa pampallugues;
#X connect 0 0 24 0;
#X connect 1 0 2 0;
#X connect 2 0 3 0;
#X connect 3 0 23 0;
#X connect 4 0 11 0;
#X connect 5 0 10 0;
#X connect 6 0 4 1;
#X connect 7 0 21 0;
#X connect 7 1 6 0;
#X connect 8 0 21 0;
#X connect 9 0 15 0;
#X connect 9 1 16 0;
#X connect 9 2 18 0;
#X connect 9 3 17 0;
#X connect 10 0 8 0;
#X connect 10 0 6 0;
#X connect 10 1 4 1;
#X connect 11 0 9 0;
#X connect 11 1 5 0;
#X connect 12 0 7 0;
#X connect 13 0 3 1;
#X connect 14 0 3 1;
#X connect 15 0 22 0;
#X connect 15 1 14 0;
#X connect 15 2 1 0;
#X connect 16 0 22 0;
#X connect 16 1 14 0;
#X connect 16 2 1 0;
#X connect 17 0 20 0;
#X connect 17 1 14 0;
#X connect 17 2 1 0;
#X connect 18 0 22 0;
#X connect 18 1 14 0;
#X connect 18 2 1 0;
#X connect 19 0 3 1;
#X connect 20 0 19 0;
#X connect 21 0 4 0;
#X connect 22 0 13 0;
#X connect 24 0 7 0;
#X connect 24 0 25 0;
#X restore 190 350 pd win;
#N canvas 444 0 634 772 lose 0;
#X obj 110 20 inlet;
#X obj 110 330 mtof;
#X obj 110 360 phasor~;
#X obj 110 400 *~;
#X obj 110 140 f;
#X obj 190 140 + 1;
#X msg 190 110 0;
#X obj 110 80 t b b;
#X msg 230 170 0;
#X obj 110 210 sel 0 1 2 3;
#X obj 230 140 sel 4;
#X obj 110 170 t f f;
#X obj 110 110 metro 500;
#X obj 180 50 bng 15 250 50 0 empty empty empty 17 7 0 10 #fcfcfc #000000
#000000;
#X msg 180 360 0;
#X msg 250 330 1;
#X obj 110 250 t b b 56;
#X obj 170 250 t b b 55;
#X obj 230 250 t b b 54;
#X obj 290 250 t b b 53;
#X obj 180 330 delay 400;
#X msg 290 360 0;
#X obj 290 330 delay 600;
#X obj 110 430 outlet~;
#X obj 110 50 delay 800;
#N canvas 686 225 721 450 llums 0;
#X obj 40 205 s r_b1;
#X obj 40 315 s r_b2;
#X obj 320 205 s r_b3;
#X obj 320 315 s r_b4;
#X msg 320 290 color #ffea37 #ffea37 #000000;
#X msg 40 180 color #dd4b3e #dd4b3e #000000;
#X msg 40 290 color #3edd4b #3edd4b #000000;
#X msg 320 180 color #4b3edd #4b3edd #000000;
#X msg 380 265 color #fff59e #fff59e #000000;
#X msg 100 155 color #e8867d #e8867d #000000;
#X msg 100 265 color #7de886 #7de886 #000000;
#X msg 380 155 color #8e86ea #8e86ea #000000;
#X obj 40 80 t b f;
#X obj 40 -40 inlet;
#X obj 40 20 metro 400;
#X obj 40 50 f;
#X obj 90 50 + 1;
#X obj 130 50 sel 4;
#X obj 40 -10 t b 0;
#X msg 110 -10 0;
#X obj 40 130 t b b;
#X obj 320 130 t b b;
#X obj 320 240 t b b;
#X obj 40 240 t b b;
#X obj 40 155 del 200;
#X obj 40 265 del 200;
#X obj 320 155 del 200;
#X obj 320 265 del 200;
#X connect 4 0 3 0;
#X connect 5 0 0 0;
#X connect 6 0 1 0;
#X connect 7 0 2 0;
#X connect 8 0 3 0;
#X connect 9 0 0 0;
#X connect 10 0 1 0;
#X connect 11 0 2 0;
#X connect 12 0 20 0;
#X connect 12 0 21 0;
#X connect 12 0 22 0;
#X connect 12 0 23 0;
#X connect 12 1 16 0;
#X connect 13 0 18 0;
#X connect 14 0 15 0;
#X connect 15 0 12 0;
#X connect 16 0 17 0;
#X connect 17 0 19 0;
#X connect 17 1 15 1;
#X connect 18 0 14 0;
#X connect 18 1 15 1;
#X connect 19 0 14 0;
#X connect 19 0 15 1;
#X connect 20 0 24 0;
#X connect 20 1 9 0;
#X connect 21 0 26 0;
#X connect 21 1 11 0;
#X connect 22 0 27 0;
#X connect 22 1 8 0;
#X connect 23 0 25 0;
#X connect 23 1 10 0;
#X connect 24 0 5 0;
#X connect 25 0 6 0;
#X connect 26 0 7 0;
#X connect 27 0 4 0;
#X restore 160 80 pd llums;
#X text 220 80 fa pampallugues;
#X connect 0 0 24 0;
#X connect 1 0 2 0;
#X connect 2 0 3 0;
#X connect 3 0 23 0;
#X connect 4 0 11 0;
#X connect 5 0 10 0;
#X connect 6 0 4 1;
#X connect 7 0 12 0;
#X connect 7 1 6 0;
#X connect 8 0 12 0;
#X connect 9 0 16 0;
#X connect 9 1 17 0;
#X connect 9 2 18 0;
#X connect 9 3 19 0;
#X connect 10 0 8 0;
#X connect 10 0 6 0;
#X connect 10 1 4 1;
#X connect 11 0 9 0;
#X connect 11 1 5 0;
#X connect 12 0 4 0;
#X connect 13 0 7 0;
#X connect 14 0 3 1;
#X connect 15 0 3 1;
#X connect 16 0 20 0;
#X connect 16 1 15 0;
#X connect 16 2 1 0;
#X connect 17 0 20 0;
#X connect 17 1 15 0;
#X connect 17 2 1 0;
#X connect 18 0 20 0;
#X connect 18 1 15 0;
#X connect 18 2 1 0;
#X connect 19 0 22 0;
#X connect 19 1 15 0;
#X connect 19 2 1 0;
#X connect 20 0 14 0;
#X connect 21 0 3 1;
#X connect 22 0 21 0;
#X connect 24 0 7 0;
#X connect 24 0 25 0;
#X restore 130 350 pd lose;
#N canvas 444 0 634 772 start 0;
#X obj 40 80 inlet;
#X obj 40 170 f;
#X obj 120 170 + 1;
#X msg 120 140 0;
#X msg 160 200 0;
#X obj 40 240 sel 0 1 2 3;
#X obj 40 280 s r_b1;
#X obj 55 300 s r_b2;
#X obj 71 320 s r_b3;
#X obj 86 340 s r_b4;
#X obj 160 170 sel 4;
#X obj 40 200 t f f;
#X obj 40 140 metro 400;
#X obj 40 110 t b b b;
#X msg 160 110 400;
#X obj 160 140 v long;
#X text 189 105 reinicia la duració de les notes, f 20;
#X connect 0 0 13 0;
#X connect 1 0 11 0;
#X connect 2 0 10 0;
#X connect 3 0 1 1;
#X connect 4 0 12 0;
#X connect 5 0 6 0;
#X connect 5 1 7 0;
#X connect 5 2 8 0;
#X connect 5 3 9 0;
#X connect 10 0 4 0;
#X connect 10 0 3 0;
#X connect 10 1 1 1;
#X connect 11 0 5 0;
#X connect 11 1 2 0;
#X connect 12 0 1 0;
#X connect 13 0 12 0;
#X connect 13 1 3 0;
#X connect 13 2 14 0;
#X connect 14 0 15 0;
#X restore 200 320 pd start;
#X obj 50 150 t b b b;
#X obj 50 180 delay 2000;
#X msg 50 480 400;
#X obj 90 480 v long;
#X connect 2 0 1 0;
#X connect 2 0 1 1;
#X connect 3 0 8 0;
#X connect 5 0 4 0;
#X connect 5 0 24 0;
#X connect 6 0 3 0;
#X connect 7 0 3 1;
#X connect 8 0 10 0;
#X connect 9 0 11 0;
#X connect 10 0 11 1;
#X connect 11 0 12 0;
#X connect 11 1 13 0;
#X connect 11 2 14 0;
#X connect 12 0 17 0;
#X connect 13 0 20 0;
#X connect 14 0 19 0;
#X connect 15 0 22 0;
#X connect 16 0 7 0;
#X connect 16 1 9 0;
#X connect 16 2 6 0;
#X connect 17 0 7 0;
#X connect 19 0 1 0;
#X connect 19 0 1 1;
#X connect 20 0 1 0;
#X connect 20 0 1 1;
#X connect 22 0 23 0;
#X connect 22 1 21 0;
#X connect 22 2 9 0;
#X connect 23 0 16 0;
#X connect 24 0 25 0;
#X coords 0 -1 1 1 124 59 1 20 72;
#X restore 430 252 pd start;
