#N canvas -8 -8 1920 1002 10;
#X obj 620 280 cnv 15 252 99 empty empty empty 20 12 0 14 #eaffc4 #404040
0;
#X obj 800 30 cnv 15 548 79 empty empty empty 20 12 0 14 #eaffc4 #404040
0;
#X obj 900 280 cnv 15 422 100 empty empty empty 20 12 0 14 #eaffc4
#404040 0;
#X obj 580 55 cnv 15 107 60 empty empty empty 20 12 0 14 #eaffc4 #404040
0;
#N canvas 0 0 450 300 (subpatch) 0;
#X array lead 8 float 3 black black;
#A 0 45 45 57 45 55 45 53 52;
#X coords 0 100 8 10 200 140 1;
#X restore 210 70 graph;
#N canvas 0 0 450 300 (subpatch) 0;
#X array drums 8 float 3 black black;
#A 0 36 38 37 38 38 36 37 38;
#X coords 0 100 8 10 200 140 1;
#X restore 210 370 graph;
#N canvas 536 234 450 303 (subpatch) 0;
#X array bass 8 float 3 black black;
#A 0 45 45 48 48 43 43 45 45;
#X coords 0 100 8 10 200 140 1;
#X restore 210 220 graph;
#X obj 440 587 f;
#X obj 480 586 + 1;
#X msg 480 625 0;
#X obj 440 606 t f f;
#X obj 440 40 tgl 28 0 empty empty empty 17 7 0 10 #fcfcfc #000000
#000000 0 1;
#X obj 440 770 noteout 1;
#X obj 580 770 noteout 2;
#X msg 210 560 \; bass 0 45 45 48 48 43 43 45 45;
#X obj 580 700 tabread bass;
#X obj 440 700 tabread lead;
#X obj 720 700 tabread drums;
#X msg 210 520 \; lead 0 45 45 57 45 55 45 53 52;
#X obj 440 730 makenote 127 200;
#X obj 580 730 makenote 127 200;
#X obj 920 350 tgl 17 0 empty empty empty 17 7 0 10 #fcfcfc #000000
#000000 0 1;
#X obj 940 350 tgl 17 0 empty empty empty 17 7 0 10 #fcfcfc #000000
#000000 0 1;
#X obj 1090 350 tgl 17 0 empty empty empty 17 7 0 10 #fcfcfc #000000
#000000 0 1;
#X obj 1110 350 tgl 17 0 empty empty empty 17 7 0 10 #fcfcfc #000000
#000000 0 1;
#X obj 1260 350 tgl 17 0 empty empty empty 17 7 0 10 #fcfcfc #000000
#000000 0 1;
#X obj 1280 350 tgl 17 0 empty empty empty 17 7 0 10 #fcfcfc #000000
#000000 0 1;
#X text 923 330 M;
#X text 943 330 S;
#X text 1093 330 M;
#X text 1113 330 S;
#X text 1263 330 M;
#X text 1283 330 S;
#X obj 440 670 spigot 1;
#X obj 580 670 spigot 1;
#X obj 720 670 spigot 1;
#X obj 500 670 == 0;
#X obj 640 670 == 0;
#X obj 780 670 == 0;
#X obj 920 510 t 0 1 1 b b b;
#X obj 980 590 f;
#X obj 940 590 f;
#X obj 1160 590 f;
#X obj 1120 590 f;
#X obj 1340 590 f;
#X obj 1300 590 f;
#X obj 950 410 sel 1 0;
#X obj 1120 410 sel 1 0;
#X obj 1290 410 sel 1 0;
#X obj 1090 510 t 1 0 1 b b b;
#X obj 1260 510 t 1 1 0 b b b;
#X obj 910 410 t f f;
#X obj 1080 410 t f f;
#X obj 1250 410 t f f;
#X obj 1010 510 t b b b;
#X obj 1180 510 t b b b;
#X obj 1350 510 t b b b;
#X obj 720 770 noteout 3;
#X obj 720 730 makenote 127 200;
#X msg 210 600 \; drums 0 36 38 37 38 38 36 37 38;
#X floatatom 590 85 5 0 0 0 - - -, f 5;
#X obj 510 20 loadbang;
#X msg 530 50 240;
#X obj 520 141 /;
#X obj 530 111 t b f;
#X obj 440 169 metro;
#X text 623 85 bpm;
#X text 598 55 tempo control;
#X text 1090 280 mixer;
#X text 910 310 lead synth;
#X text 1080 310 bass synth;
#X text 1250 310 808 drums;
#X obj 440 199 t b b b b;
#X obj 820 80 hsl 128 15 0 100 0 1 empty empty empty -2 -8 0 10 #fcfcfc
#000000 #000000 6700 1;
#X obj 800 136 random 100;
#X obj 800 166 <;
#X obj 480 605 sel 8;
#X obj 800 196 sel 1;
#X obj 440 229 f;
#X obj 470 229 + 1;
#X msg 520 84 30000;
#X obj 980 80 hsl 128 15 0 100 0 1 empty empty empty -2 -8 0 10 #fcfcfc
#000000 #000000 12700 1;
#X obj 960 136 random 100;
#X obj 960 166 <;
#X obj 960 196 sel 1;
#X obj 1140 80 hsl 128 15 0 100 0 1 empty empty empty -2 -8 0 10 #fcfcfc
#000000 #000000 12700 1;
#X obj 1120 136 random 100;
#X obj 1120 166 <;
#X obj 1120 196 sel 1;
#X msg 510 229 0;
#X text 720 -40 comment, f 11;
#X text 980 30 stochastic note omitter;
#X text 850 60 lead synth;
#X text 1010 60 bass synth;
#X text 1180 60 808 drums;
#X obj 1303 77 tgl 18 1 empty empty empty 17 7 0 10 #fcfcfc #000000
#000000 0 1;
#X text 1294 60 on/off;
#X obj 800 236 spigot 1;
#X obj 960 236 spigot 1;
#X obj 1120 236 spigot 1;
#X obj 1210 196 t f f f;
#X obj 1280 186 sel 0;
#X obj 1280 216 t f f f;
#X obj 750 350 hradio 15 0 0 3 empty empty empty 0 -8 0 10 #fcfcfc
#000000 #000000 0;
#X text 1327 181 perquè desmutegi al apagar el sistema (a vegades
es penja al apagar-ho), f 19;
#X text 1366 582 unitats de memòria per guardar l'estat al fer solo
, f 32;
#X text 1400 500 canvia els estats dels mute i guarda o recupera la
memòria, f 31;
#X text 435 21 inicia;
#X obj 600 460 sel 0 1 2;
#X obj 580 520 %;
#X obj 580 540 sel 0;
#X text 920 840 comment;
#X obj 810 350 hradio 15 0 0 3 empty empty empty 0 -8 0 10 #fcfcfc
#000000 #000000 0;
#X obj 740 460 sel 0 1 2;
#X obj 720 520 %;
#X obj 720 540 sel 0;
#X obj 690 350 hradio 15 0 0 3 empty empty empty 0 -8 0 10 #fcfcfc
#000000 #000000 0;
#X obj 460 460 sel 0 1 2;
#X obj 440 520 %;
#X obj 440 540 sel 0;
#X obj 580 588 f;
#X obj 620 587 + 1;
#X msg 620 626 0;
#X obj 580 607 t f f;
#X obj 620 606 sel 8;
#X obj 720 588 f;
#X obj 760 587 + 1;
#X msg 760 626 0;
#X obj 720 607 t f f;
#X obj 760 606 sel 8;
#X obj 450 420 loadbang;
#X text 714 280 divisor de tempo;
#X text 629 286 re-sync;
#X obj 638 308 bng 28 250 50 0 empty empty empty 17 7 0 10 #fcfcfc
#000000 #000000;
#X text 700 314 lead;
#X text 759 314 bass;
#X text 821 314 808;
#X obj 440 250 t f f;
#X obj 440 270 % 2;
#X obj 440 290 sel 0;
#X text 490 250 el rellotge del SNO va el doble de ràpid que el de
les notes perquè només agafi una a la vegada, f 18;
#X msg 450 480 1;
#X msg 480 480 2;
#X msg 590 480 1;
#X msg 620 480 2;
#X msg 730 480 1;
#X msg 760 480 2;
#X obj 440 340 f;
#X obj 470 340 + 1;
#X msg 510 340 0;
#X obj 440 370 t f f f f;
#X text 800 560 contadors independents perquè es puguin disparar a
diferents velocitats, f 14;
#X msg 510 480 3;
#X msg 650 480 3;
#X msg 790 480 3;
#X text 696 335 1 2 3;
#X text 756 335 1 2 3;
#X text 816 335 1 2 3;
#X connect 7 0 10 0;
#X connect 8 0 76 0;
#X connect 9 0 7 1;
#X connect 10 0 33 0;
#X connect 10 1 8 0;
#X connect 11 0 65 0;
#X connect 15 0 20 0;
#X connect 16 0 19 0;
#X connect 17 0 58 0;
#X connect 19 0 12 0;
#X connect 19 1 12 1;
#X connect 20 0 13 0;
#X connect 20 1 13 1;
#X connect 21 0 51 0;
#X connect 22 0 46 0;
#X connect 23 0 52 0;
#X connect 24 0 47 0;
#X connect 25 0 53 0;
#X connect 26 0 48 0;
#X connect 33 0 16 0;
#X connect 34 0 15 0;
#X connect 35 0 17 0;
#X connect 36 0 33 1;
#X connect 37 0 34 1;
#X connect 38 0 35 1;
#X connect 39 0 21 0;
#X connect 39 1 23 0;
#X connect 39 2 25 0;
#X connect 39 3 40 0;
#X connect 39 4 42 0;
#X connect 39 5 44 0;
#X connect 40 0 41 1;
#X connect 41 0 21 0;
#X connect 42 0 43 1;
#X connect 43 0 23 0;
#X connect 44 0 45 1;
#X connect 45 0 25 0;
#X connect 46 0 39 0;
#X connect 46 1 54 0;
#X connect 47 0 49 0;
#X connect 47 1 55 0;
#X connect 48 0 50 0;
#X connect 48 1 56 0;
#X connect 49 0 21 0;
#X connect 49 1 23 0;
#X connect 49 2 25 0;
#X connect 49 3 40 0;
#X connect 49 4 42 0;
#X connect 49 5 44 0;
#X connect 50 0 21 0;
#X connect 50 1 23 0;
#X connect 50 2 25 0;
#X connect 50 3 40 0;
#X connect 50 4 42 0;
#X connect 50 5 44 0;
#X connect 51 0 36 0;
#X connect 51 1 40 1;
#X connect 52 0 37 0;
#X connect 52 1 42 1;
#X connect 53 0 38 0;
#X connect 53 1 44 1;
#X connect 54 0 41 0;
#X connect 54 1 43 0;
#X connect 54 2 45 0;
#X connect 55 0 41 0;
#X connect 55 1 43 0;
#X connect 55 2 45 0;
#X connect 56 0 41 0;
#X connect 56 1 43 0;
#X connect 56 2 45 0;
#X connect 58 0 57 0;
#X connect 58 1 57 1;
#X connect 60 0 64 0;
#X connect 61 0 62 0;
#X connect 61 0 80 0;
#X connect 61 0 89 0;
#X connect 61 0 149 0;
#X connect 62 0 60 0;
#X connect 63 0 65 1;
#X connect 64 0 63 0;
#X connect 64 1 63 1;
#X connect 65 0 72 0;
#X connect 72 0 78 0;
#X connect 72 1 74 0;
#X connect 72 2 82 0;
#X connect 72 3 86 0;
#X connect 73 0 75 1;
#X connect 74 0 75 0;
#X connect 75 0 77 0;
#X connect 76 0 9 0;
#X connect 76 1 7 1;
#X connect 77 0 97 0;
#X connect 78 0 137 0;
#X connect 79 0 78 1;
#X connect 80 0 63 0;
#X connect 81 0 83 1;
#X connect 82 0 83 0;
#X connect 83 0 84 0;
#X connect 84 0 98 0;
#X connect 85 0 87 1;
#X connect 86 0 87 0;
#X connect 87 0 88 0;
#X connect 88 0 99 0;
#X connect 89 0 78 1;
#X connect 95 0 100 0;
#X connect 95 0 101 0;
#X connect 97 0 21 0;
#X connect 98 0 23 0;
#X connect 99 0 25 0;
#X connect 100 0 97 1;
#X connect 100 1 98 1;
#X connect 100 2 99 1;
#X connect 101 0 102 0;
#X connect 102 0 21 0;
#X connect 102 1 23 0;
#X connect 102 2 25 0;
#X connect 103 0 108 0;
#X connect 108 0 143 0;
#X connect 108 1 144 0;
#X connect 108 2 153 0;
#X connect 109 0 110 0;
#X connect 110 0 120 0;
#X connect 112 0 113 0;
#X connect 113 0 145 0;
#X connect 113 1 146 0;
#X connect 113 2 154 0;
#X connect 114 0 115 0;
#X connect 115 0 125 0;
#X connect 116 0 117 0;
#X connect 117 0 141 0;
#X connect 117 1 142 0;
#X connect 117 2 152 0;
#X connect 118 0 119 0;
#X connect 119 0 7 0;
#X connect 120 0 123 0;
#X connect 121 0 124 0;
#X connect 122 0 120 1;
#X connect 123 0 34 0;
#X connect 123 1 121 0;
#X connect 124 0 122 0;
#X connect 124 1 120 1;
#X connect 125 0 128 0;
#X connect 126 0 129 0;
#X connect 127 0 125 1;
#X connect 128 0 35 0;
#X connect 128 1 126 0;
#X connect 129 0 127 0;
#X connect 129 1 125 1;
#X connect 130 0 141 0;
#X connect 130 0 143 0;
#X connect 130 0 145 0;
#X connect 133 0 9 0;
#X connect 133 0 122 0;
#X connect 133 0 127 0;
#X connect 137 0 138 0;
#X connect 137 1 79 0;
#X connect 138 0 139 0;
#X connect 139 0 147 0;
#X connect 141 0 118 1;
#X connect 142 0 118 1;
#X connect 143 0 109 1;
#X connect 144 0 109 1;
#X connect 145 0 114 1;
#X connect 146 0 114 1;
#X connect 147 0 150 0;
#X connect 148 0 147 1;
#X connect 149 0 147 1;
#X connect 150 0 118 0;
#X connect 150 1 109 0;
#X connect 150 2 114 0;
#X connect 150 3 148 0;
#X connect 152 0 118 1;
#X connect 153 0 109 1;
#X connect 154 0 114 1;
