#N canvas 0 0 1664 956 16;
#X obj 200 320 tgl 24 0 empty empty empty 0 -12 0 16 #fcfcfc #000000
#000000 1 1;
#X obj 340 510 random;
#X obj 290 410 metro;
#X obj 440 660 noteout;
#X obj 310 450 t;
#X obj 390 590 +;
#X obj 540 510 random;
#X obj 540 590 +;
#X obj 200 -40 bng 48 250 50 0 empty empty empty 17 7 0 10 #fcfcfc
#000000 #000000;
#X obj 280 -50 cnv 15 330 399 empty empty empty 20 12 0 14 #ffff80
#404040 0;
#X text 343 -20 bpm;
#X obj 450 320 /;
#X msg 380 230 60000;
#X obj 460 270 t b f;
#X floatatom 470 20 5 0 0 0 - - -, f 5;
#X obj 460 130 random;
#X obj 470 230 +;
#X obj 380 60 metro 500;
#X obj 380 20 tgl 24 0 empty empty empty 0 -12 0 16 #fcfcfc #000000
#000000 1 1;
#X obj 480 180 t b f;
#X floatatom 290 -20 5 0 0 0 - - -, f 5;
#X obj 640 30 cnv 15 183 322 empty empty empty 20 12 0 14 #ff8080 #404040
0;
#X floatatom 690 80 5 0 0 0 - - -, f 5;
#X floatatom 718 143 5 0 0 0 - - -, f 5;
#X text 743 77 max;
#X text 770 140 min;
#X obj 677 303 -;
#X obj 710 230 t b f;
#X obj 730 270 t f f;
#X obj 850 100 cnv 15 183 322 empty empty empty 20 12 0 14 #8080ff
#404040 0;
#X floatatom 900 160 5 0 0 0 - - -, f 5;
#X floatatom 928 213 5 0 0 0 - - -, f 5;
#X text 953 157 max;
#X text 980 210 min;
#X obj 887 373 -;
#X obj 920 300 t b f;
#X obj 940 340 t f f;
#X text 280 -50 control de tempo;
#X text 640 30 control d'altura;
#X text 850 100 control de volum;
#X text 190 -70 iniciar;
#X msg 870 30 50;
#X msg 830 30 62;
#X msg 1080 100 50;
#X obj 850 -80 loadbang;
#X obj 530 130 / 2;
#X msg 1040 100 100;
#X floatatom 530 270 5 0 0 0 - - -, f 5;
#X obj 400 180 -;
#X text 410 10 on off, f 3;
#X text 520 20 range;
#X obj 480 60 t b f f;
#X floatatom 370 660 5 0 0 0 - - -, f 5;
#X floatatom 540 660 5 0 0 0 - - -, f 5;
#X text 320 -120 Randomitzador de melodies cromàtiques 1.2;
#X msg 620 -50 180;
#X msg 660 -50 40;
#X connect 0 0 2 0;
#X connect 1 0 5 0;
#X connect 2 0 4 0;
#X connect 4 0 1 0;
#X connect 4 1 6 0;
#X connect 5 0 3 0;
#X connect 5 0 52 0;
#X connect 6 0 7 0;
#X connect 7 0 3 1;
#X connect 7 0 53 0;
#X connect 8 0 0 0;
#X connect 8 0 12 0;
#X connect 8 0 18 0;
#X connect 11 0 2 1;
#X connect 12 0 11 0;
#X connect 13 0 11 0;
#X connect 13 1 11 1;
#X connect 14 0 51 0;
#X connect 15 0 19 0;
#X connect 16 0 13 0;
#X connect 16 0 47 0;
#X connect 17 0 15 0;
#X connect 18 0 17 0;
#X connect 19 0 16 0;
#X connect 19 1 16 1;
#X connect 20 0 48 0;
#X connect 22 0 26 0;
#X connect 23 0 27 0;
#X connect 26 0 1 1;
#X connect 27 0 26 0;
#X connect 27 1 28 0;
#X connect 28 0 26 1;
#X connect 28 1 5 1;
#X connect 30 0 34 0;
#X connect 31 0 35 0;
#X connect 34 0 6 1;
#X connect 35 0 34 0;
#X connect 35 1 36 0;
#X connect 36 0 34 1;
#X connect 36 1 7 1;
#X connect 41 0 23 0;
#X connect 42 0 22 0;
#X connect 43 0 31 0;
#X connect 44 0 56 0;
#X connect 44 0 55 0;
#X connect 44 0 42 0;
#X connect 44 0 41 0;
#X connect 44 0 46 0;
#X connect 44 0 43 0;
#X connect 45 0 48 1;
#X connect 46 0 30 0;
#X connect 48 0 16 0;
#X connect 51 0 48 0;
#X connect 51 1 15 1;
#X connect 51 2 45 0;
#X connect 55 0 20 0;
#X connect 56 0 14 0;
